codicon.ufo
<glyph name="add" format="2">
  <advance width="300"/>
  <unicode hex="EA60"/>
  <note>
add
</note>
  <outline>
    <contour>
      <point x="150" y="169" type="line"/>
      <point x="150" y="281" type="line"/>
      <point x="131" y="281" type="line"/>
      <point x="131" y="169" type="line"/>
      <point x="19" y="169" type="line"/>
      <point x="19" y="150" type="line"/>
      <point x="131" y="150" type="line"/>
      <point x="131" y="38" type="line"/>
      <point x="150" y="38" type="line"/>
      <point x="150" y="150" type="line"/>
      <point x="263" y="150" type="line"/>
      <point x="263" y="169" type="line"/>
    </contour>
  </outline>
</glyph>
<glyph name="lightbulb" format="2">
  <advance width="300"/>
  <unicode hex="EA61"/>
  <note>
lightbulb
</note>
  <outline>
    <contour>
      <point x="231" y="149"/>
      <point x="244" y="179"/>
      <point x="244" y="197" type="qcurve" smooth="yes"/>
      <point x="244" y="220"/>
      <point x="222" y="259"/>
      <point x="183" y="281"/>
      <point x="160" y="281" type="qcurve" smooth="yes"/>
      <point x="148" y="281"/>
      <point x="126" y="275"/>
      <point x="107" y="264"/>
      <point x="92" y="249"/>
      <point x="87" y="239" type="qcurve" smooth="yes"/>
      <point x="75" y="220"/>
      <point x="75" y="197" type="qcurve" smooth="yes"/>
      <point x="75" y="180"/>
      <point x="89" y="149"/>
      <point x="101" y="138" type="qcurve" smooth="yes"/>
      <point x="110" y="129"/>
      <point x="120" y="105"/>
      <point x="120" y="92" type="qcurve" smooth="yes"/>
      <point x="120" y="62" type="line" smooth="yes"/>
      <point x="120" y="52"/>
      <point x="134" y="37"/>
      <point x="145" y="38" type="qcurve" smooth="yes"/>
      <point x="175" y="38" type="line"/>
      <point x="180" y="37"/>
      <point x="184" y="39" type="qcurve" smooth="yes"/>
      <point x="191" y="42"/>
      <point x="199" y="55"/>
      <point x="199" y="62" type="qcurve" smooth="yes"/>
      <point x="199" y="92" type="line" smooth="yes"/>
      <point x="199" y="105"/>
      <point x="210" y="129"/>
      <point x="219" y="138" type="qcurve" smooth="yes"/>
    </contour>
    <contour>
      <point x="180" y="62" type="line" smooth="yes"/>
      <point x="180" y="59"/>
      <point x="177" y="56"/>
      <point x="175" y="56" type="qcurve" smooth="yes"/>
      <point x="145" y="56" type="line" smooth="yes"/>
      <point x="142" y="56"/>
      <point x="139" y="60"/>
      <point x="139" y="62" type="qcurve" smooth="yes"/>
      <point x="139" y="103" type="line"/>
      <point x="180" y="103" type="line"/>
    </contour>
  </outline>
</glyph>
<glyph name="repo" format="2">
  <advance width="300"/>
  <unicode hex="EA62"/>
  <note>
repo
</note>
  <outline>
    <contour>
      <point x="263" y="47" type="line"/>
      <point x="253" y="38" type="line"/>
      <point x="169" y="38" type="line"/>
      <point x="169" y="56" type="line"/>
      <point x="244" y="56" type="line"/>
      <point x="244" y="94" type="line"/>
      <point x="70" y="94" type="line" smooth="yes"/>
      <point x="67" y="94"/>
      <point x="65" y="93" type="qcurve" smooth="yes"/>
      <point x="59" y="90"/>
      <point x="57" y="85" type="qcurve" smooth="yes"/>
      <point x="56" y="82"/>
      <point x="56" y="80" type="qcurve" smooth="yes"/>
      <point x="56" y="70" type="line" smooth="yes"/>
      <point x="56" y="68"/>
      <point x="57" y="65" type="qcurve" smooth="yes"/>
      <point x="59" y="60"/>
      <point x="65" y="57" type="qcurve" smooth="yes"/>
      <point x="67" y="56"/>
      <point x="70" y="56" type="qcurve" smooth="yes"/>
      <point x="75" y="56" type="line"/>
      <point x="75" y="38" type="line"/>
      <point x="70" y="38" type="line" smooth="yes"/>
      <point x="64" y="38"/>
      <point x="58" y="40" type="qcurve" smooth="yes"/>
      <point x="45" y="45"/>
      <point x="40" y="58" type="qcurve" smooth="yes"/>
      <point x="37" y="64"/>
      <point x="37" y="70" type="qcurve" smooth="yes"/>
      <point x="37" y="248" type="line"/>
      <point x="38" y="254"/>
      <point x="40" y="260" type="qcurve" smooth="yes"/>
      <point x="45" y="273"/>
      <point x="58" y="279" type="qcurve" smooth="yes"/>
      <point x="64" y="281"/>
      <point x="70" y="281" type="qcurve" smooth="yes"/>
      <point x="253" y="281" type="line"/>
      <point x="263" y="272" type="line"/>
      <point x="263" y="113" type="line"/>
    </contour>
    <contour>
      <point x="244" y="113" type="line"/>
      <point x="244" y="263" type="line"/>
      <point x="75" y="263" type="line"/>
      <point x="75" y="113" type="line"/>
    </contour>
    <contour>
      <point x="94" y="225" type="line"/>
      <point x="113" y="225" type="line"/>
      <point x="113" y="244" type="line"/>
      <point x="94" y="244" type="line"/>
    </contour>
    <contour>
      <point x="94" y="188" type="line"/>
      <point x="113" y="188" type="line"/>
      <point x="113" y="206" type="line"/>
      <point x="94" y="206" type="line"/>
    </contour>
    <contour>
      <point x="113" y="150" type="line"/>
      <point x="94" y="150" type="line"/>
      <point x="94" y="169" type="line"/>
      <point x="113" y="169" type="line"/>
    </contour>
    <contour>
      <point x="145" y="19" type="line"/>
      <point x="150" y="19" type="line"/>
      <point x="150" y="75" type="line"/>
      <point x="94" y="75" type="line"/>
      <point x="94" y="19" type="line"/>
      <point x="99" y="19" type="line"/>
      <point x="122" y="47" type="line"/>
    </contour>
  </outline>
</glyph>
<glyph name="repo-forked" format="2">
  <advance width="300"/>
  <unicode hex="EA63"/>
  <note>
repo-forked
</note>
  <outline>
    <contour>
      <point x="262" y="212"/>
      <point x="247" y="192"/>
      <point x="235" y="189" type="qcurve"/>
      <point x="235" y="169" type="line" smooth="yes"/>
      <point x="235" y="161"/>
      <point x="227" y="147"/>
      <point x="219" y="143" type="qcurve" smooth="yes"/>
      <point x="169" y="117" type="line"/>
      <point x="169" y="93" type="line"/>
      <point x="182" y="89"/>
      <point x="198" y="66"/>
      <point x="195" y="38"/>
      <point x="174" y="19"/>
      <point x="145" y="19"/>
      <point x="124" y="38"/>
      <point x="120" y="66"/>
      <point x="136" y="89"/>
      <point x="150" y="93" type="qcurve"/>
      <point x="150" y="117" type="line"/>
      <point x="99" y="144" type="line" smooth="yes"/>
      <point x="92" y="147"/>
      <point x="84" y="161"/>
      <point x="84" y="169" type="qcurve" smooth="yes"/>
      <point x="84" y="189" type="line"/>
      <point x="70" y="192"/>
      <point x="54" y="216"/>
      <point x="58" y="244"/>
      <point x="79" y="262"/>
      <point x="107" y="262"/>
      <point x="128" y="244"/>
      <point x="132" y="216"/>
      <point x="116" y="192"/>
      <point x="102" y="189" type="qcurve"/>
      <point x="102" y="169" type="line" smooth="yes"/>
      <point x="102" y="163"/>
      <point x="107" y="160" type="qcurve" smooth="yes"/>
      <point x="159" y="134" type="line"/>
      <point x="211" y="160" type="line" smooth="yes"/>
      <point x="216" y="163"/>
      <point x="216" y="169" type="qcurve" smooth="yes"/>
      <point x="216" y="189" type="line"/>
      <point x="202" y="192"/>
      <point x="186" y="217"/>
      <point x="190" y="245"/>
      <point x="213" y="264"/>
      <point x="243" y="261"/>
      <point x="263" y="240"/>
      <point x="263" y="225" type="qcurve" smooth="yes"/>
    </contour>
    <contour>
      <point x="75" y="217"/>
      <point x="86" y="206"/>
      <point x="102" y="206"/>
      <point x="112" y="217"/>
      <point x="112" y="233"/>
      <point x="102" y="244"/>
      <point x="86" y="244"/>
      <point x="75" y="233"/>
      <point x="75" y="225" type="qcurve" smooth="yes"/>
    </contour>
    <contour>
      <point x="178" y="64"/>
      <point x="167" y="75"/>
      <point x="151" y="75"/>
      <point x="140" y="64"/>
      <point x="140" y="48"/>
      <point x="151" y="38"/>
      <point x="167" y="38"/>
      <point x="178" y="48"/>
      <point x="178" y="56" type="qcurve" smooth="yes"/>
    </contour>
    <contour>
      <point x="233" y="206"/>
      <point x="244" y="217"/>
      <point x="244" y="233"/>
      <point x="233" y="244"/>
      <point x="217" y="244"/>
      <point x="206" y="233"/>
      <point x="206" y="217"/>
      <point x="217" y="206"/>
      <point x="225" y="206" type="qcurve" smooth="yes"/>
    </contour>
  </outline>
</glyph>
<glyph name="git-pull-request" format="2">
  <advance width="300"/>
  <unicode hex="EA64"/>
  <note>
git-pull-request
</note>
  <outline>
    <contour>
      <point x="113" y="219"/>
      <point x="113" y="234" type="qcurve" smooth="yes"/>
      <point x="114" y="254"/>
      <point x="85" y="282"/>
      <point x="66" y="281" type="qcurve" smooth="yes"/>
      <point x="51" y="281"/>
      <point x="28" y="265"/>
      <point x="17" y="239"/>
      <point x="22" y="211"/>
      <point x="42" y="191"/>
      <point x="56" y="188" type="qcurve"/>
      <point x="56" y="93" type="line"/>
      <point x="42" y="90"/>
      <point x="22" y="70"/>
      <point x="17" y="42"/>
      <point x="28" y="16"/>
      <point x="51" y="0"/>
      <point x="80" y="0"/>
      <point x="104" y="16"/>
      <point x="110" y="29" type="qcurve" smooth="yes"/>
      <point x="113" y="38"/>
      <point x="113" y="48" type="qcurve" smooth="yes"/>
      <point x="113" y="62"/>
      <point x="105" y="74" type="qcurve" smooth="yes"/>
      <point x="95" y="90"/>
      <point x="76" y="94" type="qcurve"/>
      <point x="76" y="188" type="line"/>
      <point x="84" y="190" type="line"/>
      <point x="97" y="196"/>
      <point x="105" y="208" type="qcurve" smooth="yes"/>
    </contour>
    <contour>
      <point x="95" y="53"/>
      <point x="94" y="38"/>
      <point x="85" y="24"/>
      <point x="69" y="18"/>
      <point x="53" y="21"/>
      <point x="40" y="33"/>
      <point x="39" y="41" type="qcurve" smooth="yes"/>
      <point x="36" y="54"/>
      <point x="53" y="75"/>
      <point x="66" y="75" type="qcurve" smooth="yes"/>
      <point x="74" y="75"/>
      <point x="87" y="67"/>
      <point x="91" y="60" type="qcurve" smooth="yes"/>
    </contour>
    <contour>
      <point x="44" y="216"/>
      <point x="37" y="232"/>
      <point x="40" y="248"/>
      <point x="52" y="260"/>
      <point x="69" y="264"/>
      <point x="85" y="257"/>
      <point x="94" y="244"/>
      <point x="95" y="228"/>
      <point x="87" y="214"/>
      <point x="74" y="206"/>
      <point x="58" y="206"/>
      <point x="51" y="211" type="qcurve" smooth="yes"/>
    </contour>
    <contour>
      <point x="244" y="197" type="line"/>
      <point x="245" y="206"/>
      <point x="241" y="215" type="qcurve" smooth="yes"/>
      <point x="236" y="228"/>
      <point x="212" y="244"/>
      <point x="198" y="244" type="qcurve" smooth="yes"/>
      <point x="163" y="244" type="line"/>
      <point x="187" y="268" type="line"/>
      <point x="173" y="281" type="line"/>
      <point x="133" y="241" type="line"/>
      <point x="133" y="228" type="line"/>
      <point x="173" y="188" type="line"/>
      <point x="187" y="201" type="line"/>
      <point x="163" y="225" type="line"/>
      <point x="198" y="225" type="line" smooth="yes"/>
      <point x="209" y="225"/>
      <point x="226" y="209"/>
      <point x="226" y="197" type="qcurve" smooth="yes"/>
      <point x="226" y="93" type="line"/>
      <point x="217" y="91"/>
      <point x="209" y="86" type="qcurve" smooth="yes"/>
      <point x="197" y="78"/>
      <point x="186" y="52"/>
      <point x="192" y="24"/>
      <point x="212" y="4"/>
      <point x="240" y="-2"/>
      <point x="266" y="9"/>
      <point x="282" y="33"/>
      <point x="282" y="47" type="qcurve" smooth="yes"/>
      <point x="282" y="66"/>
      <point x="268" y="80" type="qcurve" smooth="yes"/>
      <point x="258" y="90"/>
      <point x="244" y="93" type="qcurve"/>
    </contour>
    <contour>
      <point x="250" y="22"/>
      <point x="236" y="18"/>
      <point x="223" y="21"/>
      <point x="212" y="30"/>
      <point x="206" y="44"/>
      <point x="209" y="61"/>
      <point x="221" y="73"/>
      <point x="238" y="76"/>
      <point x="254" y="70"/>
      <point x="264" y="54"/>
      <point x="262" y="34"/>
      <point x="255" y="27" type="qcurve" smooth="yes"/>
    </contour>
  </outline>
</glyph>
<glyph name="record-keys" format="2">
  <advance width="300"/>
  <unicode hex="EA65"/>
  <note>
record-keys
</note>
  <outline>
    <contour>
      <point x="270" y="244"/>
      <point x="281" y="233"/>
      <point x="281" y="225" type="qcurve" smooth="yes"/>
      <point x="281" y="94" type="line" smooth="yes"/>
      <point x="281" y="86"/>
      <point x="270" y="75"/>
      <point x="263" y="75" type="qcurve" smooth="yes"/>
      <point x="56" y="75" type="line" smooth="yes"/>
      <point x="48" y="75"/>
      <point x="38" y="86"/>
      <point x="38" y="94" type="qcurve" smooth="yes"/>
      <point x="38" y="225" type="line" smooth="yes"/>
      <point x="38" y="233"/>
      <point x="48" y="244"/>
      <point x="56" y="244" type="qcurve" smooth="yes"/>
      <point x="263" y="244" type="line" smooth="yes"/>
    </contour>
    <contour>
      <point x="263" y="225" type="line"/>
      <point x="56" y="225" type="line"/>
      <point x="56" y="94" type="line"/>
      <point x="263" y="94" type="line"/>
    </contour>
    <contour>
      <point x="206" y="188" type="line"/>
      <point x="188" y="188" type="line"/>
      <point x="188" y="206" type="line"/>
      <point x="206" y="206" type="line"/>
    </contour>
    <contour>
      <point x="188" y="150" type="line"/>
      <point x="169" y="150" type="line"/>
      <point x="169" y="169" type="line"/>
      <point x="188" y="169" type="line"/>
    </contour>
    <contour>
      <point x="225" y="188" type="line"/>
      <point x="244" y="188" type="line"/>
      <point x="244" y="206" type="line"/>
      <point x="225" y="206" type="line"/>
    </contour>
    <contour>
      <point x="244" y="113" type="line"/>
      <point x="225" y="113" type="line"/>
      <point x="225" y="131" type="line"/>
      <point x="244" y="131" type="line"/>
    </contour>
    <contour>
      <point x="113" y="113" type="line"/>
      <point x="206" y="113" type="line"/>
      <point x="206" y="131" type="line"/>
      <point x="113" y="131" type="line"/>
    </contour>
    <contour>
      <point x="244" y="150" type="line"/>
      <point x="206" y="150" type="line"/>
      <point x="206" y="169" type="line"/>
      <point x="244" y="169" type="line"/>
    </contour>
    <contour>
      <point x="150" y="188" type="line"/>
      <point x="169" y="188" type="line"/>
      <point x="169" y="206" type="line"/>
      <point x="150" y="206" type="line"/>
    </contour>
    <contour>
      <point x="150" y="150" type="line"/>
      <point x="131" y="150" type="line"/>
      <point x="131" y="169" type="line"/>
      <point x="150" y="169" type="line"/>
    </contour>
    <contour>
      <point x="75" y="113" type="line"/>
      <point x="94" y="113" type="line"/>
      <point x="94" y="131" type="line"/>
      <point x="75" y="131" type="line"/>
    </contour>
    <contour>
      <point x="75" y="188" type="line"/>
      <point x="94" y="188" type="line"/>
      <point x="94" y="206" type="line"/>
      <point x="75" y="206" type="line"/>
    </contour>
    <contour>
      <point x="131" y="188" type="line"/>
      <point x="113" y="188" type="line"/>
      <point x="113" y="206" type="line"/>
      <point x="131" y="206" type="line"/>
    </contour>
    <contour>
      <point x="75" y="150" type="line"/>
      <point x="113" y="150" type="line"/>
      <point x="113" y="169" type="line"/>
      <point x="75" y="169" type="line"/>
    </contour>
  </outline>
</glyph>
<glyph name="tag" format="2">
  <advance width="300"/>
  <unicode hex="EA66"/>
  <note>
tag
</note>
  <outline>
    <contour>
      <point x="257" y="253" type="line"/>
      <point x="257" y="211" type="line"/>
      <point x="274" y="199"/>
      <point x="294" y="162"/>
      <point x="294" y="141" type="qcurve" smooth="yes"/>
      <point x="293" y="131" type="line" smooth="yes"/>
      <point x="291" y="110"/>
      <point x="268" y="76"/>
      <point x="231" y="56"/>
      <point x="189" y="56"/>
      <point x="171" y="66" type="qcurve"/>
      <point x="129" y="24" type="line"/>
      <point x="116" y="24" type="line"/>
      <point x="19" y="122" type="line"/>
      <point x="19" y="135" type="line"/>
      <point x="144" y="260" type="line"/>
      <point x="150" y="263" type="line"/>
      <point x="248" y="263" type="line"/>
    </contour>
    <contour>
      <point x="238" y="244" type="line"/>
      <point x="154" y="244" type="line"/>
      <point x="39" y="128" type="line"/>
      <point x="123" y="44" type="line"/>
      <point x="160" y="82" type="line"/>
      <point x="162" y="85"/>
      <point x="165" y="86" type="qcurve"/>
      <point x="238" y="160" type="line"/>
      <point x="238" y="200" type="line"/>
      <point x="225" y="206"/>
      <point x="210" y="206" type="qcurve" smooth="yes"/>
      <point x="206" y="206"/>
      <point x="201" y="212"/>
      <point x="201" y="220"/>
      <point x="206" y="225"/>
      <point x="210" y="225" type="qcurve" smooth="yes"/>
      <point x="224" y="225"/>
      <point x="238" y="220" type="qcurve"/>
    </contour>
    <contour>
      <point x="257" y="156" type="line"/>
      <point x="254" y="149" type="line"/>
      <point x="185" y="80" type="line"/>
      <point x="199" y="74"/>
      <point x="229" y="76"/>
      <point x="256" y="91"/>
      <point x="273" y="116"/>
      <point x="275" y="131" type="qcurve" smooth="yes"/>
      <point x="275" y="136"/>
      <point x="276" y="141" type="qcurve"/>
      <point x="276" y="154"/>
      <point x="266" y="177"/>
      <point x="257" y="187" type="qcurve"/>
    </contour>
  </outline>
</glyph>
<glyph name="person" format="2">
  <advance width="300"/>
  <unicode hex="EA67"/>
  <note>
person
</note>
  <outline>
    <contour>
      <point x="142" y="263"/>
      <point x="131" y="252"/>
      <point x="131" y="236"/>
      <point x="142" y="225"/>
      <point x="158" y="225"/>
      <point x="169" y="236"/>
      <point x="169" y="252"/>
      <point x="158" y="263"/>
      <point x="150" y="263" type="qcurve" smooth="yes"/>
    </contour>
    <contour>
      <point x="166" y="281"/>
      <point x="188" y="259"/>
      <point x="188" y="228"/>
      <point x="166" y="206"/>
      <point x="134" y="206"/>
      <point x="113" y="228"/>
      <point x="112" y="259"/>
      <point x="134" y="281"/>
      <point x="150" y="281" type="qcurve" smooth="yes"/>
    </contour>
    <contour>
      <point x="187" y="197"/>
      <point x="206" y="178"/>
      <point x="206" y="164" type="qcurve" smooth="yes"/>
      <point x="206" y="114" type="line"/>
      <point x="207" y="106"/>
      <point x="196" y="94"/>
      <point x="188" y="94" type="qcurve"/>
      <point x="188" y="51" type="line" smooth="yes"/>
      <point x="188" y="41"/>
      <point x="175" y="28"/>
      <point x="165" y="28" type="qcurve" smooth="yes"/>
      <point x="135" y="28" type="line" smooth="yes"/>
      <point x="126" y="28"/>
      <point x="112" y="41"/>
      <point x="113" y="50" type="qcurve"/>
      <point x="113" y="94" type="line"/>
      <point x="104" y="94"/>
      <point x="93" y="106"/>
      <point x="94" y="114" type="qcurve"/>
      <point x="94" y="164" type="line" smooth="yes"/>
      <point x="94" y="178"/>
      <point x="113" y="197"/>
      <point x="127" y="197" type="qcurve" smooth="yes"/>
      <point x="173" y="197" type="line" smooth="yes"/>
    </contour>
    <contour>
      <point x="131" y="113" type="line"/>
      <point x="131" y="50" type="line" smooth="yes"/>
      <point x="131" y="49"/>
      <point x="133" y="47"/>
      <point x="135" y="47" type="qcurve" smooth="yes"/>
      <point x="165" y="47" type="line" smooth="yes"/>
      <point x="167" y="47"/>
      <point x="169" y="49"/>
      <point x="169" y="50" type="qcurve" smooth="yes"/>
      <point x="169" y="113" type="line"/>
      <point x="187" y="113" type="line"/>
      <point x="187" y="164" type="line"/>
      <point x="188" y="170"/>
      <point x="179" y="178"/>
      <point x="173" y="178" type="qcurve" smooth="yes"/>
      <point x="127" y="178" type="line" smooth="yes"/>
      <point x="121" y="178"/>
      <point x="112" y="170"/>
      <point x="113" y="164" type="qcurve"/>
      <point x="113" y="113" type="line"/>
    </contour>
  </outline>
</glyph>
<glyph name="source-control" format="2">
  <advance width="300"/>
  <unicode hex="EA68"/>
  <note>
source-control
</note>
  <outline>
    <contour>
      <point x="263" y="180"/>
      <point x="239" y="153"/>
      <point x="222" y="151" type="qcurve"/>
      <point x="216" y="134"/>
      <point x="187" y="113"/>
      <point x="169" y="113" type="qcurve" smooth="yes"/>
      <point x="132" y="113" type="line" smooth="yes"/>
      <point x="121" y="113"/>
      <point x="103" y="102"/>
      <point x="98" y="92" type="qcurve"/>
      <point x="116" y="87"/>
      <point x="134" y="57"/>
      <point x="128" y="21"/>
      <point x="100" y="-1"/>
      <point x="64" y="1"/>
      <point x="39" y="26"/>
      <point x="36" y="62"/>
      <point x="58" y="90"/>
      <point x="76" y="94" type="qcurve"/>
      <point x="76" y="208" type="line"/>
      <point x="58" y="211"/>
      <point x="37" y="240"/>
      <point x="40" y="276"/>
      <point x="67" y="300"/>
      <point x="103" y="300"/>
      <point x="130" y="276"/>
      <point x="133" y="240"/>
      <point x="112" y="211"/>
      <point x="94" y="208" type="qcurve"/>
      <point x="94" y="117" type="line"/>
      <point x="110" y="132"/>
      <point x="132" y="132" type="qcurve" smooth="yes"/>
      <point x="169" y="132" type="line" smooth="yes"/>
      <point x="180" y="132"/>
      <point x="198" y="143"/>
      <point x="203" y="153" type="qcurve"/>
      <point x="190" y="157"/>
      <point x="172" y="176"/>
      <point x="168" y="202"/>
      <point x="177" y="227"/>
      <point x="199" y="243"/>
      <point x="225" y="245"/>
      <point x="249" y="233"/>
      <point x="263" y="210"/>
      <point x="263" y="197" type="qcurve" smooth="yes"/>
    </contour>
    <contour>
      <point x="57" y="242"/>
      <point x="73" y="225"/>
      <point x="97" y="225"/>
      <point x="113" y="242"/>
      <point x="113" y="265"/>
      <point x="97" y="281"/>
      <point x="73" y="281"/>
      <point x="57" y="265"/>
      <point x="57" y="253" type="qcurve" smooth="yes"/>
    </contour>
    <contour>
      <point x="113" y="59"/>
      <point x="97" y="76"/>
      <point x="73" y="76"/>
      <point x="57" y="59"/>
      <point x="57" y="36"/>
      <point x="73" y="20"/>
      <point x="97" y="20"/>
      <point x="113" y="36"/>
      <point x="113" y="48" type="qcurve" smooth="yes"/>
    </contour>
    <contour>
      <point x="227" y="169"/>
      <point x="244" y="186"/>
      <point x="244" y="209"/>
      <point x="227" y="225"/>
      <point x="204" y="225"/>
      <point x="188" y="209"/>
      <point x="188" y="186"/>
      <point x="204" y="169"/>
      <point x="216" y="169" type="qcurve" smooth="yes"/>
    </contour>
  </outline>
</glyph>
<glyph name="mirror" format="2">
  <advance width="300"/>
  <unicode hex="EA69"/>
  <note>
mirror
</note>
  <outline>
    <contour>
      <point x="139" y="281" type="line"/>
      <point x="23" y="206" type="line"/>
      <point x="19" y="199" type="line"/>
      <point x="19" y="27" type="line"/>
      <point x="33" y="19" type="line"/>
      <point x="150" y="94" type="line"/>
      <point x="267" y="19" type="line"/>
      <point x="281" y="27" type="line"/>
      <point x="281" y="199" type="line"/>
      <point x="277" y="206" type="line"/>
      <point x="161" y="281" type="line"/>
    </contour>
    <contour>
      <point x="141" y="110" type="line"/>
      <point x="141" y="110" type="line"/>
      <point x="38" y="44" type="line"/>
      <point x="38" y="194" type="line"/>
      <point x="141" y="260" type="line"/>
      <point x="141" y="206" type="line"/>
      <point x="160" y="206" type="line"/>
      <point x="160" y="260" type="line"/>
      <point x="263" y="194" type="line"/>
      <point x="263" y="44" type="line"/>
      <point x="160" y="110" type="line"/>
    </contour>
    <contour>
      <point x="207" y="169" type="line"/>
      <point x="93" y="169" type="line"/>
      <point x="124" y="200" type="line"/>
      <point x="111" y="213" type="line"/>
      <point x="65" y="166" type="line"/>
      <point x="65" y="153" type="line"/>
      <point x="111" y="107" type="line"/>
      <point x="124" y="120" type="line"/>
      <point x="94" y="150" type="line"/>
      <point x="207" y="150" type="line"/>
      <point x="177" y="120" type="line"/>
      <point x="190" y="107" type="line"/>
      <point x="236" y="153" type="line"/>
      <point x="236" y="166" type="line"/>
      <point x="190" y="213" type="line"/>
      <point x="176" y="200" type="line"/>
    </contour>
  </outline>
</glyph>
<glyph name="star-empty" format="2">
  <advance width="300"/>
  <unicode hex="EA6A"/>
  <note>
star-empty
</note>
  <outline>
    <contour>
      <point x="281" y="183" type="line"/>
      <point x="199" y="119" type="line"/>
      <point x="230" y="19" type="line"/>
      <point x="150" y="81" type="line"/>
      <point x="70" y="19" type="line"/>
      <point x="101" y="119" type="line"/>
      <point x="19" y="183" type="line"/>
      <point x="120" y="183" type="line"/>
      <point x="150" y="281" type="line"/>
      <point x="180" y="183" type="line"/>
    </contour>
    <contour>
      <point x="126" y="174" type="line"/>
      <point x="150" y="253" type="line"/>
      <point x="126" y="174" type="line"/>
      <point x="44" y="174" type="line"/>
    </contour>
    <contour>
      <point x="86" y="42" type="line"/>
      <point x="110" y="122" type="line"/>
    </contour>
    <contour>
      <point x="174" y="174" type="line"/>
      <point x="256" y="174" type="line"/>
    </contour>
    <contour>
      <point x="128" y="129" type="line"/>
      <point x="114" y="84" type="line"/>
      <point x="150" y="112" type="line"/>
      <point x="186" y="84" type="line"/>
      <point x="172" y="129" type="line"/>
      <point x="208" y="157" type="line"/>
      <point x="164" y="157" type="line"/>
      <point x="150" y="202" type="line"/>
      <point x="136" y="157" type="line"/>
      <point x="92" y="157" type="line"/>
    </contour>
  </outline>
</glyph>
<glyph name="comment" format="2">
  <advance width="300"/>
  <unicode hex="EA6B"/>
  <note>
comment
</note>
  <outline>
    <contour>
      <point x="281" y="253" type="line"/>
      <point x="281" y="84" type="line"/>
      <point x="272" y="75" type="line"/>
      <point x="145" y="75" type="line"/>
      <point x="91" y="21" type="line"/>
      <point x="75" y="28" type="line"/>
      <point x="75" y="75" type="line"/>
      <point x="28" y="75" type="line"/>
      <point x="19" y="84" type="line"/>
      <point x="19" y="253" type="line"/>
      <point x="28" y="263" type="line"/>
      <point x="272" y="263" type="line"/>
    </contour>
    <contour>
      <point x="263" y="244" type="line"/>
      <point x="38" y="244" type="line"/>
      <point x="38" y="94" type="line"/>
      <point x="84" y="94" type="line"/>
      <point x="94" y="84" type="line"/>
      <point x="94" y="51" type="line"/>
      <point x="134" y="91" type="line"/>
      <point x="141" y="94" type="line"/>
      <point x="263" y="94" type="line"/>
    </contour>
  </outline>
</glyph>
<glyph name="warning" format="2">
  <advance width="300"/>
  <unicode hex="EA6C"/>
  <note>
warning
</note>
  <outline>
    <contour>
      <point x="19" y="51" type="line"/>
      <point x="27" y="38" type="line"/>
      <point x="273" y="38" type="line"/>
      <point x="281" y="51" type="line"/>
      <point x="158" y="281" type="line"/>
      <point x="142" y="281" type="line"/>
    </contour>
    <contour>
      <point x="257" y="56" type="line"/>
      <point x="43" y="56" type="line"/>
      <point x="150" y="257" type="line"/>
    </contour>
    <contour>
      <point x="138" y="75" type="line"/>
      <point x="138" y="94" type="line"/>
      <point x="162" y="94" type="line"/>
      <point x="162" y="75" type="line"/>
    </contour>
    <contour>
      <point x="162" y="113" type="line"/>
      <point x="162" y="188" type="line"/>
      <point x="138" y="188" type="line"/>
      <point x="138" y="113" type="line"/>
    </contour>
  </outline>
</glyph>
<glyph name="search" format="2">
  <advance width="300"/>
  <unicode hex="EA6D"/>
  <note>
search
</note>
  <outline>
    <contour>
      <point x="191" y="300" type="line"/>
      <point x="224" y="300"/>
      <point x="279" y="260"/>
      <point x="299" y="195"/>
      <point x="277" y="131"/>
      <point x="221" y="93"/>
      <point x="154" y="95"/>
      <point x="127" y="116" type="qcurve"/>
      <point x="27" y="2" type="line"/>
      <point x="13" y="14" type="line"/>
      <point x="113" y="129" type="line"/>
      <point x="93" y="151"/>
      <point x="84" y="211"/>
      <point x="109" y="267"/>
      <point x="160" y="300"/>
      <point x="191" y="300" type="qcurve"/>
    </contour>
    <contour>
      <point x="191" y="112" type="line"/>
      <point x="214" y="112"/>
      <point x="252" y="135"/>
      <point x="275" y="174"/>
      <point x="275" y="220"/>
      <point x="252" y="259"/>
      <point x="214" y="281"/>
      <point x="168" y="281"/>
      <point x="129" y="259"/>
      <point x="106" y="220"/>
      <point x="106" y="174"/>
      <point x="129" y="135"/>
      <point x="168" y="113"/>
      <point x="191" y="113" type="qcurve"/>
    </contour>
  </outline>
</glyph>
<glyph name="sign-out" format="2">
  <advance width="300"/>
  <unicode hex="EA6E"/>
  <note>
sign-out
</note>
  <outline>
    <contour>
      <point x="207" y="244" type="line"/>
      <point x="76" y="244" type="line"/>
      <point x="144" y="220" type="line"/>
      <point x="150" y="212" type="line"/>
      <point x="150" y="56" type="line"/>
      <point x="207" y="56" type="line"/>
      <point x="207" y="100" type="line"/>
      <point x="225" y="81" type="line"/>
      <point x="225" y="47" type="line"/>
      <point x="216" y="38" type="line"/>
      <point x="150" y="38" type="line"/>
      <point x="150" y="19" type="line"/>
      <point x="138" y="10" type="line"/>
      <point x="44" y="42" type="line"/>
      <point x="38" y="51" type="line"/>
      <point x="38" y="244" type="line"/>
      <point x="38" y="244" type="line"/>
      <point x="38" y="253" type="line"/>
      <point x="47" y="263" type="line"/>
      <point x="216" y="263" type="line"/>
      <point x="225" y="253" type="line"/>
      <point x="225" y="219" type="line"/>
      <point x="207" y="200" type="line"/>
      <point x="207" y="229" type="line"/>
    </contour>
    <contour>
      <point x="131" y="205" type="line"/>
      <point x="56" y="230" type="line"/>
      <point x="56" y="57" type="line"/>
      <point x="131" y="32" type="line"/>
    </contour>
    <contour>
      <point x="223" y="110" type="line"/>
      <point x="236" y="97" type="line"/>
      <point x="282" y="143" type="line"/>
      <point x="282" y="157" type="line"/>
      <point x="236" y="203" type="line"/>
      <point x="223" y="190" type="line"/>
      <point x="253" y="160" type="line"/>
      <point x="160" y="160" type="line"/>
      <point x="160" y="141" type="line"/>
      <point x="254" y="141" type="line"/>
    </contour>
  </outline>
</glyph>
<glyph name="sign-in" format="2">
  <advance width="300"/>
  <unicode hex="EA6F"/>
  <note>
sign-in
</note>
  <outline>
    <contour>
      <point x="207" y="244" type="line"/>
      <point x="76" y="244" type="line"/>
      <point x="144" y="220" type="line"/>
      <point x="150" y="212" type="line"/>
      <point x="150" y="56" type="line"/>
      <point x="207" y="56" type="line"/>
      <point x="207" y="70" type="line"/>
      <point x="225" y="89" type="line"/>
      <point x="225" y="47" type="line"/>
      <point x="216" y="38" type="line"/>
      <point x="150" y="38" type="line"/>
      <point x="150" y="19" type="line"/>
      <point x="138" y="10" type="line"/>
      <point x="44" y="42" type="line"/>
      <point x="38" y="51" type="line"/>
      <point x="38" y="253" type="line"/>
      <point x="47" y="263" type="line"/>
      <point x="216" y="263" type="line"/>
      <point x="225" y="253" type="line"/>
      <point x="225" y="211" type="line"/>
      <point x="207" y="230" type="line"/>
      <point x="207" y="229" type="line"/>
    </contour>
    <contour>
      <point x="131" y="205" type="line"/>
      <point x="56" y="230" type="line"/>
      <point x="56" y="57" type="line"/>
      <point x="131" y="32" type="line"/>
    </contour>
    <contour>
      <point x="220" y="190" type="line"/>
      <point x="207" y="203" type="line"/>
      <point x="160" y="156" type="line"/>
      <point x="160" y="143" type="line"/>
      <point x="206" y="97" type="line"/>
      <point x="220" y="110" type="line"/>
      <point x="190" y="140" type="line"/>
      <point x="282" y="140" type="line"/>
      <point x="282" y="159" type="line"/>
      <point x="189" y="159" type="line"/>
    </contour>
  </outline>
</glyph>
<glyph name="eye" format="2">
  <advance width="300"/>
  <unicode hex="EA70"/>
  <note>
eye
</note>
  <outline>
    <contour>
      <point x="38" y="113" type="line"/>
      <point x="38" y="143"/>
      <point x="68" y="195"/>
      <point x="120" y="225"/>
      <point x="180" y="225"/>
      <point x="232" y="195"/>
      <point x="263" y="143"/>
      <point x="263" y="113" type="qcurve"/>
      <point x="281" y="113" type="line"/>
      <point x="281" y="148"/>
      <point x="246" y="209"/>
      <point x="186" y="244"/>
      <point x="114" y="244"/>
      <point x="54" y="209"/>
      <point x="19" y="148"/>
      <point x="19" y="113" type="qcurve"/>
    </contour>
    <contour>
      <point x="94" y="89"/>
      <point x="126" y="56"/>
      <point x="174" y="56"/>
      <point x="206" y="89"/>
      <point x="206" y="136"/>
      <point x="174" y="169"/>
      <point x="126" y="169"/>
      <point x="94" y="136"/>
      <point x="94" y="113" type="qcurve" smooth="yes"/>
    </contour>
    <contour>
      <point x="113" y="128"/>
      <point x="135" y="150"/>
      <point x="165" y="150"/>
      <point x="188" y="128"/>
      <point x="188" y="97"/>
      <point x="165" y="75"/>
      <point x="135" y="75"/>
      <point x="113" y="97"/>
      <point x="113" y="113" type="qcurve" smooth="yes"/>
    </contour>
  </outline>
</glyph>
<glyph name="circle-filled" format="2">
  <advance width="300"/>
  <unicode hex="EA71"/>
  <note>
circle-filled
</note>
  <outline>
    <contour>
      <point x="140" y="225"/>
      <point x="121" y="220"/>
      <point x="112" y="215" type="qcurve" smooth="yes"/>
      <point x="95" y="205"/>
      <point x="85" y="188" type="qcurve" smooth="yes"/>
      <point x="80" y="179"/>
      <point x="75" y="160"/>
      <point x="75" y="140"/>
      <point x="78" y="130" type="qcurve" smooth="yes"/>
      <point x="83" y="111"/>
      <point x="111" y="83"/>
      <point x="130" y="78" type="qcurve" smooth="yes"/>
      <point x="140" y="75"/>
      <point x="160" y="75"/>
      <point x="170" y="78" type="qcurve" smooth="yes"/>
      <point x="189" y="83"/>
      <point x="217" y="111"/>
      <point x="222" y="130" type="qcurve" smooth="yes"/>
      <point x="225" y="140"/>
      <point x="225" y="160"/>
      <point x="222" y="170" type="qcurve" smooth="yes"/>
      <point x="217" y="189"/>
      <point x="189" y="217"/>
      <point x="170" y="222" type="qcurve" smooth="yes"/>
      <point x="160" y="225"/>
      <point x="150" y="225" type="qcurve" smooth="yes"/>
    </contour>
  </outline>
</glyph>
<glyph name="primitive-square" format="2">
  <advance width="300"/>
  <unicode hex="EA72"/>
  <note>
primitive-square
</note>
  <outline>
    <contour>
      <point x="66" y="75" type="line"/>
      <point x="75" y="66" type="line"/>
      <point x="225" y="66" type="line"/>
      <point x="234" y="75" type="line"/>
      <point x="234" y="225" type="line"/>
      <point x="225" y="234" type="line"/>
      <point x="75" y="234" type="line"/>
      <point x="66" y="225" type="line"/>
    </contour>
    <contour>
      <point x="216" y="216" type="line"/>
      <point x="216" y="84" type="line"/>
      <point x="84" y="84" type="line"/>
      <point x="84" y="216" type="line"/>
    </contour>
  </outline>
</glyph>
<glyph name="edit" format="2">
  <advance width="300"/>
  <unicode hex="EA73"/>
  <note>
edit
</note>
  <outline>
    <contour>
      <point x="281" y="248" type="line"/>
      <point x="281" y="221" type="line"/>
      <point x="127" y="66" type="line"/>
      <point x="122" y="63" type="line"/>
      <point x="45" y="19" type="line"/>
      <point x="19" y="45" type="line"/>
      <point x="63" y="122" type="line"/>
      <point x="66" y="127" type="line"/>
      <point x="221" y="281" type="line"/>
      <point x="248" y="281" type="line"/>
    </contour>
    <contour>
      <point x="101" y="74" type="line"/>
      <point x="74" y="101" type="line"/>
      <point x="45" y="45" type="line"/>
    </contour>
    <contour>
      <point x="267" y="234" type="line"/>
      <point x="234" y="267" type="line"/>
      <point x="84" y="117" type="line"/>
      <point x="117" y="84" type="line"/>
    </contour>
  </outline>
</glyph>
<glyph name="info" format="2">
  <advance width="300"/>
  <unicode hex="EA74"/>
  <note>
info
</note>
  <outline>
    <contour>
      <point x="138" y="283"/>
      <point x="95" y="272"/>
      <point x="57" y="246"/>
      <point x="31" y="210"/>
      <point x="18" y="166"/>
      <point x="20" y="121"/>
      <point x="37" y="79"/>
      <point x="67" y="45"/>
      <point x="87" y="34" type="qcurve" smooth="yes"/>
      <point x="114" y="20"/>
      <point x="174" y="18"/>
      <point x="229" y="43"/>
      <point x="248" y="67" type="qcurve" smooth="yes"/>
      <point x="269" y="93"/>
      <point x="281" y="157"/>
      <point x="263" y="219"/>
      <point x="239" y="243" type="qcurve" smooth="yes"/>
      <point x="224" y="259"/>
      <point x="183" y="278"/>
      <point x="161" y="281" type="qcurve" smooth="yes"/>
    </contour>
    <contour>
      <point x="169" y="40" type="line" smooth="yes"/>
      <point x="151" y="36"/>
      <point x="113" y="42"/>
      <point x="96" y="51" type="qcurve" smooth="yes"/>
      <point x="70" y="65"/>
      <point x="39" y="115"/>
      <point x="36" y="174"/>
      <point x="62" y="227"/>
      <point x="87" y="244" type="qcurve" smooth="yes"/>
      <point x="108" y="258"/>
      <point x="159" y="265"/>
      <point x="208" y="248"/>
      <point x="226" y="230" type="qcurve" smooth="yes"/>
      <point x="246" y="209"/>
      <point x="262" y="156"/>
      <point x="251" y="101"/>
      <point x="233" y="79" type="qcurve" smooth="yes"/>
      <point x="221" y="64"/>
      <point x="188" y="44"/>
      <point x="170" y="40" type="qcurve" smooth="yes"/>
    </contour>
    <contour>
      <point x="138" y="206" type="line"/>
      <point x="162" y="206" type="line"/>
      <point x="162" y="188" type="line"/>
      <point x="138" y="188" type="line"/>
    </contour>
    <contour>
      <point x="138" y="169" type="line"/>
      <point x="138" y="94" type="line"/>
      <point x="162" y="94" type="line"/>
      <point x="162" y="169" type="line"/>
    </contour>
  </outline>
</glyph>
<glyph name="lock" format="2">
  <advance width="300"/>
  <unicode hex="EA75"/>
  <note>
lock
</note>
  <outline>
    <contour>
      <point x="263" y="150" type="line"/>
      <point x="263" y="38" type="line"/>
      <point x="244" y="19" type="line"/>
      <point x="56" y="19" type="line"/>
      <point x="38" y="38" type="line"/>
      <point x="38" y="150" type="line"/>
      <point x="56" y="169" type="line"/>
      <point x="75" y="169" type="line"/>
      <point x="75" y="206" type="line" smooth="yes"/>
      <point x="75" y="227"/>
      <point x="95" y="261"/>
      <point x="130" y="281"/>
      <point x="170" y="281"/>
      <point x="205" y="261"/>
      <point x="225" y="227"/>
      <point x="225" y="206" type="qcurve" smooth="yes"/>
      <point x="225" y="169" type="line"/>
      <point x="244" y="169" type="line"/>
    </contour>
    <contour>
      <point x="94" y="169" type="line"/>
      <point x="206" y="169" type="line"/>
      <point x="206" y="206" type="line" smooth="yes"/>
      <point x="206" y="230"/>
      <point x="173" y="263"/>
      <point x="127" y="262"/>
      <point x="94" y="230"/>
      <point x="94" y="206" type="qcurve" smooth="yes"/>
    </contour>
    <contour>
      <point x="244" y="150" type="line"/>
      <point x="56" y="150" type="line"/>
      <point x="56" y="38" type="line"/>
      <point x="244" y="38" type="line"/>
    </contour>
  </outline>
</glyph>
<glyph name="close" format="2">
  <advance width="300"/>
  <unicode hex="EA76"/>
  <note>
close
</note>
  <outline>
    <contour>
      <point x="82" y="68" type="line"/>
      <point x="68" y="82" type="line"/>
      <point x="137" y="150" type="line"/>
      <point x="68" y="218" type="line"/>
      <point x="82" y="232" type="line"/>
      <point x="150" y="163" type="line"/>
      <point x="218" y="232" type="line"/>
      <point x="232" y="218" type="line"/>
      <point x="163" y="150" type="line"/>
      <point x="232" y="82" type="line"/>
      <point x="218" y="68" type="line"/>
      <point x="150" y="137" type="line"/>
    </contour>
  </outline>
</glyph>
<glyph name="sync" format="2">
  <advance width="300"/>
  <unicode hex="EA77"/>
  <note>
sync
</note>
  <outline>
    <contour>
      <point x="39" y="107"/>
      <point x="87" y="49"/>
      <point x="160" y="32"/>
      <point x="229" y="62"/>
      <point x="248" y="95" type="qcurve"/>
      <point x="233" y="106" type="line"/>
      <point x="218" y="78"/>
      <point x="161" y="52"/>
      <point x="100" y="65"/>
      <point x="59" y="112"/>
      <point x="56" y="143" type="qcurve"/>
      <point x="78" y="121" type="line"/>
      <point x="93" y="135" type="line"/>
      <point x="53" y="175" type="line"/>
      <point x="39" y="175" type="line"/>
      <point x="0" y="136" type="line"/>
      <point x="15" y="122" type="line"/>
      <point x="38" y="145" type="line"/>
    </contour>
    <contour>
      <point x="242" y="185"/>
      <point x="203" y="233"/>
      <point x="143" y="249"/>
      <point x="85" y="225"/>
      <point x="69" y="198" type="qcurve"/>
      <point x="54" y="209" type="line"/>
      <point x="74" y="241"/>
      <point x="143" y="268"/>
      <point x="215" y="249"/>
      <point x="261" y="191"/>
      <point x="262" y="154" type="qcurve"/>
      <point x="285" y="176" type="line"/>
      <point x="299" y="162" type="line"/>
      <point x="260" y="123" type="line"/>
      <point x="245" y="123" type="line"/>
      <point x="206" y="163" type="line"/>
      <point x="221" y="177" type="line"/>
      <point x="244" y="154" type="line"/>
    </contour>
  </outline>
</glyph>
<glyph name="desktop-download" format="2">
  <advance width="300"/>
  <unicode hex="EA78"/>
  <note>
desktop-download
</note>
  <outline>
    <contour>
      <point x="182" y="19" type="line"/>
      <point x="136" y="66" type="line"/>
      <point x="145" y="75" type="line"/>
      <point x="38" y="75" type="line"/>
      <point x="38" y="244" type="line"/>
      <point x="263" y="244" type="line"/>
      <point x="263" y="99" type="line"/>
      <point x="281" y="80" type="line"/>
      <point x="281" y="253" type="line"/>
      <point x="272" y="263" type="line"/>
      <point x="28" y="263" type="line"/>
      <point x="19" y="253" type="line"/>
      <point x="19" y="66" type="line"/>
      <point x="28" y="56" type="line"/>
      <point x="113" y="56" type="line"/>
      <point x="113" y="51"/>
      <point x="111" y="48" type="qcurve" smooth="yes"/>
      <point x="109" y="43"/>
      <point x="92" y="38"/>
      <point x="75" y="38" type="qcurve"/>
      <point x="75" y="19" type="line"/>
    </contour>
    <contour>
      <point x="209" y="19" type="line"/>
      <point x="162" y="66" type="line"/>
      <point x="176" y="79" type="line"/>
      <point x="206" y="48" type="line"/>
      <point x="206" y="169" type="line"/>
      <point x="225" y="169" type="line"/>
      <point x="225" y="48" type="line"/>
      <point x="256" y="79" type="line"/>
      <point x="269" y="66" type="line"/>
      <point x="222" y="19" type="line"/>
    </contour>
  </outline>
</glyph>
<glyph name="beaker" format="2">
  <advance width="300"/>
  <unicode hex="EA79"/>
  <note>
beaker
</note>
  <outline>
    <contour>
      <point x="265" y="36"/>
      <point x="254" y="19"/>
      <point x="244" y="19" type="qcurve" smooth="yes"/>
      <point x="56" y="19" type="line" smooth="yes"/>
      <point x="46" y="19"/>
      <point x="35" y="36"/>
      <point x="39" y="46" type="qcurve"/>
      <point x="113" y="188" type="line"/>
      <point x="113" y="263" type="line"/>
      <point x="94" y="263" type="line"/>
      <point x="94" y="281" type="line"/>
      <point x="206" y="281" type="line"/>
      <point x="206" y="262" type="line"/>
      <point x="188" y="262" type="line"/>
      <point x="188" y="187" type="line"/>
      <point x="260" y="46" type="line" smooth="yes"/>
    </contour>
    <contour>
      <point x="95" y="112" type="line"/>
      <point x="205" y="112" type="line"/>
      <point x="169" y="183" type="line"/>
      <point x="169" y="262" type="line"/>
      <point x="131" y="262" type="line"/>
      <point x="131" y="184" type="line"/>
      <point x="129" y="180" type="line"/>
    </contour>
    <contour>
      <point x="244" y="37" type="line"/>
      <point x="215" y="94" type="line"/>
      <point x="85" y="94" type="line"/>
      <point x="56" y="37" type="line"/>
    </contour>
  </outline>
</glyph>
<glyph name="vm" format="2">
  <advance width="300"/>
  <unicode hex="EA7A"/>
  <note>
vm
</note>
  <outline>
    <contour>
      <point x="281" y="253" type="line"/>
      <point x="281" y="66" type="line"/>
      <point x="272" y="56" type="line"/>
      <point x="169" y="56" type="line"/>
      <point x="169" y="38" type="line"/>
      <point x="225" y="38" type="line"/>
      <point x="225" y="19" type="line"/>
      <point x="75" y="19" type="line"/>
      <point x="75" y="38" type="line"/>
      <point x="131" y="38" type="line"/>
      <point x="131" y="56" type="line"/>
      <point x="28" y="56" type="line"/>
      <point x="19" y="66" type="line"/>
      <point x="19" y="253" type="line"/>
      <point x="28" y="263" type="line"/>
      <point x="272" y="263" type="line"/>
    </contour>
    <contour>
      <point x="263" y="244" type="line"/>
      <point x="38" y="244" type="line"/>
      <point x="38" y="75" type="line"/>
      <point x="263" y="75" type="line"/>
    </contour>
  </outline>
</glyph>
<glyph name="file" format="2">
  <advance width="300"/>
  <unicode hex="EA7B"/>
  <note>
file
</note>
  <outline>
    <contour>
      <point x="263" y="206" type="line"/>
      <point x="263" y="38" type="line"/>
      <point x="244" y="19" type="line"/>
      <point x="75" y="19" type="line"/>
      <point x="56" y="38" type="line"/>
      <point x="56" y="263" type="line"/>
      <point x="75" y="281" type="line"/>
      <point x="188" y="281" type="line"/>
      <point x="201" y="276" type="line"/>
      <point x="257" y="220" type="line"/>
    </contour>
    <contour>
      <point x="244" y="188" type="line"/>
      <point x="169" y="188" type="line"/>
      <point x="169" y="263" type="line"/>
      <point x="75" y="263" type="line"/>
      <point x="75" y="38" type="line"/>
      <point x="244" y="38" type="line"/>
    </contour>
    <contour>
      <point x="244" y="206" type="line"/>
      <point x="188" y="263" type="line"/>
      <point x="188" y="206" type="line"/>
    </contour>
  </outline>
</glyph>
<glyph name="ellipsis" format="2">
  <advance width="300"/>
  <unicode hex="EA7C"/>
  <note>
ellipsis
</note>
  <outline>
    <contour>
      <point x="75" y="158"/>
      <point x="64" y="169"/>
      <point x="48" y="169"/>
      <point x="38" y="158"/>
      <point x="38" y="142"/>
      <point x="48" y="131"/>
      <point x="64" y="131"/>
      <point x="75" y="142"/>
      <point x="75" y="150" type="qcurve" smooth="yes"/>
    </contour>
    <contour>
      <point x="169" y="158"/>
      <point x="158" y="169"/>
      <point x="142" y="169"/>
      <point x="131" y="158"/>
      <point x="131" y="142"/>
      <point x="142" y="131"/>
      <point x="158" y="131"/>
      <point x="169" y="142"/>
      <point x="169" y="150" type="qcurve" smooth="yes"/>
    </contour>
    <contour>
      <point x="263" y="158"/>
      <point x="252" y="169"/>
      <point x="236" y="169"/>
      <point x="225" y="158"/>
      <point x="225" y="142"/>
      <point x="236" y="131"/>
      <point x="252" y="131"/>
      <point x="263" y="142"/>
      <point x="263" y="150" type="qcurve" smooth="yes"/>
    </contour>
  </outline>
</glyph>
<glyph name="reply" format="2">
  <advance width="300"/>
  <unicode hex="EA7D"/>
  <note>
reply
</note>
  <outline>
    <contour>
      <point x="132" y="246" type="line"/>
      <point x="73" y="188" type="line"/>
      <point x="107" y="188" type="line" smooth="yes"/>
      <point x="148" y="188"/>
      <point x="208" y="169"/>
      <point x="246" y="131"/>
      <point x="263" y="74"/>
      <point x="263" y="35" type="qcurve" smooth="yes"/>
      <point x="263" y="29" type="line"/>
      <point x="244" y="29" type="line"/>
      <point x="244" y="35" type="line" smooth="yes"/>
      <point x="244" y="106"/>
      <point x="214" y="137" type="qcurve" smooth="yes"/>
      <point x="198" y="153"/>
      <point x="146" y="169"/>
      <point x="107" y="169" type="qcurve" smooth="yes"/>
      <point x="71" y="169" type="line"/>
      <point x="132" y="109" type="line"/>
      <point x="118" y="96" type="line"/>
      <point x="43" y="171" type="line"/>
      <point x="43" y="184" type="line"/>
      <point x="118" y="260" type="line"/>
    </contour>
  </outline>
</glyph>
<glyph name="organization" format="2">
  <advance width="300"/>
  <unicode hex="EA7E"/>
  <note>
organization
</note>
  <outline>
    <contour>
      <point x="184" y="221"/>
      <point x="190" y="252"/>
      <point x="172" y="277"/>
      <point x="142" y="283"/>
      <point x="129" y="275" type="qcurve" smooth="yes"/>
      <point x="121" y="269"/>
      <point x="111" y="251"/>
      <point x="113" y="231"/>
      <point x="124" y="214"/>
      <point x="142" y="205"/>
      <point x="162" y="207"/>
      <point x="171" y="213" type="qcurve" smooth="yes"/>
    </contour>
    <contour>
      <point x="166" y="255"/>
      <point x="169" y="240"/>
      <point x="161" y="228"/>
      <point x="146" y="224"/>
      <point x="140" y="228" type="qcurve" smooth="yes"/>
      <point x="135" y="231"/>
      <point x="130" y="240"/>
      <point x="131" y="250"/>
      <point x="137" y="259"/>
      <point x="146" y="263"/>
      <point x="156" y="262"/>
      <point x="160" y="259" type="qcurve" smooth="yes"/>
    </contour>
    <contour>
      <point x="198" y="251"/>
      <point x="196" y="225"/>
      <point x="205" y="215" type="qcurve" smooth="yes"/>
      <point x="211" y="209"/>
      <point x="228" y="206"/>
      <point x="242" y="212"/>
      <point x="251" y="223"/>
      <point x="254" y="237"/>
      <point x="250" y="250"/>
      <point x="245" y="255" type="qcurve" smooth="yes"/>
      <point x="238" y="262"/>
      <point x="218" y="264"/>
      <point x="209" y="259" type="qcurve" smooth="yes"/>
    </contour>
    <contour>
      <point x="216" y="231"/>
      <point x="216" y="239"/>
      <point x="221" y="245"/>
      <point x="229" y="245"/>
      <point x="234" y="239"/>
      <point x="234" y="231"/>
      <point x="229" y="226"/>
      <point x="221" y="226"/>
      <point x="218" y="229" type="qcurve" smooth="yes"/>
    </contour>
    <contour>
      <point x="58" y="66"/>
      <point x="56" y="68"/>
      <point x="56" y="70" type="qcurve" smooth="yes"/>
      <point x="56" y="123" type="line"/>
      <point x="37" y="123" type="line"/>
      <point x="37" y="165" type="line" smooth="yes"/>
      <point x="37" y="170"/>
      <point x="46" y="179"/>
      <point x="52" y="179" type="qcurve" smooth="yes"/>
      <point x="76" y="179" type="line"/>
      <point x="79" y="190"/>
      <point x="86" y="198" type="qcurve"/>
      <point x="52" y="198" type="line" smooth="yes"/>
      <point x="38" y="198"/>
      <point x="19" y="178"/>
      <point x="19" y="165" type="qcurve" smooth="yes"/>
      <point x="19" y="124" type="line" smooth="yes"/>
      <point x="19" y="116"/>
      <point x="30" y="104"/>
      <point x="37" y="104" type="qcurve"/>
      <point x="37" y="70" type="line" smooth="yes"/>
      <point x="37" y="60"/>
      <point x="51" y="47"/>
      <point x="60" y="47" type="qcurve" smooth="yes"/>
      <point x="94" y="47" type="line"/>
      <point x="94" y="66" type="line"/>
      <point x="60" y="66" type="line" smooth="yes"/>
    </contour>
    <contour>
      <point x="206" y="178"/>
      <point x="206" y="165" type="qcurve" smooth="yes"/>
      <point x="206" y="105" type="line" smooth="yes"/>
      <point x="206" y="97"/>
      <point x="195" y="85"/>
      <point x="188" y="85" type="qcurve"/>
      <point x="188" y="41" type="line" smooth="yes"/>
      <point x="188" y="33"/>
      <point x="177" y="21"/>
      <point x="169" y="19" type="qcurve"/>
      <point x="131" y="19" type="line"/>
      <point x="124" y="20"/>
      <point x="119" y="25" type="qcurve" smooth="yes"/>
      <point x="112" y="32"/>
      <point x="113" y="41" type="qcurve"/>
      <point x="113" y="85" type="line"/>
      <point x="105" y="85"/>
      <point x="94" y="97"/>
      <point x="94" y="105" type="qcurve" smooth="yes"/>
      <point x="94" y="164" type="line" smooth="yes"/>
      <point x="94" y="178"/>
      <point x="113" y="198"/>
      <point x="127" y="198" type="qcurve" smooth="yes"/>
      <point x="173" y="198" type="line" smooth="yes"/>
      <point x="187" y="198"/>
      <point x="197" y="188" type="qcurve" smooth="yes"/>
    </contour>
    <contour>
      <point x="188" y="165" type="line" smooth="yes"/>
      <point x="188" y="167"/>
      <point x="185" y="174"/>
      <point x="178" y="179"/>
      <point x="173" y="179" type="qcurve" smooth="yes"/>
      <point x="127" y="179" type="line" smooth="yes"/>
      <point x="121" y="179"/>
      <point x="112" y="170"/>
      <point x="113" y="165" type="qcurve"/>
      <point x="113" y="104" type="line"/>
      <point x="131" y="104" type="line"/>
      <point x="131" y="41" type="line" smooth="yes"/>
      <point x="131" y="40"/>
      <point x="133" y="38"/>
      <point x="135" y="38" type="qcurve" smooth="yes"/>
      <point x="165" y="38" type="line" smooth="yes"/>
      <point x="167" y="38"/>
      <point x="169" y="40"/>
      <point x="169" y="41" type="qcurve" smooth="yes"/>
      <point x="169" y="104" type="line"/>
      <point x="188" y="104" type="line"/>
    </contour>
    <contour>
      <point x="249" y="47"/>
      <point x="263" y="60"/>
      <point x="263" y="70" type="qcurve" smooth="yes"/>
      <point x="263" y="104" type="line"/>
      <point x="270" y="104"/>
      <point x="281" y="116"/>
      <point x="281" y="124" type="qcurve" smooth="yes"/>
      <point x="281" y="165" type="line" smooth="yes"/>
      <point x="281" y="178"/>
      <point x="262" y="198"/>
      <point x="248" y="198" type="qcurve" smooth="yes"/>
      <point x="214" y="198" type="line"/>
      <point x="221" y="190"/>
      <point x="224" y="179" type="qcurve"/>
      <point x="248" y="179" type="line" smooth="yes"/>
      <point x="254" y="179"/>
      <point x="263" y="170"/>
      <point x="263" y="165" type="qcurve" smooth="yes"/>
      <point x="263" y="123" type="line"/>
      <point x="244" y="123" type="line"/>
      <point x="244" y="70" type="line" smooth="yes"/>
      <point x="244" y="68"/>
      <point x="241" y="66"/>
      <point x="240" y="66" type="qcurve" smooth="yes"/>
      <point x="206" y="66" type="line"/>
      <point x="206" y="47" type="line"/>
      <point x="240" y="47" type="line" smooth="yes"/>
    </contour>
    <contour>
      <point x="87" y="264"/>
      <point x="103" y="247"/>
      <point x="103" y="235" type="qcurve" smooth="yes"/>
      <point x="103" y="227"/>
      <point x="94" y="212"/>
      <point x="78" y="206"/>
      <point x="61" y="209"/>
      <point x="49" y="221"/>
      <point x="46" y="238"/>
      <point x="52" y="254"/>
      <point x="66" y="264"/>
      <point x="75" y="264" type="qcurve" smooth="yes"/>
    </contour>
    <contour>
      <point x="79" y="226"/>
      <point x="84" y="231"/>
      <point x="84" y="239"/>
      <point x="79" y="245"/>
      <point x="71" y="245"/>
      <point x="66" y="239"/>
      <point x="66" y="231"/>
      <point x="71" y="226"/>
      <point x="75" y="226" type="qcurve" smooth="yes"/>
    </contour>
  </outline>
</glyph>
<glyph name="new-file" format="2">
  <advance width="300"/>
  <unicode hex="EA7F"/>
  <note>
new-file
</note>
  <outline>
    <contour>
      <point x="173" y="281" type="line"/>
      <point x="47" y="281" type="line"/>
      <point x="38" y="272" type="line"/>
      <point x="38" y="47" type="line"/>
      <point x="47" y="38" type="line"/>
      <point x="131" y="38" type="line"/>
      <point x="131" y="56" type="line"/>
      <point x="56" y="56" type="line"/>
      <point x="56" y="263" type="line"/>
      <point x="150" y="263" type="line"/>
      <point x="150" y="188" type="line"/>
      <point x="225" y="188" type="line"/>
      <point x="225" y="169" type="line"/>
      <point x="244" y="169" type="line"/>
      <point x="244" y="206" type="line"/>
      <point x="242" y="214" type="line"/>
      <point x="178" y="279" type="line"/>
    </contour>
    <contour>
      <point x="223" y="206" type="line"/>
      <point x="169" y="206" type="line"/>
      <point x="169" y="263" type="line"/>
    </contour>
    <contour>
      <point x="244" y="56" type="line"/>
      <point x="300" y="56" type="line"/>
      <point x="300" y="75" type="line"/>
      <point x="244" y="75" type="line"/>
      <point x="244" y="131" type="line"/>
      <point x="225" y="131" type="line"/>
      <point x="225" y="75" type="line"/>
      <point x="169" y="75" type="line"/>
      <point x="169" y="56" type="line"/>
      <point x="225" y="56" type="line"/>
      <point x="225" y="0" type="line"/>
      <point x="244" y="0" type="line"/>
    </contour>
  </outline>
</glyph>
<glyph name="new-folder" format="2">
  <advance width="300"/>
  <unicode hex="EA80"/>
  <note>
new-folder
</note>
  <outline>
    <contour>
      <point x="281" y="253" type="line"/>
      <point x="281" y="169" type="line"/>
      <point x="262" y="169" type="line"/>
      <point x="263" y="206" type="line"/>
      <point x="144" y="206" type="line"/>
      <point x="128" y="190" type="line"/>
      <point x="122" y="188" type="line"/>
      <point x="37" y="188" type="line"/>
      <point x="37" y="75" type="line"/>
      <point x="131" y="75" type="line"/>
      <point x="131" y="56" type="line"/>
      <point x="28" y="56" type="line"/>
      <point x="19" y="66" type="line"/>
      <point x="19" y="272" type="line"/>
      <point x="28" y="281" type="line"/>
      <point x="122" y="281" type="line"/>
      <point x="129" y="278" type="line"/>
      <point x="145" y="263" type="line"/>
      <point x="272" y="263" type="line"/>
    </contour>
    <contour>
      <point x="263" y="244" type="line"/>
      <point x="141" y="244" type="line"/>
      <point x="134" y="246" type="line"/>
      <point x="118" y="262" type="line"/>
      <point x="38" y="262" type="line"/>
      <point x="38" y="206" type="line"/>
      <point x="118" y="206" type="line"/>
      <point x="134" y="222" type="line"/>
      <point x="140" y="225" type="line"/>
      <point x="262" y="225" type="line"/>
    </contour>
    <contour>
      <point x="244" y="56" type="line"/>
      <point x="300" y="56" type="line"/>
      <point x="300" y="75" type="line"/>
      <point x="244" y="75" type="line"/>
      <point x="244" y="131" type="line"/>
      <point x="225" y="131" type="line"/>
      <point x="225" y="75" type="line"/>
      <point x="169" y="75" type="line"/>
      <point x="169" y="56" type="line"/>
      <point x="225" y="56" type="line"/>
      <point x="225" y="0" type="line"/>
      <point x="244" y="0" type="line"/>
    </contour>
  </outline>
</glyph>
<glyph name="trash" format="2">
  <advance width="300"/>
  <unicode hex="EA81"/>
  <note>
trash
</note>
  <outline>
    <contour>
      <point x="188" y="263" type="line" smooth="yes"/>
      <point x="188" y="270"/>
      <point x="177" y="281"/>
      <point x="169" y="281" type="qcurve" smooth="yes"/>
      <point x="113" y="281" type="line" smooth="yes"/>
      <point x="105" y="281"/>
      <point x="94" y="270"/>
      <point x="94" y="263" type="qcurve" smooth="yes"/>
      <point x="94" y="244" type="line"/>
      <point x="38" y="244" type="line"/>
      <point x="38" y="225" type="line"/>
      <point x="56" y="225" type="line"/>
      <point x="56" y="56" type="line"/>
      <point x="75" y="38" type="line"/>
      <point x="206" y="38" type="line"/>
      <point x="225" y="56" type="line"/>
      <point x="225" y="225" type="line"/>
      <point x="244" y="225" type="line"/>
      <point x="244" y="244" type="line"/>
      <point x="188" y="244" type="line"/>
    </contour>
    <contour>
      <point x="169" y="244" type="line"/>
      <point x="113" y="244" type="line"/>
      <point x="113" y="263" type="line"/>
      <point x="169" y="263" type="line"/>
    </contour>
    <contour>
      <point x="75" y="225" type="line"/>
      <point x="206" y="225" type="line"/>
      <point x="206" y="56" type="line"/>
      <point x="75" y="56" type="line"/>
    </contour>
    <contour>
      <point x="113" y="75" type="line"/>
      <point x="94" y="75" type="line"/>
      <point x="94" y="206" type="line"/>
      <point x="113" y="206" type="line"/>
    </contour>
    <contour>
      <point x="131" y="75" type="line"/>
      <point x="150" y="75" type="line"/>
      <point x="150" y="206" type="line"/>
      <point x="131" y="206" type="line"/>
    </contour>
    <contour>
      <point x="169" y="75" type="line"/>
      <point x="188" y="75" type="line"/>
      <point x="188" y="206" type="line"/>
      <point x="169" y="206" type="line"/>
    </contour>
  </outline>
</glyph>
<glyph name="history" format="2">
  <advance width="300"/>
  <unicode hex="EA82"/>
  <note>
history
</note>
  <outline>
    <contour>
      <point x="233" y="43"/>
      <point x="171" y="16"/>
      <point x="105" y="22"/>
      <point x="49" y="60"/>
      <point x="34" y="89" type="qcurve"/>
      <point x="50" y="98" type="line"/>
      <point x="68" y="64"/>
      <point x="138" y="31"/>
      <point x="213" y="49"/>
      <point x="262" y="109"/>
      <point x="264" y="186"/>
      <point x="218" y="248"/>
      <point x="144" y="269"/>
      <point x="72" y="240"/>
      <point x="53" y="206" type="qcurve"/>
      <point x="94" y="206" type="line"/>
      <point x="94" y="188" type="line"/>
      <point x="28" y="188" type="line"/>
      <point x="19" y="197" type="line"/>
      <point x="19" y="263" type="line"/>
      <point x="38" y="263" type="line"/>
      <point x="38" y="218" type="line"/>
      <point x="54" y="246"/>
      <point x="110" y="279"/>
      <point x="175" y="283"/>
      <point x="235" y="255"/>
      <point x="254" y="229" type="qcurve" smooth="yes"/>
      <point x="272" y="206"/>
      <point x="284" y="149"/>
      <point x="271" y="92"/>
      <point x="253" y="69" type="qcurve" smooth="yes"/>
    </contour>
    <contour>
      <point x="134" y="143" type="line"/>
      <point x="131" y="150" type="line"/>
      <point x="131" y="225" type="line"/>
      <point x="150" y="225" type="line"/>
      <point x="150" y="154" type="line"/>
      <point x="204" y="100" type="line"/>
      <point x="190" y="87" type="line"/>
    </contour>
  </outline>
</glyph>
<glyph name="folder" format="2">
  <advance width="300"/>
  <unicode hex="EA83"/>
  <note>
folder
</note>
  <outline>
    <contour>
      <point x="281" y="234" type="line"/>
      <point x="281" y="47" type="line"/>
      <point x="272" y="38" type="line"/>
      <point x="28" y="38" type="line"/>
      <point x="19" y="47" type="line"/>
      <point x="19" y="253" type="line"/>
      <point x="28" y="263" type="line"/>
      <point x="122" y="263" type="line"/>
      <point x="129" y="260" type="line"/>
      <point x="145" y="244" type="line"/>
      <point x="272" y="244" type="line"/>
    </contour>
    <contour>
      <point x="263" y="188" type="line"/>
      <point x="144" y="188" type="line"/>
      <point x="128" y="172" type="line"/>
      <point x="122" y="169" type="line"/>
      <point x="37" y="169" type="line"/>
      <point x="37" y="56" type="line"/>
      <point x="262" y="56" type="line"/>
      <point x="262" y="85" type="line"/>
    </contour>
    <contour>
      <point x="263" y="225" type="line"/>
      <point x="141" y="225" type="line"/>
      <point x="134" y="228" type="line"/>
      <point x="118" y="244" type="line"/>
      <point x="38" y="244" type="line"/>
      <point x="38" y="187" type="line"/>
      <point x="118" y="187" type="line"/>
      <point x="134" y="203" type="line"/>
      <point x="140" y="206" type="line"/>
      <point x="262" y="206" type="line"/>
    </contour>
  </outline>
</glyph>
<glyph name="github" format="2">
  <advance width="300"/>
  <unicode hex="EA84"/>
  <note>
github
</note>
  <outline>
    <contour>
      <point x="191" y="300"/>
      <point x="260" y="260"/>
      <point x="300" y="191"/>
      <point x="300" y="109"/>
      <point x="260" y="40"/>
      <point x="191" y="0"/>
      <point x="109" y="0"/>
      <point x="40" y="40"/>
      <point x="0" y="109"/>
      <point x="0" y="191"/>
      <point x="40" y="260"/>
      <point x="109" y="300"/>
      <point x="150" y="300" type="qcurve" smooth="yes"/>
    </contour>
    <contour>
      <point x="190" y="28" type="line"/>
      <point x="219" y="37"/>
      <point x="263" y="81"/>
      <point x="282" y="139"/>
      <point x="272" y="201"/>
      <point x="236" y="251"/>
      <point x="181" y="279"/>
      <point x="119" y="279"/>
      <point x="64" y="251"/>
      <point x="28" y="201"/>
      <point x="18" y="139"/>
      <point x="37" y="81"/>
      <point x="81" y="37"/>
      <point x="110" y="28" type="qcurve"/>
      <point x="111" y="28" type="line" smooth="yes"/>
      <point x="114" y="28"/>
      <point x="118" y="31"/>
      <point x="118" y="34" type="qcurve" smooth="yes"/>
      <point x="118" y="56" type="line"/>
      <point x="111" y="55" type="line"/>
      <point x="105" y="55" type="line" smooth="yes"/>
      <point x="95" y="54"/>
      <point x="78" y="64"/>
      <point x="75" y="73" type="qcurve"/>
      <point x="69" y="84" type="line"/>
      <point x="67" y="86"/>
      <point x="65" y="88" type="qcurve" smooth="yes"/>
      <point x="57" y="94" type="line" smooth="yes"/>
      <point x="55" y="96"/>
      <point x="55" y="98"/>
      <point x="56" y="99" type="qcurve"/>
      <point x="61" y="100" type="line" smooth="yes"/>
      <point x="64" y="100"/>
      <point x="70" y="97"/>
      <point x="73" y="96" type="qcurve"/>
      <point x="77" y="91" type="line"/>
      <point x="81" y="87" type="line"/>
      <point x="85" y="80"/>
      <point x="96" y="72"/>
      <point x="111" y="73"/>
      <point x="118" y="76" type="qcurve"/>
      <point x="119" y="81"/>
      <point x="123" y="90"/>
      <point x="126" y="93" type="qcurve"/>
      <point x="113" y="94"/>
      <point x="91" y="103"/>
      <point x="75" y="119"/>
      <point x="72" y="130" type="qcurve" smooth="yes"/>
      <point x="68" y="143"/>
      <point x="68" y="157" type="qcurve" smooth="yes"/>
      <point x="68" y="166"/>
      <point x="75" y="184"/>
      <point x="81" y="191" type="qcurve"/>
      <point x="80" y="195"/>
      <point x="79" y="202"/>
      <point x="79" y="211"/>
      <point x="81" y="220"/>
      <point x="82" y="225" type="qcurve"/>
      <point x="85" y="225" type="line" smooth="yes"/>
      <point x="89" y="225"/>
      <point x="98" y="223"/>
      <point x="102" y="221" type="qcurve" smooth="yes"/>
      <point x="111" y="216" type="line"/>
      <point x="118" y="212" type="line"/>
      <point x="150" y="221"/>
      <point x="182" y="212" type="qcurve"/>
      <point x="189" y="216" type="line"/>
      <point x="198" y="221" type="line" smooth="yes"/>
      <point x="202" y="223"/>
      <point x="210" y="225"/>
      <point x="215" y="225" type="qcurve" smooth="yes"/>
      <point x="217" y="225" type="line"/>
      <point x="219" y="220"/>
      <point x="221" y="211"/>
      <point x="221" y="202"/>
      <point x="220" y="195"/>
      <point x="219" y="191" type="qcurve"/>
      <point x="225" y="184"/>
      <point x="232" y="166"/>
      <point x="232" y="157" type="qcurve" smooth="yes"/>
      <point x="232" y="143"/>
      <point x="228" y="130" type="qcurve" smooth="yes"/>
      <point x="225" y="119"/>
      <point x="209" y="103"/>
      <point x="186" y="94"/>
      <point x="173" y="93" type="qcurve"/>
      <point x="178" y="89"/>
      <point x="182" y="76"/>
      <point x="182" y="69" type="qcurve" smooth="yes"/>
      <point x="182" y="34" type="line" smooth="yes"/>
      <point x="182" y="31"/>
      <point x="186" y="28"/>
      <point x="188" y="28" type="qcurve" smooth="yes"/>
      <point x="190" y="28" type="line"/>
    </contour>
  </outline>
</glyph>
<glyph name="terminal" format="2">
  <advance width="300"/>
  <unicode hex="EA85"/>
  <note>
terminal
</note>
  <outline>
    <contour>
      <point x="263" y="281" type="line"/>
      <point x="281" y="263" type="line"/>
      <point x="281" y="38" type="line"/>
      <point x="263" y="19" type="line"/>
      <point x="38" y="19" type="line"/>
      <point x="19" y="38" type="line"/>
      <point x="19" y="263" type="line"/>
      <point x="38" y="281" type="line"/>
    </contour>
    <contour>
      <point x="263" y="38" type="line"/>
      <point x="263" y="263" type="line"/>
      <point x="38" y="263" type="line"/>
      <point x="38" y="38" type="line"/>
    </contour>
    <contour>
      <point x="166" y="145" type="line"/>
      <point x="108" y="204" type="line"/>
      <point x="121" y="217" type="line"/>
      <point x="187" y="151" type="line"/>
      <point x="187" y="140" type="line"/>
      <point x="121" y="74" type="line"/>
      <point x="108" y="88" type="line"/>
    </contour>
  </outline>
</glyph>
<glyph name="symbol-event" format="2">
  <advance width="300"/>
  <unicode hex="EA86"/>
  <note>
symbol-event
</note>
  <outline>
    <contour>
      <point x="75" y="140" type="line"/>
      <point x="92" y="113" type="line"/>
      <point x="115" y="113" type="line"/>
      <point x="75" y="41" type="line"/>
      <point x="105" y="19" type="line"/>
      <point x="239" y="156" type="line"/>
      <point x="225" y="188" type="line"/>
      <point x="192" y="188" type="line"/>
      <point x="233" y="252" type="line"/>
      <point x="218" y="281" type="line"/>
      <point x="156" y="281" type="line"/>
      <point x="139" y="271" type="line"/>
    </contour>
    <contour>
      <point x="92" y="131" type="line"/>
      <point x="156" y="263" type="line"/>
      <point x="218" y="263" type="line"/>
      <point x="156" y="169" type="line"/>
      <point x="225" y="169" type="line"/>
      <point x="92" y="32" type="line"/>
      <point x="146" y="131" type="line"/>
    </contour>
  </outline>
</glyph>
<glyph name="symbol-variable" format="2">
  <advance width="300"/>
  <unicode hex="EA88"/>
  <note>
symbol-variable
</note>
  <outline>
    <contour>
      <point x="38" y="75" type="line"/>
      <point x="75" y="75" type="line"/>
      <point x="75" y="56" type="line"/>
      <point x="28" y="56" type="line"/>
      <point x="19" y="66" type="line"/>
      <point x="19" y="216" type="line"/>
      <point x="28" y="225" type="line"/>
      <point x="75" y="225" type="line"/>
      <point x="75" y="206" type="line"/>
      <point x="38" y="206" type="line"/>
    </contour>
    <contour>
      <point x="281" y="216" type="line"/>
      <point x="281" y="66" type="line"/>
      <point x="272" y="56" type="line"/>
      <point x="225" y="56" type="line"/>
      <point x="225" y="75" type="line"/>
      <point x="263" y="75" type="line"/>
      <point x="263" y="206" type="line"/>
      <point x="225" y="206" type="line"/>
      <point x="225" y="225" type="line"/>
      <point x="272" y="225" type="line"/>
    </contour>
    <contour>
      <point x="174" y="205" type="line"/>
      <point x="165" y="205" type="line"/>
      <point x="81" y="167" type="line"/>
      <point x="75" y="159" type="line"/>
      <point x="75" y="112" type="line"/>
      <point x="80" y="104" type="line"/>
      <point x="126" y="76" type="line"/>
      <point x="135" y="76" type="line"/>
      <point x="219" y="113" type="line"/>
      <point x="225" y="122" type="line"/>
      <point x="225" y="169" type="line"/>
      <point x="221" y="177" type="line"/>
    </contour>
    <contour>
      <point x="94" y="143" type="line"/>
      <point x="122" y="126" type="line"/>
      <point x="122" y="101" type="line"/>
      <point x="94" y="118" type="line"/>
    </contour>
    <contour>
      <point x="168" y="186" type="line"/>
      <point x="195" y="170" type="line"/>
      <point x="132" y="142" type="line"/>
      <point x="105" y="158" type="line"/>
    </contour>
    <contour>
      <point x="141" y="125" type="line"/>
      <point x="207" y="154" type="line"/>
      <point x="207" y="128" type="line"/>
      <point x="141" y="99" type="line"/>
    </contour>
  </outline>
</glyph>
<glyph name="symbol-array" format="2">
  <advance width="300"/>
  <unicode hex="EA8A"/>
  <note>
symbol-array
</note>
  <outline>
    <contour>
      <point x="75" y="263" type="line"/>
      <point x="75" y="244" type="line"/>
      <point x="38" y="244" type="line"/>
      <point x="38" y="56" type="line"/>
      <point x="75" y="56" type="line"/>
      <point x="75" y="38" type="line"/>
      <point x="28" y="38" type="line"/>
      <point x="19" y="47" type="line"/>
      <point x="19" y="253" type="line"/>
      <point x="28" y="263" type="line"/>
    </contour>
    <contour>
      <point x="225" y="38" type="line"/>
      <point x="225" y="56" type="line"/>
      <point x="263" y="56" type="line"/>
      <point x="263" y="244" type="line"/>
      <point x="225" y="244" type="line"/>
      <point x="225" y="263" type="line"/>
      <point x="272" y="263" type="line"/>
      <point x="281" y="253" type="line"/>
      <point x="281" y="47" type="line"/>
      <point x="272" y="38" type="line"/>
    </contour>
  </outline>
</glyph>
<glyph name="symbol-method" format="2">
  <advance width="300"/>
  <unicode hex="EA8C"/>
  <note>
symbol-method
</note>
  <outline>
    <contour>
      <point x="263" y="209" type="line"/>
      <point x="263" y="96" type="line"/>
      <point x="253" y="80" type="line"/>
      <point x="160" y="24" type="line"/>
      <point x="141" y="24" type="line"/>
      <point x="47" y="80" type="line"/>
      <point x="38" y="96" type="line"/>
      <point x="38" y="209" type="line"/>
      <point x="47" y="225" type="line"/>
      <point x="141" y="281" type="line"/>
      <point x="160" y="281" type="line"/>
      <point x="253" y="225" type="line"/>
    </contour>
    <contour>
      <point x="141" y="147" type="line"/>
      <point x="56" y="193" type="line"/>
      <point x="56" y="96" type="line"/>
      <point x="141" y="46" type="line"/>
    </contour>
    <contour>
      <point x="150" y="163" type="line"/>
      <point x="239" y="212" type="line"/>
      <point x="150" y="265" type="line"/>
      <point x="61" y="212" type="line"/>
    </contour>
    <contour>
      <point x="244" y="193" type="line"/>
      <point x="160" y="147" type="line"/>
      <point x="160" y="46" type="line"/>
      <point x="244" y="96" type="line"/>
    </contour>
  </outline>
</glyph>
<glyph name="symbol-boolean" format="2">
  <advance width="300"/>
  <unicode hex="EA8F"/>
  <note>
symbol-boolean
</note>
  <outline>
    <contour>
      <point x="19" y="66" type="line"/>
      <point x="28" y="56" type="line"/>
      <point x="272" y="56" type="line"/>
      <point x="281" y="66" type="line"/>
      <point x="281" y="234" type="line"/>
      <point x="272" y="244" type="line"/>
      <point x="28" y="244" type="line"/>
      <point x="19" y="234" type="line"/>
    </contour>
    <contour>
      <point x="263" y="75" type="line"/>
      <point x="150" y="75" type="line"/>
      <point x="150" y="140" type="line"/>
      <point x="223" y="140" type="line"/>
      <point x="184" y="101" type="line"/>
      <point x="197" y="88" type="line"/>
      <point x="252" y="143" type="line"/>
      <point x="252" y="157" type="line"/>
      <point x="197" y="212" type="line"/>
      <point x="184" y="199" type="line"/>
      <point x="223" y="159" type="line"/>
      <point x="150" y="159" type="line"/>
      <point x="150" y="141" type="line"/>
      <point x="73" y="141" type="line"/>
      <point x="113" y="101" type="line"/>
      <point x="100" y="88" type="line"/>
      <point x="44" y="143" type="line"/>
      <point x="44" y="157" type="line"/>
      <point x="100" y="212" type="line"/>
      <point x="113" y="199" type="line"/>
      <point x="74" y="160" type="line"/>
      <point x="150" y="160" type="line"/>
      <point x="150" y="225" type="line"/>
      <point x="263" y="225" type="line"/>
    </contour>
  </outline>
</glyph>
<glyph name="symbol-numeric" format="2">
  <advance width="300"/>
  <unicode hex="EA90"/>
  <note>
symbol-numeric
</note>
  <outline>
    <contour>
      <point x="188" y="281" type="line"/>
      <point x="188" y="206" type="line"/>
      <point x="113" y="206" type="line"/>
      <point x="113" y="281" type="line"/>
      <point x="94" y="281" type="line"/>
      <point x="94" y="206" type="line"/>
      <point x="19" y="206" type="line"/>
      <point x="19" y="188" type="line"/>
      <point x="94" y="188" type="line"/>
      <point x="94" y="113" type="line"/>
      <point x="19" y="113" type="line"/>
      <point x="19" y="94" type="line"/>
      <point x="94" y="94" type="line"/>
      <point x="94" y="19" type="line"/>
      <point x="113" y="19" type="line"/>
      <point x="113" y="94" type="line"/>
      <point x="188" y="94" type="line"/>
      <point x="188" y="19" type="line"/>
      <point x="206" y="19" type="line"/>
      <point x="206" y="94" type="line"/>
      <point x="281" y="94" type="line"/>
      <point x="281" y="113" type="line"/>
      <point x="206" y="113" type="line"/>
      <point x="206" y="188" type="line"/>
      <point x="281" y="188" type="line"/>
      <point x="281" y="206" type="line"/>
      <point x="206" y="206" type="line"/>
      <point x="206" y="281" type="line"/>
    </contour>
    <contour>
      <point x="188" y="188" type="line"/>
      <point x="188" y="113" type="line"/>
      <point x="113" y="113" type="line"/>
      <point x="113" y="188" type="line"/>
    </contour>
  </outline>
</glyph>
<glyph name="symbol-structure" format="2">
  <advance width="300"/>
  <unicode hex="EA91"/>
  <note>
symbol-structure
</note>
  <outline>
    <contour>
      <point x="263" y="263" type="line"/>
      <point x="281" y="244" type="line"/>
      <point x="281" y="188" type="line"/>
      <point x="263" y="169" type="line"/>
      <point x="38" y="169" type="line"/>
      <point x="19" y="188" type="line"/>
      <point x="19" y="244" type="line"/>
      <point x="38" y="263" type="line"/>
    </contour>
    <contour>
      <point x="38" y="188" type="line"/>
      <point x="263" y="188" type="line"/>
      <point x="263" y="244" type="line"/>
      <point x="38" y="244" type="line"/>
    </contour>
    <contour>
      <point x="19" y="56" type="line"/>
      <point x="38" y="38" type="line"/>
      <point x="94" y="38" type="line"/>
      <point x="113" y="56" type="line"/>
      <point x="113" y="113" type="line"/>
      <point x="94" y="131" type="line"/>
      <point x="38" y="131" type="line"/>
      <point x="19" y="113" type="line"/>
    </contour>
    <contour>
      <point x="94" y="113" type="line"/>
      <point x="94" y="56" type="line"/>
      <point x="38" y="56" type="line"/>
      <point x="38" y="113" type="line"/>
      <point x="56" y="113" type="line"/>
    </contour>
    <contour>
      <point x="188" y="56" type="line"/>
      <point x="206" y="38" type="line"/>
      <point x="263" y="38" type="line"/>
      <point x="281" y="56" type="line"/>
      <point x="281" y="113" type="line"/>
      <point x="263" y="131" type="line"/>
      <point x="206" y="131" type="line"/>
      <point x="188" y="113" type="line"/>
    </contour>
    <contour>
      <point x="263" y="113" type="line"/>
      <point x="263" y="56" type="line"/>
      <point x="206" y="56" type="line"/>
      <point x="206" y="113" type="line"/>
      <point x="225" y="113" type="line"/>
    </contour>
  </outline>
</glyph>
<glyph name="symbol-parameter" format="2">
  <advance width="300"/>
  <unicode hex="EA92"/>
  <note>
symbol-parameter
</note>
  <outline>
    <contour>
      <point x="206" y="225" type="line"/>
      <point x="94" y="225" type="line"/>
      <point x="94" y="188" type="line"/>
      <point x="112" y="188" type="line"/>
      <point x="112" y="197" type="line"/>
      <point x="113" y="201"/>
      <point x="118" y="206"/>
      <point x="122" y="206" type="qcurve" smooth="yes"/>
      <point x="140" y="206" type="line"/>
      <point x="140" y="103" type="line" smooth="yes"/>
      <point x="140" y="99"/>
      <point x="135" y="94"/>
      <point x="131" y="94" type="qcurve" smooth="yes"/>
      <point x="121" y="94" type="line"/>
      <point x="121" y="75" type="line"/>
      <point x="178" y="75" type="line"/>
      <point x="178" y="94" type="line"/>
      <point x="168" y="94" type="line" smooth="yes"/>
      <point x="164" y="94"/>
      <point x="159" y="99"/>
      <point x="159" y="103" type="qcurve" smooth="yes"/>
      <point x="159" y="206" type="line"/>
      <point x="178" y="206" type="line" smooth="yes"/>
      <point x="182" y="206"/>
      <point x="188" y="201"/>
      <point x="188" y="197" type="qcurve" smooth="yes"/>
      <point x="188" y="188" type="line"/>
      <point x="206" y="188" type="line"/>
    </contour>
    <contour>
      <point x="234" y="123" type="line"/>
      <point x="248" y="109" type="line"/>
      <point x="281" y="142" type="line"/>
      <point x="281" y="156" type="line"/>
      <point x="247" y="190" type="line"/>
      <point x="233" y="177" type="line"/>
      <point x="261" y="149" type="line"/>
    </contour>
    <contour>
      <point x="53" y="109" type="line"/>
      <point x="19" y="143" type="line"/>
      <point x="19" y="157" type="line"/>
      <point x="52" y="190" type="line"/>
      <point x="66" y="177" type="line"/>
      <point x="39" y="150" type="line"/>
      <point x="67" y="123" type="line"/>
    </contour>
  </outline>
</glyph>
<glyph name="symbol-key" format="2">
  <advance width="300"/>
  <unicode hex="EA93"/>
  <note>
symbol-key
</note>
  <outline>
    <contour>
      <point x="131" y="98" type="line"/>
      <point x="131" y="92" type="line"/>
      <point x="112" y="92" type="line"/>
      <point x="112" y="235" type="line"/>
      <point x="131" y="235" type="line"/>
      <point x="131" y="183" type="line"/>
      <point x="143" y="194"/>
      <point x="159" y="194" type="qcurve" smooth="yes"/>
      <point x="168" y="194"/>
      <point x="184" y="187"/>
      <point x="190" y="180" type="qcurve" smooth="yes"/>
      <point x="202" y="165"/>
      <point x="201" y="145" type="qcurve" smooth="yes"/>
      <point x="202" y="123"/>
      <point x="189" y="106" type="qcurve" smooth="yes"/>
      <point x="183" y="98"/>
      <point x="165" y="90"/>
      <point x="145" y="89"/>
      <point x="135" y="95" type="qcurve" smooth="yes"/>
    </contour>
    <contour>
      <point x="142" y="172"/>
      <point x="138" y="168" type="qcurve" smooth="yes"/>
      <point x="130" y="158"/>
      <point x="131" y="146" type="qcurve" smooth="yes"/>
      <point x="131" y="135" type="line" smooth="yes"/>
      <point x="130" y="124"/>
      <point x="145" y="107"/>
      <point x="156" y="108" type="qcurve"/>
      <point x="162" y="107"/>
      <point x="171" y="113"/>
      <point x="174" y="117" type="qcurve" smooth="yes"/>
      <point x="183" y="130"/>
      <point x="182" y="145" type="qcurve" smooth="yes"/>
      <point x="182" y="158"/>
      <point x="175" y="168" type="qcurve" smooth="yes"/>
      <point x="169" y="177"/>
      <point x="158" y="176" type="qcurve"/>
      <point x="152" y="177"/>
      <point x="147" y="174" type="qcurve" smooth="yes"/>
    </contour>
    <contour>
      <point x="77" y="194"/>
      <point x="96" y="171"/>
      <point x="95" y="155" type="qcurve" smooth="yes"/>
      <point x="95" y="92" type="line"/>
      <point x="78" y="92" type="line"/>
      <point x="78" y="101" type="line"/>
      <point x="72" y="96" type="line" smooth="yes"/>
      <point x="63" y="90"/>
      <point x="52" y="90" type="qcurve" smooth="yes"/>
      <point x="38" y="90"/>
      <point x="19" y="108"/>
      <point x="19" y="134"/>
      <point x="40" y="152"/>
      <point x="54" y="153" type="qcurve" smooth="yes"/>
      <point x="77" y="157" type="line"/>
      <point x="77" y="165"/>
      <point x="68" y="177"/>
      <point x="61" y="177" type="qcurve" smooth="yes"/>
      <point x="46" y="176"/>
      <point x="35" y="166" type="qcurve" smooth="yes"/>
      <point x="27" y="159" type="line"/>
      <point x="27" y="182" type="line"/>
      <point x="29" y="183" type="line" smooth="yes"/>
      <point x="36" y="188"/>
      <point x="53" y="193"/>
      <point x="62" y="194" type="qcurve" smooth="yes"/>
    </contour>
    <contour>
      <point x="78" y="140" type="line"/>
      <point x="59" y="137" type="line" smooth="yes"/>
      <point x="49" y="136"/>
      <point x="41" y="131" type="qcurve"/>
      <point x="37" y="127"/>
      <point x="37" y="115"/>
      <point x="46" y="107"/>
      <point x="52" y="107" type="qcurve" smooth="yes"/>
      <point x="63" y="107"/>
      <point x="78" y="124"/>
      <point x="78" y="137" type="qcurve" smooth="yes"/>
    </contour>
    <contour>
      <point x="225" y="97"/>
      <point x="219" y="104" type="qcurve" smooth="yes"/>
      <point x="205" y="120"/>
      <point x="205" y="162"/>
      <point x="220" y="179" type="qcurve" smooth="yes"/>
      <point x="227" y="186"/>
      <point x="246" y="194"/>
      <point x="268" y="194"/>
      <point x="278" y="189" type="qcurve" smooth="yes"/>
      <point x="281" y="188" type="line"/>
      <point x="281" y="166" type="line"/>
      <point x="273" y="171" type="line" smooth="yes"/>
      <point x="265" y="176"/>
      <point x="255" y="176" type="qcurve" smooth="yes"/>
      <point x="242" y="177"/>
      <point x="224" y="155"/>
      <point x="224" y="127"/>
      <point x="240" y="107"/>
      <point x="263" y="107"/>
      <point x="272" y="114" type="qcurve" smooth="yes"/>
      <point x="281" y="120" type="line"/>
      <point x="281" y="98" type="line"/>
      <point x="278" y="97" type="line"/>
      <point x="266" y="89"/>
      <point x="252" y="90" type="qcurve"/>
      <point x="242" y="89"/>
      <point x="234" y="93" type="qcurve" smooth="yes"/>
    </contour>
  </outline>
</glyph>
<glyph name="go-to-file" format="2">
  <advance width="300"/>
  <unicode hex="EA94"/>
  <note>
go-to-file
</note>
  <outline>
    <contour>
      <point x="111" y="188" type="line"/>
      <point x="98" y="201" type="line"/>
      <point x="122" y="225" type="line"/>
      <point x="66" y="225" type="line" smooth="yes"/>
      <point x="54" y="225"/>
      <point x="37" y="209"/>
      <point x="38" y="185"/>
      <point x="54" y="169"/>
      <point x="66" y="169" type="qcurve" smooth="yes"/>
      <point x="75" y="169" type="line"/>
      <point x="75" y="150" type="line"/>
      <point x="66" y="150" type="line" smooth="yes"/>
      <point x="46" y="150"/>
      <point x="19" y="177"/>
      <point x="19" y="216"/>
      <point x="46" y="244"/>
      <point x="66" y="244" type="qcurve" smooth="yes"/>
      <point x="122" y="244" type="line"/>
      <point x="98" y="268" type="line"/>
      <point x="111" y="281" type="line"/>
      <point x="151" y="241" type="line"/>
      <point x="151" y="228" type="line"/>
      <point x="113" y="189" type="line"/>
    </contour>
    <contour>
      <point x="206" y="188" type="line"/>
      <point x="281" y="188" type="line"/>
      <point x="281" y="38" type="line"/>
      <point x="113" y="38" type="line"/>
      <point x="113" y="162" type="line"/>
      <point x="94" y="178" type="line"/>
      <point x="94" y="38" type="line"/>
      <point x="113" y="19" type="line"/>
      <point x="281" y="19" type="line"/>
      <point x="300" y="38" type="line"/>
      <point x="300" y="206" type="line"/>
      <point x="295" y="220" type="line"/>
      <point x="238" y="276" type="line"/>
      <point x="225" y="281" type="line"/>
      <point x="137" y="281" type="line"/>
      <point x="156" y="263" type="line"/>
      <point x="206" y="263" type="line"/>
    </contour>
    <contour>
      <point x="281" y="206" type="line"/>
      <point x="225" y="206" type="line"/>
      <point x="225" y="263" type="line"/>
    </contour>
  </outline>
</glyph>
<glyph name="symbol-enum" format="2">
  <advance width="300"/>
  <unicode hex="EA95"/>
  <note>
symbol-enum
</note>
  <outline>
    <contour>
      <point x="281" y="244" type="line"/>
      <point x="281" y="150" type="line"/>
      <point x="263" y="131" type="line"/>
      <point x="188" y="131" type="line"/>
      <point x="188" y="150" type="line"/>
      <point x="263" y="150" type="line"/>
      <point x="263" y="244" type="line"/>
      <point x="150" y="244" type="line"/>
      <point x="150" y="188" type="line"/>
      <point x="131" y="188" type="line"/>
      <point x="131" y="244" type="line"/>
      <point x="150" y="263" type="line"/>
      <point x="263" y="263" type="line"/>
    </contour>
    <contour>
      <point x="169" y="176" type="line"/>
      <point x="176" y="169" type="line"/>
      <point x="244" y="169" type="line"/>
      <point x="244" y="188" type="line"/>
      <point x="169" y="188" type="line"/>
    </contour>
    <contour>
      <point x="150" y="169" type="line"/>
      <point x="169" y="150" type="line"/>
      <point x="169" y="56" type="line"/>
      <point x="150" y="38" type="line"/>
      <point x="38" y="38" type="line"/>
      <point x="19" y="56" type="line"/>
      <point x="19" y="150" type="line"/>
      <point x="38" y="169" type="line"/>
      <point x="131" y="169" type="line"/>
    </contour>
    <contour>
      <point x="150" y="150" type="line"/>
      <point x="38" y="150" type="line"/>
      <point x="38" y="56" type="line"/>
      <point x="150" y="56" type="line"/>
    </contour>
    <contour>
      <point x="56" y="113" type="line"/>
      <point x="131" y="113" type="line"/>
      <point x="131" y="131" type="line"/>
      <point x="56" y="131" type="line"/>
    </contour>
    <contour>
      <point x="56" y="75" type="line"/>
      <point x="131" y="75" type="line"/>
      <point x="131" y="94" type="line"/>
      <point x="56" y="94" type="line"/>
    </contour>
    <contour>
      <point x="169" y="206" type="line"/>
      <point x="244" y="206" type="line"/>
      <point x="244" y="225" type="line"/>
      <point x="169" y="225" type="line"/>
    </contour>
  </outline>
</glyph>
<glyph name="symbol-ruler" format="2">
  <advance width="300"/>
  <unicode hex="EA96"/>
  <note>
symbol-ruler
</note>
  <outline>
    <contour>
      <point x="225" y="281" type="line"/>
      <point x="244" y="263" type="line"/>
      <point x="244" y="38" type="line"/>
      <point x="225" y="19" type="line"/>
      <point x="75" y="19" type="line"/>
      <point x="56" y="38" type="line"/>
      <point x="56" y="263" type="line"/>
      <point x="75" y="281" type="line"/>
    </contour>
    <contour>
      <point x="150" y="244" type="line"/>
      <point x="150" y="225" type="line"/>
      <point x="75" y="225" type="line"/>
      <point x="75" y="188" type="line"/>
      <point x="113" y="188" type="line"/>
      <point x="113" y="169" type="line"/>
      <point x="75" y="169" type="line"/>
      <point x="75" y="131" type="line"/>
      <point x="150" y="131" type="line"/>
      <point x="150" y="113" type="line"/>
      <point x="75" y="113" type="line"/>
      <point x="75" y="75" type="line"/>
      <point x="113" y="75" type="line"/>
      <point x="113" y="56" type="line"/>
      <point x="75" y="56" type="line"/>
      <point x="75" y="38" type="line"/>
      <point x="225" y="38" type="line"/>
      <point x="225" y="263" type="line"/>
      <point x="75" y="263" type="line"/>
      <point x="75" y="244" type="line"/>
    </contour>
  </outline>
</glyph>
<glyph name="activate-breakpoints" format="2">
  <advance width="300"/>
  <unicode hex="EA97"/>
  <note>
activate-breakpoints
</note>
  <outline>
    <contour>
      <point x="281" y="214"/>
      <point x="269" y="245"/>
      <point x="245" y="269"/>
      <point x="214" y="281"/>
      <point x="197" y="281" type="qcurve" smooth="yes"/>
      <point x="176" y="281"/>
      <point x="139" y="261"/>
      <point x="115" y="227"/>
      <point x="112" y="206" type="qcurve"/>
      <point x="122" y="206"/>
      <point x="131" y="203" type="qcurve"/>
      <point x="133" y="220"/>
      <point x="152" y="248"/>
      <point x="182" y="263"/>
      <point x="217" y="262"/>
      <point x="246" y="244"/>
      <point x="262" y="214"/>
      <point x="263" y="197" type="qcurve" smooth="yes"/>
      <point x="262" y="171"/>
      <point x="228" y="134"/>
      <point x="203" y="131" type="qcurve"/>
      <point x="206" y="122"/>
      <point x="206" y="112" type="qcurve"/>
      <point x="228" y="114"/>
      <point x="262" y="138"/>
      <point x="282" y="175"/>
      <point x="281" y="197" type="qcurve" smooth="yes"/>
    </contour>
    <contour>
      <point x="103" y="187" type="line"/>
      <point x="126" y="187"/>
      <point x="165" y="165"/>
      <point x="188" y="126"/>
      <point x="188" y="80"/>
      <point x="165" y="41"/>
      <point x="126" y="19"/>
      <point x="80" y="19"/>
      <point x="41" y="41"/>
      <point x="19" y="80"/>
      <point x="19" y="126"/>
      <point x="41" y="165"/>
      <point x="80" y="188"/>
      <point x="103" y="188" type="qcurve"/>
    </contour>
  </outline>
</glyph>
<glyph name="archive" format="2">
  <advance width="300"/>
  <unicode hex="EA98"/>
  <note>
archive
</note>
  <outline>
    <contour>
      <point x="281" y="272" type="line"/>
      <point x="281" y="216" type="line"/>
      <point x="272" y="206" type="line"/>
      <point x="263" y="206" type="line"/>
      <point x="263" y="47" type="line"/>
      <point x="253" y="38" type="line"/>
      <point x="47" y="38" type="line"/>
      <point x="38" y="47" type="line"/>
      <point x="38" y="206" type="line"/>
      <point x="28" y="206" type="line"/>
      <point x="19" y="216" type="line"/>
      <point x="19" y="272" type="line"/>
      <point x="28" y="281" type="line"/>
      <point x="272" y="281" type="line"/>
    </contour>
    <contour>
      <point x="263" y="225" type="line"/>
      <point x="263" y="263" type="line"/>
      <point x="38" y="263" type="line"/>
      <point x="38" y="225" type="line"/>
      <point x="253" y="225" type="line"/>
    </contour>
    <contour>
      <point x="244" y="56" type="line"/>
      <point x="244" y="206" type="line"/>
      <point x="56" y="206" type="line"/>
      <point x="56" y="56" type="line"/>
    </contour>
    <contour>
      <point x="206" y="150" type="line"/>
      <point x="94" y="150" type="line"/>
      <point x="94" y="169" type="line"/>
      <point x="206" y="169" type="line"/>
    </contour>
  </outline>
</glyph>
<glyph name="arrow-both" format="2">
  <advance width="300"/>
  <unicode hex="EA99"/>
  <note>
arrow-both
</note>
  <outline>
    <contour>
      <point x="244" y="131" type="line"/>
      <point x="204" y="91" type="line"/>
      <point x="217" y="78" type="line"/>
      <point x="273" y="134" type="line"/>
      <point x="273" y="147" type="line"/>
      <point x="217" y="204" type="line"/>
      <point x="204" y="190" type="line"/>
      <point x="244" y="150" type="line"/>
      <point x="56" y="150" type="line"/>
      <point x="96" y="190" type="line"/>
      <point x="83" y="204" type="line"/>
      <point x="27" y="147" type="line"/>
      <point x="27" y="134" type="line"/>
      <point x="83" y="78" type="line"/>
      <point x="96" y="91" type="line"/>
      <point x="56" y="131" type="line"/>
    </contour>
  </outline>
</glyph>
<glyph name="arrow-down" format="2">
  <advance width="300"/>
  <unicode hex="EA9A"/>
  <note>
arrow-down
</note>
  <outline>
    <contour>
      <point x="72" y="145" type="line"/>
      <point x="150" y="67" type="line"/>
      <point x="150" y="263" type="line"/>
      <point x="169" y="263" type="line"/>
      <point x="169" y="67" type="line"/>
      <point x="247" y="145" type="line"/>
      <point x="260" y="131" type="line"/>
      <point x="166" y="38" type="line"/>
      <point x="153" y="38" type="line"/>
      <point x="59" y="131" type="line"/>
    </contour>
  </outline>
</glyph>
<glyph name="arrow-left" format="2">
  <advance width="300"/>
  <unicode hex="EA9B"/>
  <note>
arrow-left
</note>
  <outline>
    <contour>
      <point x="145" y="229" type="line"/>
      <point x="67" y="151" type="line"/>
      <point x="263" y="151" type="line"/>
      <point x="263" y="132" type="line"/>
      <point x="67" y="132" type="line"/>
      <point x="145" y="55" type="line"/>
      <point x="131" y="41" type="line"/>
      <point x="38" y="135" type="line"/>
      <point x="38" y="148" type="line"/>
      <point x="131" y="242" type="line"/>
    </contour>
  </outline>
</glyph>
<glyph name="arrow-right" format="2">
  <advance width="300"/>
  <unicode hex="EA9C"/>
  <note>
arrow-right
</note>
  <outline>
    <contour>
      <point x="155" y="53" type="line"/>
      <point x="233" y="131" type="line"/>
      <point x="38" y="131" type="line"/>
      <point x="38" y="149" type="line"/>
      <point x="233" y="149" type="line"/>
      <point x="155" y="227" type="line"/>
      <point x="169" y="240" type="line"/>
      <point x="263" y="147" type="line"/>
      <point x="263" y="133" type="line"/>
      <point x="169" y="40" type="line"/>
    </contour>
  </outline>
</glyph>
<glyph name="arrow-small-down" format="2">
  <advance width="300"/>
  <unicode hex="EA9D"/>
  <note>
arrow-small-down
</note>
  <outline>
    <contour>
      <point x="188" y="152" type="line"/>
      <point x="157" y="121" type="line"/>
      <point x="157" y="225" type="line"/>
      <point x="138" y="225" type="line"/>
      <point x="138" y="121" type="line"/>
      <point x="107" y="151" type="line"/>
      <point x="94" y="138" type="line"/>
      <point x="141" y="91" type="line"/>
      <point x="154" y="91" type="line"/>
      <point x="201" y="138" type="line"/>
    </contour>
  </outline>
</glyph>
<glyph name="arrow-small-left" format="2">
  <advance width="300"/>
  <unicode hex="EA9E"/>
  <note>
arrow-small-left
</note>
  <outline>
    <contour>
      <point x="135" y="113" type="line"/>
      <point x="104" y="143" type="line"/>
      <point x="209" y="143" type="line"/>
      <point x="209" y="162" type="line"/>
      <point x="104" y="162" type="line"/>
      <point x="135" y="193" type="line"/>
      <point x="122" y="206" type="line"/>
      <point x="75" y="159" type="line"/>
      <point x="75" y="146" type="line"/>
      <point x="122" y="99" type="line"/>
    </contour>
  </outline>
</glyph>
<glyph name="arrow-small-right" format="2">
  <advance width="300"/>
  <unicode hex="EA9F"/>
  <note>
arrow-small-right
</note>
  <outline>
    <contour>
      <point x="149" y="193" type="line"/>
      <point x="179" y="162" type="line"/>
      <point x="75" y="162" type="line"/>
      <point x="75" y="143" type="line"/>
      <point x="179" y="143" type="line"/>
      <point x="149" y="113" type="line"/>
      <point x="162" y="99" type="line"/>
      <point x="209" y="146" type="line"/>
      <point x="209" y="159" type="line"/>
      <point x="162" y="206" type="line"/>
    </contour>
  </outline>
</glyph>
<glyph name="arrow-small-up" format="2">
  <advance width="300"/>
  <unicode hex="EAA0"/>
  <note>
arrow-small-up
</note>
  <outline>
    <contour>
      <point x="107" y="165" type="line"/>
      <point x="138" y="196" type="line"/>
      <point x="138" y="91" type="line"/>
      <point x="157" y="91" type="line"/>
      <point x="157" y="196" type="line"/>
      <point x="188" y="165" type="line"/>
      <point x="201" y="178" type="line"/>
      <point x="154" y="225" type="line"/>
      <point x="141" y="225" type="line"/>
      <point x="94" y="178" type="line"/>
    </contour>
  </outline>
</glyph>
<glyph name="arrow-up" format="2">
  <advance width="300"/>
  <unicode hex="EAA1"/>
  <note>
arrow-up
</note>
  <outline>
    <contour>
      <point x="246" y="155" type="line"/>
      <point x="169" y="233" type="line"/>
      <point x="169" y="38" type="line"/>
      <point x="150" y="38" type="line"/>
      <point x="150" y="233" type="line"/>
      <point x="72" y="155" type="line"/>
      <point x="59" y="169" type="line"/>
      <point x="153" y="263" type="line"/>
      <point x="166" y="263" type="line"/>
      <point x="260" y="169" type="line"/>
    </contour>
  </outline>
</glyph>
<glyph name="bell" format="2">
  <advance width="300"/>
  <unicode hex="EAA2"/>
  <note>
bell
</note>
  <outline>
    <contour>
      <point x="262" y="69" type="line"/>
      <point x="253" y="56" type="line"/>
      <point x="187" y="56" type="line"/>
      <point x="187" y="41"/>
      <point x="165" y="19"/>
      <point x="134" y="19"/>
      <point x="112" y="41"/>
      <point x="112" y="56" type="qcurve"/>
      <point x="46" y="56" type="line"/>
      <point x="38" y="69" type="line"/>
      <point x="49" y="102" type="line" smooth="yes"/>
      <point x="56" y="123"/>
      <point x="56" y="146" type="qcurve" smooth="yes"/>
      <point x="56" y="187" type="line" smooth="yes"/>
      <point x="56" y="207"/>
      <point x="72" y="243"/>
      <point x="101" y="270"/>
      <point x="139" y="283"/>
      <point x="159" y="281" type="qcurve" smooth="yes"/>
      <point x="177" y="279"/>
      <point x="208" y="262"/>
      <point x="232" y="235"/>
      <point x="244" y="202"/>
      <point x="244" y="184" type="qcurve" smooth="yes"/>
      <point x="244" y="146" type="line" smooth="yes"/>
      <point x="244" y="123"/>
      <point x="251" y="102" type="qcurve" smooth="yes"/>
    </contour>
    <contour>
      <point x="169" y="48"/>
      <point x="168" y="56" type="qcurve"/>
      <point x="131" y="56" type="line"/>
      <point x="131" y="48"/>
      <point x="142" y="37"/>
      <point x="157" y="37"/>
      <point x="163" y="43" type="qcurve" smooth="yes"/>
    </contour>
    <contour>
      <point x="240" y="75" type="line"/>
      <point x="233" y="95" type="line" smooth="yes"/>
      <point x="225" y="120"/>
      <point x="225" y="146" type="qcurve" smooth="yes"/>
      <point x="225" y="184" type="line" smooth="yes"/>
      <point x="225" y="198"/>
      <point x="215" y="225"/>
      <point x="206" y="236" type="qcurve" smooth="yes"/>
      <point x="187" y="258"/>
      <point x="157" y="262" type="qcurve" smooth="yes"/>
      <point x="142" y="264"/>
      <point x="111" y="254"/>
      <point x="88" y="233"/>
      <point x="75" y="203"/>
      <point x="75" y="187" type="qcurve" smooth="yes"/>
      <point x="75" y="146" type="line" smooth="yes"/>
      <point x="75" y="120"/>
      <point x="66" y="96" type="qcurve" smooth="yes"/>
      <point x="59" y="75" type="line"/>
    </contour>
  </outline>
</glyph>
<glyph name="bold" format="2">
  <advance width="300"/>
  <unicode hex="EAA3"/>
  <note>
bold
</note>
  <outline>
    <contour>
      <point x="161" y="56" type="line" smooth="yes"/>
      <point x="191" y="56"/>
      <point x="225" y="85"/>
      <point x="225" y="110" type="qcurve" smooth="yes"/>
      <point x="225" y="127"/>
      <point x="207" y="151"/>
      <point x="191" y="155" type="qcurve"/>
      <point x="204" y="160"/>
      <point x="220" y="181"/>
      <point x="220" y="194" type="qcurve" smooth="yes"/>
      <point x="220" y="218"/>
      <point x="188" y="244"/>
      <point x="157" y="244" type="qcurve" smooth="yes"/>
      <point x="94" y="244" type="line"/>
      <point x="94" y="56" type="line"/>
    </contour>
    <contour>
      <point x="162" y="144" type="line" smooth="yes"/>
      <point x="199" y="144"/>
      <point x="199" y="110" type="qcurve" smooth="yes"/>
      <point x="199" y="94"/>
      <point x="179" y="76"/>
      <point x="161" y="76" type="qcurve" smooth="yes"/>
      <point x="119" y="76" type="line"/>
      <point x="119" y="144" type="line"/>
    </contour>
    <contour>
      <point x="119" y="223" type="line"/>
      <point x="157" y="223" type="line" smooth="yes"/>
      <point x="176" y="223"/>
      <point x="194" y="209"/>
      <point x="194" y="180"/>
      <point x="174" y="164"/>
      <point x="158" y="164" type="qcurve" smooth="yes"/>
      <point x="119" y="164" type="line"/>
    </contour>
  </outline>
</glyph>
<glyph name="book" format="2">
  <advance width="300"/>
  <unicode hex="EAA4"/>
  <note>
book
</note>
  <outline>
    <contour>
      <point x="281" y="253" type="line"/>
      <point x="281" y="66" type="line"/>
      <point x="272" y="56" type="line"/>
      <point x="173" y="56" type="line"/>
      <point x="157" y="40" type="line"/>
      <point x="143" y="40" type="line"/>
      <point x="127" y="56" type="line"/>
      <point x="28" y="56" type="line"/>
      <point x="19" y="66" type="line"/>
      <point x="19" y="253" type="line"/>
      <point x="28" y="263" type="line"/>
      <point x="131" y="263" type="line"/>
      <point x="138" y="260" type="line"/>
      <point x="150" y="248" type="line"/>
      <point x="162" y="260" type="line"/>
      <point x="169" y="263" type="line"/>
      <point x="272" y="263" type="line"/>
    </contour>
    <contour>
      <point x="141" y="230" type="line"/>
      <point x="127" y="244" type="line"/>
      <point x="38" y="244" type="line"/>
      <point x="38" y="75" type="line"/>
      <point x="131" y="75" type="line"/>
      <point x="137" y="72" type="line"/>
      <point x="141" y="69" type="line"/>
    </contour>
    <contour>
      <point x="263" y="244" type="line"/>
      <point x="173" y="244" type="line"/>
      <point x="160" y="231" type="line"/>
      <point x="160" y="70" type="line"/>
      <point x="162" y="72" type="line"/>
      <point x="169" y="75" type="line"/>
      <point x="263" y="75" type="line"/>
    </contour>
    <contour>
      <point x="113" y="188" type="line"/>
      <point x="56" y="188" type="line"/>
      <point x="56" y="206" type="line"/>
      <point x="113" y="206" type="line"/>
    </contour>
    <contour>
      <point x="113" y="113" type="line"/>
      <point x="56" y="113" type="line"/>
      <point x="56" y="131" type="line"/>
      <point x="113" y="131" type="line"/>
    </contour>
    <contour>
      <point x="56" y="150" type="line"/>
      <point x="113" y="150" type="line"/>
      <point x="113" y="169" type="line"/>
      <point x="56" y="169" type="line"/>
    </contour>
    <contour>
      <point x="244" y="188" type="line"/>
      <point x="188" y="188" type="line"/>
      <point x="188" y="206" type="line"/>
      <point x="244" y="206" type="line"/>
    </contour>
    <contour>
      <point x="188" y="150" type="line"/>
      <point x="244" y="150" type="line"/>
      <point x="244" y="169" type="line"/>
      <point x="188" y="169" type="line"/>
    </contour>
    <contour>
      <point x="188" y="113" type="line"/>
      <point x="244" y="113" type="line"/>
      <point x="244" y="131" type="line"/>
      <point x="188" y="131" type="line"/>
    </contour>
  </outline>
</glyph>
<glyph name="bookmark" format="2">
  <advance width="300"/>
  <unicode hex="EAA5"/>
  <note>
bookmark
</note>
  <outline>
    <contour>
      <point x="244" y="272" type="line"/>
      <point x="244" y="28" type="line"/>
      <point x="227" y="22" type="line"/>
      <point x="150" y="108" type="line"/>
      <point x="73" y="22" type="line"/>
      <point x="56" y="28" type="line"/>
      <point x="56" y="272" type="line"/>
      <point x="66" y="281" type="line"/>
      <point x="234" y="281" type="line"/>
    </contour>
    <contour>
      <point x="225" y="263" type="line"/>
      <point x="75" y="263" type="line"/>
      <point x="75" y="53" type="line"/>
      <point x="143" y="128" type="line"/>
      <point x="157" y="128" type="line"/>
      <point x="225" y="53" type="line"/>
    </contour>
  </outline>
</glyph>
<glyph name="debug-breakpoint-conditional-unverified" format="2">
  <advance width="300"/>
  <unicode hex="EAA6"/>
  <note>
debug-breakpoint-conditional-unverified
</note>
  <outline>
    <contour>
      <point x="92" y="201"/>
      <point x="74" y="165"/>
      <point x="77" y="125"/>
      <point x="99" y="92"/>
      <point x="135" y="74"/>
      <point x="175" y="76"/>
      <point x="208" y="99"/>
      <point x="226" y="135"/>
      <point x="224" y="175"/>
      <point x="201" y="209"/>
      <point x="165" y="226"/>
      <point x="125" y="224"/>
      <point x="108" y="212" type="qcurve" smooth="yes"/>
    </contour>
    <contour>
      <point x="104" y="119"/>
      <point x="96" y="161"/>
      <point x="120" y="196"/>
      <point x="161" y="204"/>
      <point x="179" y="193" type="qcurve" smooth="yes"/>
      <point x="190" y="185"/>
      <point x="203" y="160"/>
      <point x="201" y="132"/>
      <point x="186" y="109"/>
      <point x="161" y="97"/>
      <point x="133" y="99"/>
      <point x="121" y="107" type="qcurve" smooth="yes"/>
    </contour>
    <contour>
      <point x="178" y="159" type="line"/>
      <point x="122" y="159" type="line"/>
      <point x="122" y="178" type="line"/>
      <point x="178" y="178" type="line"/>
    </contour>
    <contour>
      <point x="178" y="122" type="line"/>
      <point x="122" y="122" type="line"/>
      <point x="122" y="141" type="line"/>
      <point x="178" y="141" type="line"/>
    </contour>
  </outline>
</glyph>
<glyph name="debug-breakpoint-conditional" format="2">
  <advance width="300"/>
  <unicode hex="EAA7"/>
  <note>
debug-breakpoint-conditional
</note>
  <outline>
    <contour>
      <point x="170" y="225"/>
      <point x="205" y="205"/>
      <point x="225" y="170"/>
      <point x="225" y="130"/>
      <point x="205" y="95"/>
      <point x="170" y="75"/>
      <point x="130" y="75"/>
      <point x="95" y="95"/>
      <point x="75" y="130"/>
      <point x="75" y="170"/>
      <point x="95" y="205"/>
      <point x="130" y="225"/>
      <point x="150" y="225" type="qcurve" smooth="yes"/>
    </contour>
    <contour>
      <point x="113" y="131" type="line"/>
      <point x="113" y="113" type="line"/>
      <point x="188" y="113" type="line"/>
      <point x="188" y="131" type="line"/>
    </contour>
    <contour>
      <point x="113" y="188" type="line"/>
      <point x="113" y="169" type="line"/>
      <point x="188" y="169" type="line"/>
      <point x="188" y="188" type="line"/>
    </contour>
  </outline>
</glyph>
<glyph name="debug-breakpoint-data-unverified" format="2">
  <advance width="300"/>
  <unicode hex="EAA8"/>
  <note>
debug-breakpoint-data-unverified
</note>
  <outline>
    <contour>
      <point x="230" y="150" type="line"/>
      <point x="186" y="75" type="line"/>
      <point x="100" y="75" type="line"/>
      <point x="56" y="150" type="line"/>
      <point x="100" y="225" type="line"/>
      <point x="186" y="225" type="line"/>
    </contour>
    <contour>
      <point x="201" y="150" type="line"/>
      <point x="172" y="201" type="line"/>
      <point x="114" y="201" type="line"/>
      <point x="84" y="150" type="line"/>
      <point x="114" y="99" type="line"/>
      <point x="172" y="99" type="line"/>
    </contour>
  </outline>
</glyph>
<glyph name="debug-breakpoint-data" format="2">
  <advance width="300"/>
  <unicode hex="EAA9"/>
  <note>
debug-breakpoint-data
</note>
  <outline>
    <contour>
      <point x="186" y="225" type="line"/>
      <point x="100" y="225" type="line"/>
      <point x="56" y="150" type="line"/>
      <point x="100" y="75" type="line"/>
      <point x="186" y="75" type="line"/>
      <point x="229" y="150" type="line"/>
    </contour>
  </outline>
</glyph>
<glyph name="debug-breakpoint-log-unverified" format="2">
  <advance width="300"/>
  <unicode hex="EAAA"/>
  <note>
debug-breakpoint-log-unverified
</note>
  <outline>
    <contour>
      <point x="150" y="57" type="line"/>
      <point x="243" y="150" type="line"/>
      <point x="150" y="244" type="line"/>
      <point x="57" y="150" type="line"/>
    </contour>
    <contour>
      <point x="98" y="150" type="line"/>
      <point x="150" y="203" type="line"/>
      <point x="202" y="150" type="line"/>
      <point x="150" y="98" type="line"/>
    </contour>
  </outline>
</glyph>
<glyph name="debug-breakpoint-log" format="2">
  <advance width="300"/>
  <unicode hex="EAAB"/>
  <note>
debug-breakpoint-log
</note>
  <outline>
    <contour>
      <point x="56" y="150" type="line"/>
      <point x="150" y="56" type="line"/>
      <point x="244" y="150" type="line"/>
      <point x="150" y="244" type="line"/>
    </contour>
  </outline>
</glyph>
<glyph name="briefcase" format="2">
  <advance width="300"/>
  <unicode hex="EAAC"/>
  <note>
briefcase
</note>
  <outline>
    <contour>
      <point x="281" y="216" type="line"/>
      <point x="281" y="66" type="line"/>
      <point x="272" y="56" type="line"/>
      <point x="28" y="56" type="line"/>
      <point x="19" y="66" type="line"/>
      <point x="19" y="216" type="line"/>
      <point x="28" y="225" type="line"/>
      <point x="94" y="225" type="line"/>
      <point x="94" y="253" type="line"/>
      <point x="103" y="263" type="line"/>
      <point x="197" y="263" type="line"/>
      <point x="206" y="253" type="line"/>
      <point x="206" y="225" type="line"/>
      <point x="272" y="225" type="line"/>
    </contour>
    <contour>
      <point x="113" y="225" type="line"/>
      <point x="188" y="225" type="line"/>
      <point x="188" y="244" type="line"/>
      <point x="113" y="244" type="line"/>
    </contour>
    <contour>
      <point x="38" y="206" type="line"/>
      <point x="38" y="193" type="line"/>
      <point x="113" y="150" type="line"/>
      <point x="113" y="159" type="line"/>
      <point x="122" y="169" type="line"/>
      <point x="178" y="169" type="line"/>
      <point x="188" y="159" type="line"/>
      <point x="188" y="150" type="line"/>
      <point x="263" y="192" type="line"/>
      <point x="263" y="206" type="line"/>
    </contour>
    <contour>
      <point x="131" y="150" type="line"/>
      <point x="131" y="131" type="line"/>
      <point x="169" y="131" type="line"/>
      <point x="169" y="150" type="line"/>
    </contour>
    <contour>
      <point x="263" y="75" type="line"/>
      <point x="263" y="170" type="line"/>
      <point x="188" y="128" type="line"/>
      <point x="188" y="122" type="line"/>
      <point x="178" y="113" type="line"/>
      <point x="122" y="113" type="line"/>
      <point x="113" y="122" type="line"/>
      <point x="113" y="128" type="line"/>
      <point x="38" y="171" type="line"/>
      <point x="38" y="75" type="line"/>
    </contour>
  </outline>
</glyph>
<glyph name="broadcast" format="2">
  <advance width="300"/>
  <unicode hex="EAAD"/>
  <note>
broadcast
</note>
  <outline>
    <contour>
      <point x="61" y="245"/>
      <point x="34" y="187"/>
      <point x="42" y="123"/>
      <point x="82" y="74"/>
      <point x="112" y="63" type="qcurve"/>
      <point x="112" y="64" type="line"/>
      <point x="103" y="72"/>
      <point x="103" y="84" type="qcurve" smooth="yes"/>
      <point x="103" y="87" type="line"/>
      <point x="78" y="101"/>
      <point x="52" y="154"/>
      <point x="61" y="212"/>
      <point x="101" y="255"/>
      <point x="158" y="267"/>
      <point x="212" y="246"/>
      <point x="229" y="221" type="qcurve" smooth="yes"/>
      <point x="239" y="205"/>
      <point x="246" y="166"/>
      <point x="237" y="128"/>
      <point x="214" y="96"/>
      <point x="197" y="87" type="qcurve"/>
      <point x="197" y="84" type="line" smooth="yes"/>
      <point x="197" y="73"/>
      <point x="188" y="64" type="qcurve"/>
      <point x="188" y="64" type="line"/>
      <point x="188" y="63" type="line"/>
      <point x="221" y="75"/>
      <point x="262" y="133"/>
      <point x="263" y="169" type="qcurve" smooth="yes"/>
      <point x="262" y="199"/>
      <point x="232" y="251"/>
      <point x="181" y="281"/>
      <point x="150" y="281" type="qcurve" smooth="yes"/>
      <point x="116" y="281"/>
      <point x="88" y="262" type="qcurve" smooth="yes"/>
    </contour>
    <contour>
      <point x="175" y="78" type="line"/>
      <point x="178" y="80"/>
      <point x="178" y="84" type="qcurve" smooth="yes"/>
      <point x="178" y="122" type="line" smooth="yes"/>
      <point x="178" y="130"/>
      <point x="167" y="141"/>
      <point x="159" y="141" type="qcurve" smooth="yes"/>
      <point x="141" y="141" type="line" smooth="yes"/>
      <point x="133" y="141"/>
      <point x="122" y="130"/>
      <point x="122" y="122" type="qcurve" smooth="yes"/>
      <point x="122" y="84" type="line" smooth="yes"/>
      <point x="122" y="80"/>
      <point x="127" y="75"/>
      <point x="131" y="75" type="qcurve"/>
      <point x="131" y="28" type="line" smooth="yes"/>
      <point x="131" y="24"/>
      <point x="135" y="20"/>
      <point x="139" y="19" type="qcurve"/>
      <point x="139" y="19" type="line"/>
      <point x="140" y="19"/>
      <point x="140" y="19" type="qcurve"/>
      <point x="160" y="19" type="line" smooth="yes"/>
      <point x="164" y="19"/>
      <point x="169" y="24"/>
      <point x="169" y="28" type="qcurve" smooth="yes"/>
      <point x="169" y="75" type="line"/>
      <point x="173" y="75"/>
      <point x="175" y="78" type="qcurve"/>
    </contour>
    <contour>
      <point x="199" y="169" type="line"/>
      <point x="200" y="185"/>
      <point x="181" y="210"/>
      <point x="151" y="221"/>
      <point x="121" y="212"/>
      <point x="101" y="186"/>
      <point x="100" y="155"/>
      <point x="109" y="142" type="qcurve"/>
      <point x="103" y="133"/>
      <point x="103" y="122" type="qcurve" smooth="yes"/>
      <point x="103" y="120" type="line"/>
      <point x="90" y="133"/>
      <point x="79" y="168"/>
      <point x="88" y="204"/>
      <point x="114" y="230"/>
      <point x="149" y="240"/>
      <point x="185" y="230"/>
      <point x="198" y="216" type="qcurve" smooth="yes"/>
      <point x="207" y="207"/>
      <point x="218" y="182"/>
      <point x="217" y="154"/>
      <point x="206" y="129"/>
      <point x="197" y="120" type="qcurve"/>
      <point x="197" y="122" type="line" smooth="yes"/>
      <point x="197" y="132"/>
      <point x="191" y="141" type="qcurve"/>
      <point x="200" y="154"/>
      <point x="200" y="169" type="qcurve"/>
    </contour>
    <contour>
      <point x="169" y="177"/>
      <point x="158" y="188"/>
      <point x="142" y="188"/>
      <point x="131" y="177"/>
      <point x="131" y="161"/>
      <point x="142" y="150"/>
      <point x="158" y="150"/>
      <point x="169" y="161"/>
      <point x="169" y="169" type="qcurve" smooth="yes"/>
    </contour>
  </outline>
</glyph>
<glyph name="bug" format="2">
  <advance width="300"/>
  <unicode hex="EAAF"/>
  <note>
bug
</note>
  <outline>
    <contour>
      <point x="219" y="216" type="line"/>
      <point x="250" y="247" type="line"/>
      <point x="261" y="236" type="line"/>
      <point x="231" y="206" type="line"/>
      <point x="232" y="205" type="line"/>
      <point x="242" y="179"/>
      <point x="241" y="152" type="qcurve" smooth="yes"/>
      <point x="241" y="140" type="line"/>
      <point x="280" y="140" type="line"/>
      <point x="280" y="124" type="line"/>
      <point x="239" y="124" type="line"/>
      <point x="239" y="124" type="line"/>
      <point x="234" y="97"/>
      <point x="220" y="75" type="qcurve"/>
      <point x="220" y="74" type="line"/>
      <point x="257" y="36" type="line"/>
      <point x="246" y="25" type="line"/>
      <point x="210" y="61" type="line"/>
      <point x="209" y="60" type="line" smooth="yes"/>
      <point x="197" y="46"/>
      <point x="166" y="31"/>
      <point x="132" y="31"/>
      <point x="101" y="47"/>
      <point x="89" y="61" type="qcurve"/>
      <point x="87" y="62" type="line"/>
      <point x="52" y="27" type="line"/>
      <point x="41" y="38" type="line"/>
      <point x="78" y="75" type="line"/>
      <point x="77" y="76" type="line"/>
      <point x="64" y="97"/>
      <point x="60" y="124" type="qcurve"/>
      <point x="59" y="124" type="line"/>
      <point x="19" y="124" type="line"/>
      <point x="19" y="140" type="line"/>
      <point x="57" y="140" type="line"/>
      <point x="57" y="152" type="line" smooth="yes"/>
      <point x="57" y="179"/>
      <point x="66" y="205" type="qcurve"/>
      <point x="67" y="206" type="line"/>
      <point x="37" y="236" type="line"/>
      <point x="48" y="247" type="line"/>
      <point x="79" y="216" type="line"/>
      <point x="95" y="216" type="line"/>
      <point x="95" y="227" type="line" smooth="yes"/>
      <point x="95" y="249"/>
      <point x="127" y="281"/>
      <point x="172" y="281"/>
      <point x="204" y="249"/>
      <point x="204" y="227" type="qcurve" smooth="yes"/>
      <point x="204" y="216" type="line"/>
    </contour>
    <contour>
      <point x="188" y="216" type="line"/>
      <point x="188" y="227" type="line" smooth="yes"/>
      <point x="188" y="243"/>
      <point x="165" y="266"/>
      <point x="133" y="266"/>
      <point x="110" y="243"/>
      <point x="110" y="227" type="qcurve" smooth="yes"/>
      <point x="110" y="216" type="line"/>
    </contour>
    <contour>
      <point x="81" y="200" type="line"/>
      <point x="81" y="199" type="line"/>
      <point x="73" y="177"/>
      <point x="73" y="152" type="qcurve" smooth="yes"/>
      <point x="73" y="129"/>
      <point x="85" y="90"/>
      <point x="107" y="62"/>
      <point x="135" y="47"/>
      <point x="164" y="47"/>
      <point x="191" y="62"/>
      <point x="213" y="90"/>
      <point x="226" y="129"/>
      <point x="226" y="152" type="qcurve" smooth="yes"/>
      <point x="226" y="177"/>
      <point x="217" y="199" type="qcurve"/>
      <point x="217" y="200" type="line"/>
    </contour>
  </outline>
</glyph>
<glyph name="calendar" format="2">
  <advance width="300"/>
  <unicode hex="EAB0"/>
  <note>
calendar
</note>
  <outline>
    <contour>
      <point x="281" y="253" type="line"/>
      <point x="281" y="28" type="line"/>
      <point x="272" y="19" type="line"/>
      <point x="28" y="19" type="line"/>
      <point x="19" y="28" type="line"/>
      <point x="19" y="253" type="line"/>
      <point x="28" y="263" type="line"/>
      <point x="56" y="263" type="line"/>
      <point x="56" y="281" type="line"/>
      <point x="75" y="281" type="line"/>
      <point x="75" y="263" type="line"/>
      <point x="225" y="263" type="line"/>
      <point x="225" y="281" type="line"/>
      <point x="244" y="281" type="line"/>
      <point x="244" y="263" type="line"/>
      <point x="272" y="263" type="line"/>
    </contour>
    <contour>
      <point x="263" y="206" type="line"/>
      <point x="38" y="206" type="line"/>
      <point x="38" y="38" type="line"/>
      <point x="263" y="38" type="line"/>
    </contour>
    <contour>
      <point x="263" y="244" type="line"/>
      <point x="38" y="244" type="line"/>
      <point x="38" y="225" type="line"/>
      <point x="263" y="225" type="line"/>
    </contour>
    <contour>
      <point x="75" y="131" type="line"/>
      <point x="56" y="131" type="line"/>
      <point x="56" y="150" type="line"/>
      <point x="75" y="150" type="line"/>
    </contour>
    <contour>
      <point x="56" y="94" type="line"/>
      <point x="75" y="94" type="line"/>
      <point x="75" y="113" type="line"/>
      <point x="56" y="113" type="line"/>
    </contour>
    <contour>
      <point x="75" y="56" type="line"/>
      <point x="56" y="56" type="line"/>
      <point x="56" y="75" type="line"/>
      <point x="75" y="75" type="line"/>
    </contour>
    <contour>
      <point x="113" y="131" type="line"/>
      <point x="131" y="131" type="line"/>
      <point x="131" y="150" type="line"/>
      <point x="113" y="150" type="line"/>
    </contour>
    <contour>
      <point x="131" y="94" type="line"/>
      <point x="113" y="94" type="line"/>
      <point x="113" y="113" type="line"/>
      <point x="131" y="113" type="line"/>
    </contour>
    <contour>
      <point x="113" y="56" type="line"/>
      <point x="131" y="56" type="line"/>
      <point x="131" y="75" type="line"/>
      <point x="113" y="75" type="line"/>
    </contour>
    <contour>
      <point x="131" y="169" type="line"/>
      <point x="113" y="169" type="line"/>
      <point x="113" y="188" type="line"/>
      <point x="131" y="188" type="line"/>
    </contour>
    <contour>
      <point x="169" y="131" type="line"/>
      <point x="188" y="131" type="line"/>
      <point x="188" y="150" type="line"/>
      <point x="169" y="150" type="line"/>
    </contour>
    <contour>
      <point x="188" y="94" type="line"/>
      <point x="169" y="94" type="line"/>
      <point x="169" y="113" type="line"/>
      <point x="188" y="113" type="line"/>
    </contour>
    <contour>
      <point x="169" y="56" type="line"/>
      <point x="188" y="56" type="line"/>
      <point x="188" y="75" type="line"/>
      <point x="169" y="75" type="line"/>
    </contour>
    <contour>
      <point x="188" y="169" type="line"/>
      <point x="169" y="169" type="line"/>
      <point x="169" y="188" type="line"/>
      <point x="188" y="188" type="line"/>
    </contour>
    <contour>
      <point x="225" y="131" type="line"/>
      <point x="244" y="131" type="line"/>
      <point x="244" y="150" type="line"/>
      <point x="225" y="150" type="line"/>
    </contour>
    <contour>
      <point x="244" y="94" type="line"/>
      <point x="225" y="94" type="line"/>
      <point x="225" y="113" type="line"/>
      <point x="244" y="113" type="line"/>
    </contour>
    <contour>
      <point x="225" y="169" type="line"/>
      <point x="244" y="169" type="line"/>
      <point x="244" y="188" type="line"/>
      <point x="225" y="188" type="line"/>
    </contour>
  </outline>
</glyph>
<glyph name="case-sensitive" format="2">
  <advance width="300"/>
  <unicode hex="EAB1"/>
  <note>
case-sensitive
</note>
  <outline>
    <contour>
      <point x="110" y="225" type="line"/>
      <point x="93" y="225" type="line"/>
      <point x="38" y="81" type="line"/>
      <point x="56" y="81" type="line"/>
      <point x="71" y="121" type="line"/>
      <point x="132" y="121" type="line"/>
      <point x="147" y="81" type="line"/>
      <point x="166" y="81" type="line"/>
    </contour>
    <contour>
      <point x="76" y="136" type="line"/>
      <point x="99" y="198" type="line" smooth="yes"/>
      <point x="100" y="201"/>
      <point x="101" y="207" type="qcurve"/>
      <point x="102" y="207" type="line"/>
      <point x="103" y="201"/>
      <point x="104" y="198" type="qcurve" smooth="yes"/>
      <point x="126" y="136" type="line"/>
    </contour>
    <contour>
      <point x="258" y="148" type="line" smooth="yes"/>
      <point x="258" y="186"/>
      <point x="222" y="186" type="qcurve" smooth="yes"/>
      <point x="202" y="186"/>
      <point x="187" y="176" type="qcurve"/>
      <point x="187" y="160" type="line"/>
      <point x="202" y="172"/>
      <point x="220" y="172" type="qcurve" smooth="yes"/>
      <point x="241" y="172"/>
      <point x="241" y="146" type="qcurve"/>
      <point x="210" y="142" type="line" smooth="yes"/>
      <point x="176" y="137"/>
      <point x="176" y="108" type="qcurve" smooth="yes"/>
      <point x="176" y="94"/>
      <point x="194" y="78"/>
      <point x="209" y="78" type="qcurve" smooth="yes"/>
      <point x="230" y="78"/>
      <point x="241" y="97" type="qcurve"/>
      <point x="241" y="97" type="line"/>
      <point x="241" y="81" type="line"/>
      <point x="258" y="81" type="line"/>
    </contour>
    <contour>
      <point x="241" y="122" type="line" smooth="yes"/>
      <point x="241" y="109"/>
      <point x="225" y="92"/>
      <point x="213" y="92" type="qcurve" smooth="yes"/>
      <point x="204" y="92"/>
      <point x="193" y="102"/>
      <point x="193" y="109" type="qcurve" smooth="yes"/>
      <point x="193" y="120"/>
      <point x="205" y="128"/>
      <point x="217" y="129" type="qcurve" smooth="yes"/>
      <point x="241" y="133" type="line"/>
    </contour>
  </outline>
</glyph>
<glyph name="check" format="2">
  <advance width="300"/>
  <unicode hex="EAB2"/>
  <note>
check
</note>
  <outline>
    <contour>
      <point x="256" y="250" type="line"/>
      <point x="105" y="72" type="line"/>
      <point x="49" y="151" type="line"/>
      <point x="34" y="140" type="line"/>
      <point x="97" y="51" type="line"/>
      <point x="112" y="50" type="line"/>
      <point x="271" y="238" type="line"/>
    </contour>
  </outline>
</glyph>
<glyph name="checklist" format="2">
  <advance width="300"/>
  <unicode hex="EAB3"/>
  <note>
checklist
</note>
  <outline>
    <contour>
      <point x="104" y="249" type="line"/>
      <point x="90" y="263" type="line"/>
      <point x="64" y="236" type="line"/>
      <point x="51" y="249" type="line"/>
      <point x="38" y="236" type="line"/>
      <point x="57" y="216" type="line"/>
      <point x="70" y="216" type="line"/>
    </contour>
    <contour>
      <point x="131" y="225" type="line"/>
      <point x="281" y="225" type="line"/>
      <point x="281" y="244" type="line"/>
      <point x="131" y="244" type="line"/>
    </contour>
    <contour>
      <point x="131" y="169" type="line"/>
      <point x="281" y="169" type="line"/>
      <point x="281" y="188" type="line"/>
      <point x="131" y="188" type="line"/>
    </contour>
    <contour>
      <point x="281" y="113" type="line"/>
      <point x="131" y="113" type="line"/>
      <point x="131" y="131" type="line"/>
      <point x="281" y="131" type="line"/>
    </contour>
    <contour>
      <point x="131" y="56" type="line"/>
      <point x="281" y="56" type="line"/>
      <point x="281" y="75" type="line"/>
      <point x="131" y="75" type="line"/>
    </contour>
    <contour>
      <point x="38" y="179" type="line"/>
      <point x="51" y="193" type="line"/>
      <point x="64" y="180" type="line"/>
      <point x="90" y="206" type="line"/>
      <point x="104" y="193" type="line"/>
      <point x="70" y="160" type="line"/>
      <point x="57" y="160" type="line"/>
    </contour>
    <contour>
      <point x="104" y="137" type="line"/>
      <point x="90" y="150" type="line"/>
      <point x="64" y="123" type="line"/>
      <point x="51" y="136" type="line"/>
      <point x="38" y="123" type="line"/>
      <point x="57" y="103" type="line"/>
      <point x="70" y="103" type="line"/>
    </contour>
    <contour>
      <point x="38" y="67" type="line"/>
      <point x="51" y="80" type="line"/>
      <point x="64" y="67" type="line"/>
      <point x="90" y="93" type="line"/>
      <point x="104" y="80" type="line"/>
      <point x="70" y="47" type="line"/>
      <point x="57" y="47" type="line"/>
    </contour>
  </outline>
</glyph>
<glyph name="chevron-down" format="2">
  <advance width="300"/>
  <unicode hex="EAB4"/>
  <note>
chevron-down
</note>
  <outline>
    <contour>
      <point x="68" y="193" type="line"/>
      <point x="56" y="181" type="line"/>
      <point x="144" y="94" type="line"/>
      <point x="155" y="94" type="line"/>
      <point x="243" y="181" type="line"/>
      <point x="231" y="193" type="line"/>
      <point x="150" y="111" type="line"/>
    </contour>
  </outline>
</glyph>
<glyph name="chevron-left" format="2">
  <advance width="300"/>
  <unicode hex="EAB5"/>
  <note>
chevron-left
</note>
  <outline>
    <contour>
      <point x="193" y="232" type="line"/>
      <point x="181" y="244" type="line"/>
      <point x="94" y="156" type="line"/>
      <point x="94" y="145" type="line"/>
      <point x="181" y="57" type="line"/>
      <point x="193" y="69" type="line"/>
      <point x="111" y="150" type="line"/>
    </contour>
  </outline>
</glyph>
<glyph name="chevron-right" format="2">
  <advance width="300"/>
  <unicode hex="EAB6"/>
  <note>
chevron-right
</note>
  <outline>
    <contour>
      <point x="107" y="68" type="line"/>
      <point x="119" y="56" type="line"/>
      <point x="206" y="144" type="line"/>
      <point x="206" y="155" type="line"/>
      <point x="119" y="243" type="line"/>
      <point x="107" y="231" type="line"/>
      <point x="189" y="150" type="line"/>
    </contour>
  </outline>
</glyph>
<glyph name="chevron-up" format="2">
  <advance width="300"/>
  <unicode hex="EAB7"/>
  <note>
chevron-up
</note>
  <outline>
    <contour>
      <point x="232" y="107" type="line"/>
      <point x="244" y="119" type="line"/>
      <point x="156" y="206" type="line"/>
      <point x="145" y="206" type="line"/>
      <point x="57" y="119" type="line"/>
      <point x="69" y="107" type="line"/>
      <point x="150" y="189" type="line"/>
    </contour>
  </outline>
</glyph>
<glyph name="chrome-close" format="2">
  <advance width="300"/>
  <unicode hex="EAB8"/>
  <note>
chrome-close
</note>
  <outline>
    <contour>
      <point x="48" y="235" type="line"/>
      <point x="65" y="252" type="line"/>
      <point x="150" y="167" type="line"/>
      <point x="235" y="252" type="line"/>
      <point x="252" y="235" type="line"/>
      <point x="167" y="150" type="line"/>
      <point x="252" y="65" type="line"/>
      <point x="235" y="48" type="line"/>
      <point x="150" y="133" type="line"/>
      <point x="65" y="48" type="line"/>
      <point x="48" y="65" type="line"/>
      <point x="133" y="150" type="line"/>
    </contour>
  </outline>
</glyph>
<glyph name="chrome-maximize" format="2">
  <advance width="300"/>
  <unicode hex="EAB9"/>
  <note>
chrome-maximize
</note>
  <outline>
    <contour>
      <point x="244" y="244" type="line"/>
      <point x="244" y="56" type="line"/>
      <point x="56" y="56" type="line"/>
      <point x="56" y="244" type="line"/>
    </contour>
    <contour>
      <point x="225" y="225" type="line"/>
      <point x="75" y="225" type="line"/>
      <point x="75" y="75" type="line"/>
      <point x="225" y="75" type="line"/>
    </contour>
  </outline>
</glyph>
<glyph name="chrome-minimize" format="2">
  <advance width="300"/>
  <unicode hex="EABA"/>
  <note>
chrome-minimize
</note>
  <outline>
    <contour>
      <point x="56" y="150" type="line"/>
      <point x="56" y="131" type="line"/>
      <point x="263" y="131" type="line"/>
      <point x="263" y="150" type="line"/>
    </contour>
  </outline>
</glyph>
<glyph name="chrome-restore" format="2">
  <advance width="300"/>
  <unicode hex="EABB"/>
  <note>
chrome-restore
</note>
  <outline>
    <contour>
      <point x="225" y="206" type="line"/>
      <point x="225" y="38" type="line"/>
      <point x="56" y="38" type="line"/>
      <point x="56" y="206" type="line"/>
    </contour>
    <contour>
      <point x="206" y="188" type="line"/>
      <point x="75" y="188" type="line"/>
      <point x="75" y="56" type="line"/>
      <point x="206" y="56" type="line"/>
    </contour>
    <contour>
      <point x="94" y="244" type="line"/>
      <point x="263" y="244" type="line"/>
      <point x="263" y="75" type="line"/>
      <point x="225" y="75" type="line"/>
      <point x="225" y="94" type="line"/>
      <point x="244" y="94" type="line"/>
      <point x="244" y="225" type="line"/>
      <point x="113" y="225" type="line"/>
      <point x="113" y="206" type="line"/>
      <point x="94" y="206" type="line"/>
    </contour>
  </outline>
</glyph>
<glyph name="circle-outline" format="2">
  <advance width="300"/>
  <unicode hex="EABC"/>
  <note>
circle-outline
</note>
  <outline>
    <contour>
      <point x="130" y="75"/>
      <point x="95" y="95"/>
      <point x="75" y="130"/>
      <point x="75" y="170"/>
      <point x="95" y="205"/>
      <point x="130" y="225"/>
      <point x="170" y="225"/>
      <point x="205" y="205"/>
      <point x="225" y="170"/>
      <point x="225" y="130"/>
      <point x="205" y="95"/>
      <point x="170" y="75"/>
      <point x="150" y="75" type="qcurve" smooth="yes"/>
    </contour>
    <contour>
      <point x="199" y="170"/>
      <point x="170" y="199"/>
      <point x="130" y="199"/>
      <point x="101" y="170"/>
      <point x="101" y="130"/>
      <point x="130" y="101"/>
      <point x="170" y="101"/>
      <point x="199" y="130"/>
      <point x="199" y="150" type="qcurve" smooth="yes"/>
    </contour>
    <contour>
      <point x="150" y="202" type="line"/>
      <point x="150" y="202" type="line"/>
    </contour>
  </outline>
</glyph>
<glyph name="circle-slash" format="2">
  <advance width="300"/>
  <unicode hex="EABD"/>
  <note>
circle-slash
</note>
  <outline>
    <contour>
      <point x="114" y="281"/>
      <point x="54" y="246"/>
      <point x="19" y="186"/>
      <point x="19" y="114"/>
      <point x="54" y="54"/>
      <point x="114" y="19"/>
      <point x="186" y="19"/>
      <point x="246" y="54"/>
      <point x="281" y="114"/>
      <point x="281" y="186"/>
      <point x="246" y="246"/>
      <point x="186" y="281"/>
      <point x="150" y="281" type="qcurve" smooth="yes"/>
    </contour>
    <contour>
      <point x="37" y="150" type="line"/>
      <point x="37" y="183"/>
      <point x="73" y="238"/>
      <point x="132" y="266"/>
      <point x="198" y="257"/>
      <point x="223" y="236" type="qcurve"/>
      <point x="64" y="77" type="line"/>
      <point x="51" y="93"/>
      <point x="38" y="130"/>
      <point x="38" y="150" type="qcurve"/>
    </contour>
    <contour>
      <point x="263" y="117"/>
      <point x="227" y="62"/>
      <point x="168" y="34"/>
      <point x="102" y="43"/>
      <point x="77" y="64" type="qcurve"/>
      <point x="236" y="223" type="line"/>
      <point x="249" y="207"/>
      <point x="263" y="170"/>
      <point x="263" y="150" type="qcurve" smooth="yes"/>
    </contour>
  </outline>
</glyph>
<glyph name="circuit-board" format="2">
  <advance width="300"/>
  <unicode hex="EABE"/>
  <note>
circuit-board
</note>
  <outline>
    <contour>
      <point x="281" y="272" type="line"/>
      <point x="281" y="28" type="line"/>
      <point x="272" y="19" type="line"/>
      <point x="28" y="19" type="line"/>
      <point x="19" y="28" type="line"/>
      <point x="19" y="272" type="line"/>
      <point x="28" y="281" type="line"/>
      <point x="272" y="281" type="line"/>
    </contour>
    <contour>
      <point x="263" y="263" type="line"/>
      <point x="94" y="263" type="line"/>
      <point x="94" y="225" type="line"/>
      <point x="104" y="225"/>
      <point x="121" y="215"/>
      <point x="126" y="206" type="qcurve"/>
      <point x="174" y="206" type="line"/>
      <point x="179" y="215"/>
      <point x="196" y="225"/>
      <point x="206" y="225" type="qcurve" smooth="yes"/>
      <point x="222" y="225"/>
      <point x="244" y="203"/>
      <point x="244" y="172"/>
      <point x="222" y="150"/>
      <point x="191" y="150"/>
      <point x="169" y="172"/>
      <point x="169" y="188" type="qcurve"/>
      <point x="131" y="188" type="line"/>
      <point x="131" y="172"/>
      <point x="109" y="150"/>
      <point x="78" y="150"/>
      <point x="56" y="172"/>
      <point x="56" y="188" type="qcurve" smooth="yes"/>
      <point x="56" y="197"/>
      <point x="67" y="215"/>
      <point x="75" y="219" type="qcurve"/>
      <point x="75" y="263" type="line"/>
      <point x="38" y="263" type="line"/>
      <point x="38" y="38" type="line"/>
      <point x="75" y="38" type="line"/>
      <point x="75" y="94" type="line"/>
      <point x="131" y="94" type="line"/>
      <point x="131" y="109"/>
      <point x="153" y="131"/>
      <point x="184" y="131"/>
      <point x="206" y="109"/>
      <point x="206" y="78"/>
      <point x="184" y="56"/>
      <point x="169" y="56" type="qcurve" smooth="yes"/>
      <point x="159" y="56"/>
      <point x="141" y="67"/>
      <point x="137" y="75" type="qcurve"/>
      <point x="94" y="75" type="line"/>
      <point x="94" y="38" type="line"/>
      <point x="263" y="38" type="line"/>
    </contour>
    <contour>
      <point x="150" y="85"/>
      <point x="160" y="75"/>
      <point x="177" y="75"/>
      <point x="188" y="85"/>
      <point x="188" y="102"/>
      <point x="177" y="113"/>
      <point x="160" y="113"/>
      <point x="150" y="102"/>
      <point x="150" y="94" type="qcurve" smooth="yes"/>
    </contour>
    <contour>
      <point x="85" y="206"/>
      <point x="75" y="196"/>
      <point x="75" y="179"/>
      <point x="85" y="169"/>
      <point x="102" y="169"/>
      <point x="113" y="179"/>
      <point x="113" y="196"/>
      <point x="102" y="206"/>
      <point x="94" y="206" type="qcurve" smooth="yes"/>
    </contour>
    <contour>
      <point x="198" y="206"/>
      <point x="188" y="196"/>
      <point x="188" y="179"/>
      <point x="198" y="169"/>
      <point x="215" y="169"/>
      <point x="225" y="179"/>
      <point x="225" y="196"/>
      <point x="215" y="206"/>
      <point x="206" y="206" type="qcurve" smooth="yes"/>
    </contour>
  </outline>
</glyph>
<glyph name="clear-all" format="2">
  <advance width="300"/>
  <unicode hex="EABF"/>
  <note>
clear-all
</note>
  <outline>
    <contour>
      <point x="218" y="94" type="line"/>
      <point x="188" y="124" type="line"/>
      <point x="201" y="139" type="line"/>
      <point x="231" y="107" type="line"/>
      <point x="261" y="139" type="line"/>
      <point x="276" y="124" type="line"/>
      <point x="244" y="94" type="line"/>
      <point x="276" y="64" type="line"/>
      <point x="261" y="51" type="line"/>
      <point x="231" y="81" type="line"/>
      <point x="201" y="51" type="line"/>
      <point x="188" y="64" type="line"/>
    </contour>
    <contour>
      <point x="19" y="244" type="line"/>
      <point x="281" y="244" type="line"/>
      <point x="281" y="225" type="line"/>
      <point x="19" y="225" type="line"/>
    </contour>
    <contour>
      <point x="19" y="188" type="line"/>
      <point x="281" y="188" type="line"/>
      <point x="281" y="169" type="line"/>
      <point x="19" y="169" type="line"/>
    </contour>
    <contour>
      <point x="169" y="113" type="line"/>
      <point x="19" y="113" type="line"/>
      <point x="19" y="131" type="line"/>
      <point x="169" y="131" type="line"/>
      <point x="169" y="122" type="line"/>
    </contour>
    <contour>
      <point x="19" y="56" type="line"/>
      <point x="19" y="75" type="line"/>
      <point x="169" y="75" type="line"/>
      <point x="169" y="56" type="line"/>
    </contour>
  </outline>
</glyph>
<glyph name="clippy" format="2">
  <advance width="300"/>
  <unicode hex="EAC0"/>
  <note>
clippy
</note>
  <outline>
    <contour>
      <point x="131" y="19" type="line"/>
      <point x="66" y="19" type="line"/>
      <point x="56" y="28" type="line"/>
      <point x="56" y="216" type="line"/>
      <point x="66" y="225" type="line"/>
      <point x="93" y="225" type="line"/>
      <point x="93" y="244" type="line"/>
      <point x="113" y="244" type="line"/>
      <point x="113" y="259"/>
      <point x="134" y="281"/>
      <point x="166" y="281"/>
      <point x="188" y="259"/>
      <point x="188" y="244" type="qcurve"/>
      <point x="206" y="244" type="line"/>
      <point x="206" y="225" type="line"/>
      <point x="234" y="225" type="line"/>
      <point x="244" y="216" type="line"/>
      <point x="244" y="169" type="line"/>
      <point x="225" y="169" type="line"/>
      <point x="225" y="206" type="line"/>
      <point x="75" y="206" type="line"/>
      <point x="75" y="38" type="line"/>
      <point x="131" y="38" type="line"/>
    </contour>
    <contour>
      <point x="130" y="242"/>
      <point x="135" y="232"/>
      <point x="143" y="226"/>
      <point x="154" y="225"/>
      <point x="164" y="230"/>
      <point x="169" y="240"/>
      <point x="169" y="250"/>
      <point x="162" y="260"/>
      <point x="152" y="264"/>
      <point x="141" y="262"/>
      <point x="132" y="253"/>
      <point x="131" y="248" type="qcurve" smooth="yes"/>
    </contour>
    <contour>
      <point x="277" y="57" type="line"/>
      <point x="241" y="21" type="line"/>
      <point x="228" y="21" type="line"/>
      <point x="191" y="57" type="line"/>
      <point x="205" y="70" type="line"/>
      <point x="225" y="50" type="line"/>
      <point x="225" y="150" type="line"/>
      <point x="244" y="150" type="line"/>
      <point x="244" y="50" type="line"/>
      <point x="264" y="70" type="line"/>
    </contour>
    <contour>
      <point x="117" y="112" type="line"/>
      <point x="130" y="99" type="line"/>
      <point x="150" y="119" type="line"/>
      <point x="150" y="19" type="line"/>
      <point x="169" y="19" type="line"/>
      <point x="169" y="119" type="line"/>
      <point x="189" y="99" type="line"/>
      <point x="203" y="112" type="line"/>
      <point x="166" y="148" type="line"/>
      <point x="153" y="148" type="line"/>
    </contour>
  </outline>
</glyph>
<glyph name="close-all" format="2">
  <advance width="300"/>
  <unicode hex="EAC1"/>
  <note>
close-all
</note>
  <outline>
    <contour>
      <point x="135" y="122" type="line"/>
      <point x="162" y="95" type="line"/>
      <point x="148" y="82" type="line"/>
      <point x="122" y="109" type="line"/>
      <point x="95" y="82" type="line"/>
      <point x="82" y="95" type="line"/>
      <point x="109" y="122" type="line"/>
      <point x="82" y="148" type="line"/>
      <point x="95" y="162" type="line"/>
      <point x="122" y="135" type="line"/>
      <point x="148" y="162" type="line"/>
      <point x="162" y="148" type="line"/>
    </contour>
    <contour>
      <point x="94" y="206" type="line"/>
      <point x="56" y="206" type="line"/>
      <point x="38" y="188" type="line"/>
      <point x="38" y="56" type="line"/>
      <point x="56" y="38" type="line"/>
      <point x="188" y="38" type="line"/>
      <point x="206" y="56" type="line"/>
      <point x="206" y="94" type="line"/>
      <point x="244" y="94" type="line"/>
      <point x="263" y="113" type="line"/>
      <point x="263" y="244" type="line"/>
      <point x="244" y="263" type="line"/>
      <point x="113" y="263" type="line"/>
      <point x="94" y="244" type="line"/>
    </contour>
    <contour>
      <point x="113" y="244" type="line"/>
      <point x="244" y="244" type="line"/>
      <point x="244" y="113" type="line"/>
      <point x="206" y="113" type="line"/>
      <point x="206" y="188" type="line"/>
      <point x="188" y="206" type="line"/>
      <point x="113" y="206" type="line"/>
    </contour>
    <contour>
      <point x="188" y="56" type="line"/>
      <point x="56" y="56" type="line"/>
      <point x="56" y="188" type="line"/>
      <point x="188" y="188" type="line"/>
    </contour>
  </outline>
</glyph>
<glyph name="cloud-download" format="2">
  <advance width="300"/>
  <unicode hex="EAC2"/>
  <note>
cloud-download
</note>
  <outline>
    <contour>
      <point x="221" y="209"/>
      <point x="190" y="240"/>
      <point x="147" y="246"/>
      <point x="109" y="224"/>
      <point x="100" y="204" type="qcurve"/>
      <point x="86" y="208"/>
      <point x="72" y="205" type="qcurve" smooth="yes"/>
      <point x="55" y="202"/>
      <point x="28" y="179"/>
      <point x="17" y="145"/>
      <point x="24" y="110"/>
      <point x="36" y="97" type="qcurve" smooth="yes"/>
      <point x="45" y="86"/>
      <point x="71" y="75"/>
      <point x="85" y="75" type="qcurve" smooth="yes"/>
      <point x="94" y="75" type="line"/>
      <point x="94" y="94" type="line"/>
      <point x="85" y="94" type="line" smooth="yes"/>
      <point x="71" y="94"/>
      <point x="47" y="110"/>
      <point x="36" y="136"/>
      <point x="42" y="164"/>
      <point x="52" y="174" type="qcurve" smooth="yes"/>
      <point x="65" y="188"/>
      <point x="85" y="188" type="qcurve"/>
      <point x="90" y="187"/>
      <point x="95" y="186" type="qcurve" smooth="yes"/>
      <point x="111" y="183" type="line"/>
      <point x="117" y="197" type="line" smooth="yes"/>
      <point x="123" y="211"/>
      <point x="150" y="227"/>
      <point x="181" y="222"/>
      <point x="204" y="200"/>
      <point x="206" y="185" type="qcurve" smooth="yes"/>
      <point x="208" y="169" type="line"/>
      <point x="225" y="169" type="line" smooth="yes"/>
      <point x="240" y="168"/>
      <point x="261" y="146"/>
      <point x="261" y="116"/>
      <point x="240" y="94"/>
      <point x="225" y="94" type="qcurve"/>
      <point x="225" y="75" type="line"/>
      <point x="248" y="75"/>
      <point x="281" y="108"/>
      <point x="281" y="155"/>
      <point x="248" y="187"/>
      <point x="225" y="188" type="qcurve" smooth="yes"/>
      <point x="224" y="188" type="line"/>
    </contour>
    <contour>
      <point x="113" y="78" type="line"/>
      <point x="153" y="38" type="line"/>
      <point x="166" y="38" type="line"/>
      <point x="206" y="78" type="line"/>
      <point x="193" y="91" type="line"/>
      <point x="169" y="68" type="line"/>
      <point x="169" y="169" type="line"/>
      <point x="150" y="169" type="line"/>
      <point x="150" y="67" type="line"/>
      <point x="126" y="91" type="line"/>
    </contour>
  </outline>
</glyph>
<glyph name="cloud-upload" format="2">
  <advance width="300"/>
  <unicode hex="EAC3"/>
  <note>
cloud-upload
</note>
  <outline>
    <contour>
      <point x="224" y="187" type="line" smooth="yes"/>
      <point x="221" y="209"/>
      <point x="190" y="240"/>
      <point x="147" y="246"/>
      <point x="109" y="224"/>
      <point x="100" y="204" type="qcurve"/>
      <point x="86" y="208"/>
      <point x="58" y="203"/>
      <point x="35" y="186"/>
      <point x="28" y="174" type="qcurve" smooth="yes"/>
      <point x="17" y="156"/>
      <point x="21" y="113"/>
      <point x="36" y="97" type="qcurve" smooth="yes"/>
      <point x="45" y="86"/>
      <point x="71" y="75"/>
      <point x="85" y="75" type="qcurve" smooth="yes"/>
      <point x="132" y="75" type="line"/>
      <point x="132" y="94" type="line"/>
      <point x="85" y="94" type="line" smooth="yes"/>
      <point x="71" y="94"/>
      <point x="47" y="110"/>
      <point x="36" y="136"/>
      <point x="42" y="164"/>
      <point x="52" y="174" type="qcurve" smooth="yes"/>
      <point x="65" y="187"/>
      <point x="85" y="188" type="qcurve"/>
      <point x="90" y="187"/>
      <point x="95" y="186" type="qcurve" smooth="yes"/>
      <point x="111" y="183" type="line"/>
      <point x="117" y="197" type="line" smooth="yes"/>
      <point x="123" y="211"/>
      <point x="150" y="227"/>
      <point x="181" y="222"/>
      <point x="204" y="200"/>
      <point x="206" y="185" type="qcurve" smooth="yes"/>
      <point x="208" y="169" type="line"/>
      <point x="225" y="169" type="line" smooth="yes"/>
      <point x="240" y="168"/>
      <point x="261" y="146"/>
      <point x="261" y="116"/>
      <point x="240" y="94"/>
      <point x="225" y="94" type="qcurve" smooth="yes"/>
      <point x="188" y="94" type="line"/>
      <point x="188" y="75" type="line"/>
      <point x="225" y="75" type="line" smooth="yes"/>
      <point x="248" y="75"/>
      <point x="281" y="108"/>
      <point x="281" y="155"/>
      <point x="248" y="187"/>
      <point x="225" y="188" type="qcurve" smooth="yes"/>
      <point x="224" y="188" type="line"/>
    </contour>
    <contour>
      <point x="206" y="129" type="line"/>
      <point x="166" y="169" type="line"/>
      <point x="153" y="169" type="line"/>
      <point x="113" y="129" type="line"/>
      <point x="126" y="115" type="line"/>
      <point x="150" y="139" type="line"/>
      <point x="150" y="38" type="line"/>
      <point x="168" y="38" type="line"/>
      <point x="168" y="140" type="line"/>
      <point x="193" y="115" type="line"/>
    </contour>
  </outline>
</glyph>
<glyph name="code" format="2">
  <advance width="300"/>
  <unicode hex="EAC4"/>
  <note>
code
</note>
  <outline>
    <contour>
      <point x="75" y="209" type="line"/>
      <point x="19" y="152" type="line"/>
      <point x="19" y="139" type="line"/>
      <point x="75" y="83" type="line"/>
      <point x="88" y="96" type="line"/>
      <point x="39" y="146" type="line"/>
      <point x="88" y="195" type="line"/>
    </contour>
    <contour>
      <point x="276" y="152" type="line"/>
      <point x="276" y="139" type="line"/>
      <point x="220" y="83" type="line"/>
      <point x="206" y="96" type="line"/>
      <point x="256" y="146" type="line"/>
      <point x="206" y="195" type="line"/>
      <point x="220" y="209" type="line"/>
    </contour>
    <contour>
      <point x="186" y="244" type="line"/>
      <point x="203" y="235" type="line"/>
      <point x="109" y="48" type="line"/>
      <point x="92" y="56" type="line"/>
    </contour>
  </outline>
</glyph>
<glyph name="color-mode" format="2">
  <advance width="300"/>
  <unicode hex="EAC6"/>
  <note>
color-mode
</note>
  <outline>
    <contour>
      <point x="186" y="281"/>
      <point x="246" y="246"/>
      <point x="281" y="186"/>
      <point x="281" y="114"/>
      <point x="246" y="54"/>
      <point x="186" y="19"/>
      <point x="114" y="19"/>
      <point x="54" y="54"/>
      <point x="19" y="114"/>
      <point x="19" y="186"/>
      <point x="54" y="246"/>
      <point x="114" y="281"/>
      <point x="150" y="281" type="qcurve" smooth="yes"/>
    </contour>
    <contour>
      <point x="181" y="38"/>
      <point x="232" y="68"/>
      <point x="263" y="119"/>
      <point x="263" y="181"/>
      <point x="232" y="232"/>
      <point x="181" y="263"/>
      <point x="150" y="263" type="qcurve"/>
      <point x="150" y="38" type="line"/>
    </contour>
  </outline>
</glyph>
<glyph name="comment-discussion" format="2">
  <advance width="300"/>
  <unicode hex="EAC7"/>
  <note>
comment-discussion
</note>
  <outline>
    <contour>
      <point x="75" y="122" type="line"/>
      <point x="66" y="131" type="line"/>
      <point x="38" y="131" type="line"/>
      <point x="38" y="263" type="line"/>
      <point x="244" y="263" type="line"/>
      <point x="244" y="188" type="line"/>
      <point x="263" y="188" type="line"/>
      <point x="263" y="272" type="line"/>
      <point x="253" y="281" type="line"/>
      <point x="28" y="281" type="line"/>
      <point x="19" y="272" type="line"/>
      <point x="19" y="122" type="line"/>
      <point x="28" y="113" type="line"/>
      <point x="56" y="113" type="line"/>
      <point x="56" y="66" type="line"/>
      <point x="72" y="59" type="line"/>
      <point x="94" y="80" type="line"/>
      <point x="94" y="107" type="line"/>
      <point x="75" y="88" type="line"/>
    </contour>
    <contour>
      <point x="122" y="56" type="line"/>
      <point x="113" y="66" type="line"/>
      <point x="113" y="159" type="line"/>
      <point x="122" y="169" type="line"/>
      <point x="272" y="169" type="line"/>
      <point x="281" y="159" type="line"/>
      <point x="281" y="66" type="line"/>
      <point x="272" y="56" type="line"/>
      <point x="244" y="56" type="line"/>
      <point x="244" y="28" type="line"/>
      <point x="228" y="22" type="line"/>
      <point x="193" y="56" type="line"/>
    </contour>
    <contour>
      <point x="203" y="72" type="line"/>
      <point x="225" y="51" type="line"/>
      <point x="225" y="66" type="line"/>
      <point x="234" y="75" type="line"/>
      <point x="263" y="75" type="line"/>
      <point x="263" y="150" type="line"/>
      <point x="131" y="150" type="line"/>
      <point x="131" y="75" type="line"/>
      <point x="197" y="75" type="line"/>
    </contour>
  </outline>
</glyph>
<glyph name="credit-card" format="2">
  <advance width="300"/>
  <unicode hex="EAC9"/>
  <note>
credit-card
</note>
  <outline>
    <contour>
      <point x="38" y="206" type="line"/>
      <point x="38" y="188" type="line"/>
      <point x="263" y="188" type="line"/>
      <point x="263" y="206" type="line"/>
    </contour>
    <contour>
      <point x="38" y="75" type="line"/>
      <point x="263" y="75" type="line"/>
      <point x="263" y="169" type="line"/>
      <point x="38" y="169" type="line"/>
    </contour>
    <contour>
      <point x="270" y="225"/>
      <point x="281" y="214"/>
      <point x="281" y="206" type="qcurve" smooth="yes"/>
      <point x="281" y="75" type="line" smooth="yes"/>
      <point x="281" y="67"/>
      <point x="270" y="56"/>
      <point x="263" y="56" type="qcurve" smooth="yes"/>
      <point x="38" y="56" type="line" smooth="yes"/>
      <point x="30" y="56"/>
      <point x="19" y="67"/>
      <point x="19" y="75" type="qcurve" smooth="yes"/>
      <point x="19" y="206" type="line" smooth="yes"/>
      <point x="19" y="214"/>
      <point x="30" y="225"/>
      <point x="38" y="225" type="qcurve" smooth="yes"/>
      <point x="263" y="225" type="line" smooth="yes"/>
    </contour>
    <contour>
      <point x="206" y="94" type="line"/>
      <point x="244" y="94" type="line"/>
      <point x="244" y="113" type="line"/>
      <point x="206" y="113" type="line"/>
    </contour>
  </outline>
</glyph>
<glyph name="dash" format="2">
  <advance width="300"/>
  <unicode hex="EACC"/>
  <note>
dash
</note>
  <outline>
    <contour>
      <point x="94" y="131" type="line"/>
      <point x="206" y="131" type="line"/>
      <point x="206" y="150" type="line"/>
      <point x="94" y="150" type="line"/>
    </contour>
  </outline>
</glyph>
<glyph name="dashboard" format="2">
  <advance width="300"/>
  <unicode hex="EACD"/>
  <note>
dashboard
</note>
  <outline>
    <contour>
      <point x="45" y="242"/>
      <point x="17" y="184"/>
      <point x="21" y="119"/>
      <point x="58" y="64"/>
      <point x="116" y="36"/>
      <point x="181" y="40"/>
      <point x="235" y="76"/>
      <point x="264" y="135"/>
      <point x="260" y="200"/>
      <point x="224" y="254"/>
      <point x="165" y="283"/>
      <point x="100" y="279"/>
      <point x="73" y="261" type="qcurve" smooth="yes"/>
    </contour>
    <contour>
      <point x="63" y="87"/>
      <point x="39" y="129"/>
      <point x="36" y="176"/>
      <point x="55" y="221"/>
      <point x="91" y="253"/>
      <point x="137" y="265"/>
      <point x="185" y="256"/>
      <point x="222" y="226"/>
      <point x="244" y="184"/>
      <point x="244" y="159" type="qcurve" smooth="yes"/>
      <point x="244" y="131"/>
      <point x="216" y="84"/>
      <point x="169" y="56"/>
      <point x="141" y="56" type="qcurve" smooth="yes"/>
      <point x="109" y="56"/>
      <point x="83" y="74" type="qcurve" smooth="yes"/>
    </contour>
    <contour>
      <point x="153" y="185" type="line"/>
      <point x="143" y="189"/>
      <point x="123" y="184"/>
      <point x="111" y="167"/>
      <point x="113" y="146"/>
      <point x="128" y="132"/>
      <point x="148" y="130"/>
      <point x="165" y="142"/>
      <point x="170" y="162"/>
      <point x="166" y="171" type="qcurve"/>
      <point x="206" y="212" type="line"/>
      <point x="193" y="225" type="line"/>
    </contour>
    <contour>
      <point x="132" y="154"/>
      <point x="131" y="161"/>
      <point x="135" y="168"/>
      <point x="143" y="169"/>
      <point x="150" y="164"/>
      <point x="150" y="153"/>
      <point x="140" y="149"/>
      <point x="135" y="152" type="qcurve" smooth="yes"/>
    </contour>
    <contour>
      <point x="216" y="197" type="line"/>
      <point x="226" y="177"/>
      <point x="223" y="131"/>
      <point x="211" y="112" type="qcurve"/>
      <point x="197" y="126" type="line"/>
      <point x="206" y="141"/>
      <point x="206" y="159" type="qcurve" smooth="yes"/>
      <point x="206" y="172"/>
      <point x="201" y="183" type="qcurve"/>
      <point x="216" y="197" type="line"/>
    </contour>
    <contour>
      <point x="178" y="235" type="line"/>
      <point x="152" y="248"/>
      <point x="96" y="236"/>
      <point x="58" y="193"/>
      <point x="55" y="136"/>
      <point x="71" y="112" type="qcurve"/>
      <point x="84" y="126" type="line"/>
      <point x="75" y="141"/>
      <point x="75" y="177"/>
      <point x="93" y="207"/>
      <point x="123" y="225"/>
      <point x="141" y="225" type="qcurve" smooth="yes"/>
      <point x="153" y="225"/>
      <point x="164" y="220" type="qcurve"/>
    </contour>
  </outline>
</glyph>
<glyph name="database" format="2">
  <advance width="300"/>
  <unicode hex="EACE"/>
  <note>
database
</note>
  <outline>
    <contour>
      <point x="243" y="232" type="line"/>
      <point x="244" y="232" type="line"/>
      <point x="244" y="66" type="line"/>
      <point x="243" y="59" type="line" smooth="yes"/>
      <point x="239" y="42"/>
      <point x="186" y="19"/>
      <point x="114" y="19"/>
      <point x="61" y="42"/>
      <point x="57" y="59" type="qcurve" smooth="yes"/>
      <point x="56" y="66" type="line"/>
      <point x="56" y="232" type="line"/>
      <point x="57" y="232" type="line"/>
      <point x="56" y="234" type="line"/>
      <point x="56" y="247"/>
      <point x="81" y="269"/>
      <point x="125" y="281"/>
      <point x="175" y="281"/>
      <point x="219" y="269"/>
      <point x="244" y="247"/>
      <point x="244" y="234" type="qcurve"/>
    </contour>
    <contour>
      <point x="129" y="262"/>
      <point x="110" y="257" type="qcurve" smooth="yes"/>
      <point x="94" y="253"/>
      <point x="75" y="239"/>
      <point x="75" y="229"/>
      <point x="94" y="216"/>
      <point x="110" y="212" type="qcurve" smooth="yes"/>
      <point x="129" y="207"/>
      <point x="171" y="207"/>
      <point x="190" y="212" type="qcurve" smooth="yes"/>
      <point x="206" y="216"/>
      <point x="225" y="229"/>
      <point x="225" y="239"/>
      <point x="206" y="253"/>
      <point x="190" y="257" type="qcurve" smooth="yes"/>
      <point x="171" y="262"/>
      <point x="150" y="262" type="qcurve" smooth="yes"/>
    </contour>
    <contour>
      <point x="225" y="207" type="line"/>
      <point x="190" y="186"/>
      <point x="150" y="187" type="qcurve" smooth="yes"/>
      <point x="110" y="186"/>
      <point x="75" y="206" type="qcurve"/>
      <point x="75" y="66" type="line"/>
      <point x="76" y="63" type="line" smooth="yes"/>
      <point x="77" y="58"/>
      <point x="96" y="46"/>
      <point x="111" y="42" type="qcurve" smooth="yes"/>
      <point x="129" y="37"/>
      <point x="171" y="37"/>
      <point x="189" y="42" type="qcurve" smooth="yes"/>
      <point x="204" y="46"/>
      <point x="223" y="58"/>
      <point x="224" y="63" type="qcurve" smooth="yes"/>
      <point x="225" y="66" type="line"/>
    </contour>
  </outline>
</glyph>
<glyph name="debug-continue" format="2">
  <advance width="300"/>
  <unicode hex="EACF"/>
  <note>
debug-continue
</note>
  <outline>
    <contour>
      <point x="47" y="38" type="line"/>
      <point x="75" y="38" type="line"/>
      <point x="75" y="263" type="line"/>
      <point x="47" y="263" type="line"/>
    </contour>
    <contour>
      <point x="271" y="161" type="line"/>
      <point x="271" y="139" type="line"/>
      <point x="139" y="45" type="line"/>
      <point x="117" y="56" type="line"/>
      <point x="117" y="244" type="line"/>
      <point x="139" y="255" type="line"/>
    </contour>
    <contour>
      <point x="145" y="216" type="line"/>
      <point x="145" y="84" type="line"/>
      <point x="238" y="150" type="line"/>
    </contour>
  </outline>
</glyph>
<glyph name="debug-disconnect" format="2">
  <advance width="300"/>
  <unicode hex="EAD0"/>
  <note>
debug-disconnect
</note>
  <outline>
    <contour>
      <point x="262" y="208"/>
      <point x="254" y="188" type="qcurve" smooth="yes"/>
      <point x="250" y="177"/>
      <point x="241" y="169" type="qcurve" smooth="yes"/>
      <point x="212" y="140" type="line"/>
      <point x="131" y="221" type="line"/>
      <point x="160" y="250" type="line" smooth="yes"/>
      <point x="168" y="259"/>
      <point x="179" y="263" type="qcurve" smooth="yes"/>
      <point x="199" y="271"/>
      <point x="219" y="264" type="qcurve" smooth="yes"/>
      <point x="228" y="262"/>
      <point x="235" y="256" type="qcurve"/>
      <point x="261" y="281" type="line"/>
      <point x="272" y="270" type="line"/>
      <point x="247" y="244" type="line"/>
      <point x="252" y="237"/>
      <point x="255" y="228" type="qcurve" smooth="yes"/>
    </contour>
    <contour>
      <point x="245" y="210"/>
      <point x="239" y="226" type="qcurve"/>
      <point x="235" y="233"/>
      <point x="224" y="244"/>
      <point x="217" y="248" type="qcurve"/>
      <point x="201" y="254"/>
      <point x="185" y="248" type="qcurve" smooth="yes"/>
      <point x="178" y="245"/>
      <point x="172" y="239" type="qcurve" smooth="yes"/>
      <point x="154" y="221" type="line"/>
      <point x="212" y="163" type="line"/>
      <point x="230" y="181" type="line" smooth="yes"/>
      <point x="236" y="187"/>
      <point x="239" y="194" type="qcurve" smooth="yes"/>
    </contour>
    <contour>
      <point x="160" y="89" type="line"/>
      <point x="131" y="60" type="line" smooth="yes"/>
      <point x="123" y="52"/>
      <point x="102" y="43"/>
      <point x="81" y="43"/>
      <point x="63" y="49"/>
      <point x="56" y="54" type="qcurve"/>
      <point x="30" y="29" type="line"/>
      <point x="19" y="41" type="line"/>
      <point x="44" y="66" type="line"/>
      <point x="38" y="74"/>
      <point x="33" y="91"/>
      <point x="33" y="112"/>
      <point x="41" y="133"/>
      <point x="50" y="141" type="qcurve" smooth="yes"/>
      <point x="79" y="170" type="line"/>
      <point x="90" y="159" type="line"/>
      <point x="118" y="188" type="line"/>
      <point x="130" y="176" type="line"/>
      <point x="102" y="147" type="line"/>
      <point x="137" y="112" type="line"/>
      <point x="164" y="141" type="line"/>
      <point x="176" y="129" type="line"/>
      <point x="148" y="100" type="line"/>
    </contour>
    <contour>
      <point x="113" y="66"/>
      <point x="119" y="71" type="qcurve" smooth="yes"/>
      <point x="137" y="89" type="line"/>
      <point x="79" y="147" type="line"/>
      <point x="61" y="129" type="line" smooth="yes"/>
      <point x="49" y="117"/>
      <point x="49" y="100" type="qcurve" smooth="yes"/>
      <point x="49" y="92"/>
      <point x="55" y="77"/>
      <point x="67" y="66"/>
      <point x="82" y="59"/>
      <point x="98" y="59"/>
      <point x="106" y="63" type="qcurve" smooth="yes"/>
    </contour>
  </outline>
</glyph>
<glyph name="debug-pause" format="2">
  <advance width="300"/>
  <unicode hex="EAD1"/>
  <note>
debug-pause
</note>
  <outline>
    <contour>
      <point x="84" y="56" type="line"/>
      <point x="113" y="56" type="line"/>
      <point x="113" y="244" type="line"/>
      <point x="84" y="244" type="line"/>
    </contour>
    <contour>
      <point x="188" y="244" type="line"/>
      <point x="188" y="56" type="line"/>
      <point x="216" y="56" type="line"/>
      <point x="216" y="244" type="line"/>
    </contour>
  </outline>
</glyph>
<glyph name="debug-restart" format="2">
  <advance width="300"/>
  <unicode hex="EAD2"/>
  <note>
debug-restart
</note>
  <outline>
    <contour>
      <point x="239" y="179"/>
      <point x="204" y="224"/>
      <point x="149" y="239"/>
      <point x="96" y="217"/>
      <point x="82" y="192" type="qcurve"/>
      <point x="117" y="192" type="line"/>
      <point x="117" y="164" type="line"/>
      <point x="52" y="164" type="line"/>
      <point x="38" y="178" type="line"/>
      <point x="38" y="253" type="line"/>
      <point x="66" y="253" type="line"/>
      <point x="66" y="219" type="line"/>
      <point x="88" y="247"/>
      <point x="157" y="268"/>
      <point x="225" y="245"/>
      <point x="267" y="186"/>
      <point x="267" y="150" type="qcurve" smooth="yes"/>
      <point x="267" y="124"/>
      <point x="244" y="77"/>
      <point x="203" y="45"/>
      <point x="152" y="35"/>
      <point x="102" y="48"/>
      <point x="62" y="81"/>
      <point x="52" y="105" type="qcurve"/>
      <point x="78" y="116" type="line"/>
      <point x="90" y="88"/>
      <point x="143" y="61"/>
      <point x="201" y="74"/>
      <point x="239" y="120"/>
      <point x="239" y="150" type="qcurve" smooth="yes"/>
    </contour>
  </outline>
</glyph>
<glyph name="debug-start" format="2">
  <advance width="300"/>
  <unicode hex="EAD3"/>
  <note>
debug-start
</note>
  <outline>
    <contour>
      <point x="80" y="44" type="line"/>
      <point x="102" y="32" type="line"/>
      <point x="252" y="132" type="line"/>
      <point x="252" y="155" type="line"/>
      <point x="102" y="255" type="line"/>
      <point x="80" y="244" type="line"/>
    </contour>
    <contour>
      <point x="218" y="144" type="line"/>
      <point x="108" y="70" type="line"/>
      <point x="108" y="217" type="line"/>
    </contour>
  </outline>
</glyph>
<glyph name="debug-step-into" format="2">
  <advance width="300"/>
  <unicode hex="EAD4"/>
  <note>
debug-step-into
</note>
  <outline>
    <contour>
      <point x="140" y="121" type="line"/>
      <point x="67" y="194" type="line"/>
      <point x="87" y="214" type="line"/>
      <point x="136" y="165" type="line"/>
      <point x="136" y="281" type="line"/>
      <point x="164" y="281" type="line"/>
      <point x="164" y="165" type="line"/>
      <point x="213" y="214" type="line"/>
      <point x="233" y="194" type="line"/>
      <point x="160" y="121" type="line"/>
      <point x="150" y="121" type="line"/>
    </contour>
    <contour>
      <point x="187" y="72"/>
      <point x="165" y="94"/>
      <point x="134" y="94"/>
      <point x="112" y="72"/>
      <point x="112" y="40"/>
      <point x="134" y="19"/>
      <point x="165" y="19"/>
      <point x="187" y="40"/>
      <point x="187" y="56" type="qcurve" smooth="yes"/>
    </contour>
  </outline>
</glyph>
<glyph name="debug-step-out" format="2">
  <advance width="300"/>
  <unicode hex="EAD5"/>
  <note>
debug-step-out
</note>
  <outline>
    <contour>
      <point x="160" y="281" type="line"/>
      <point x="233" y="208" type="line"/>
      <point x="213" y="188" type="line"/>
      <point x="164" y="237" type="line"/>
      <point x="164" y="121" type="line"/>
      <point x="136" y="121" type="line"/>
      <point x="136" y="237" type="line"/>
      <point x="87" y="188" type="line"/>
      <point x="67" y="208" type="line"/>
      <point x="140" y="281" type="line"/>
      <point x="150" y="281" type="line"/>
    </contour>
    <contour>
      <point x="187" y="72"/>
      <point x="165" y="94"/>
      <point x="134" y="94"/>
      <point x="112" y="72"/>
      <point x="112" y="40"/>
      <point x="134" y="19"/>
      <point x="165" y="19"/>
      <point x="187" y="40"/>
      <point x="187" y="56" type="qcurve" smooth="yes"/>
    </contour>
  </outline>
</glyph>
<glyph name="debug-step-over" format="2">
  <advance width="300"/>
  <unicode hex="EAD6"/>
  <note>
debug-step-over
</note>
  <outline>
    <contour>
      <point x="267" y="182" type="line"/>
      <point x="249" y="164" type="line"/>
      <point x="171" y="164" type="line"/>
      <point x="171" y="192" type="line"/>
      <point x="224" y="192" type="line"/>
      <point x="213" y="211"/>
      <point x="172" y="233"/>
      <point x="126" y="233"/>
      <point x="87" y="213"/>
      <point x="63" y="179"/>
      <point x="61" y="159" type="qcurve" smooth="yes"/>
      <point x="61" y="155" type="line"/>
      <point x="32" y="155" type="line"/>
      <point x="33" y="160" type="line" smooth="yes"/>
      <point x="35" y="188"/>
      <point x="67" y="234"/>
      <point x="119" y="261"/>
      <point x="148" y="261" type="qcurve" smooth="yes"/>
      <point x="175" y="261"/>
      <point x="223" y="239"/>
      <point x="239" y="220" type="qcurve"/>
      <point x="239" y="267" type="line"/>
      <point x="267" y="267" type="line"/>
      <point x="267" y="192" type="line"/>
    </contour>
    <contour>
      <point x="150" y="37" type="line"/>
      <point x="134" y="37"/>
      <point x="113" y="59"/>
      <point x="113" y="91"/>
      <point x="134" y="113"/>
      <point x="166" y="112"/>
      <point x="188" y="91"/>
      <point x="188" y="59"/>
      <point x="166" y="38"/>
      <point x="150" y="38" type="qcurve"/>
    </contour>
  </outline>
</glyph>
<glyph name="debug-stop" format="2">
  <advance width="300"/>
  <unicode hex="EAD7"/>
  <note>
debug-stop
</note>
  <outline>
    <contour>
      <point x="263" y="263" type="line"/>
      <point x="263" y="38" type="line"/>
      <point x="38" y="38" type="line"/>
      <point x="38" y="263" type="line"/>
    </contour>
    <contour>
      <point x="239" y="239" type="line"/>
      <point x="61" y="239" type="line"/>
      <point x="61" y="61" type="line"/>
      <point x="239" y="61" type="line"/>
    </contour>
  </outline>
</glyph>
<glyph name="debug" format="2">
  <advance width="300"/>
  <unicode hex="EAD8"/>
  <note>
debug
</note>
  <outline>
    <contour>
      <point x="43" y="140" type="line"/>
      <point x="43" y="139" type="line"/>
    </contour>
    <contour>
      <point x="96" y="93" type="line"/>
      <point x="109" y="80" type="line"/>
      <point x="148" y="120" type="line"/>
      <point x="188" y="79" type="line"/>
      <point x="201" y="92" type="line"/>
      <point x="163" y="130" type="line"/>
      <point x="201" y="168" type="line"/>
      <point x="188" y="181" type="line"/>
      <point x="149" y="141" type="line"/>
      <point x="109" y="181" type="line"/>
      <point x="96" y="169" type="line"/>
      <point x="134" y="131" type="line"/>
    </contour>
    <contour>
      <point x="212" y="254"/>
      <point x="195" y="283"/>
      <point x="166" y="300"/>
      <point x="132" y="300"/>
      <point x="103" y="283"/>
      <point x="87" y="254"/>
      <point x="87" y="237" type="qcurve" smooth="yes"/>
      <point x="87" y="225" type="line"/>
      <point x="69" y="225" type="line"/>
      <point x="33" y="261" type="line"/>
      <point x="20" y="248" type="line"/>
      <point x="55" y="213" type="line"/>
      <point x="55" y="212" type="line"/>
      <point x="44" y="184"/>
      <point x="44" y="152" type="qcurve" smooth="yes"/>
      <point x="44" y="138" type="line"/>
      <point x="0" y="138" type="line"/>
      <point x="0" y="120" type="line"/>
      <point x="46" y="120" type="line"/>
      <point x="47" y="120" type="line"/>
      <point x="52" y="90"/>
      <point x="67" y="65" type="qcurve"/>
      <point x="68" y="64" type="line"/>
      <point x="26" y="22" type="line"/>
      <point x="38" y="10" type="line"/>
      <point x="79" y="50" type="line"/>
      <point x="80" y="48" type="line"/>
      <point x="94" y="32"/>
      <point x="130" y="14"/>
      <point x="168" y="14"/>
      <point x="204" y="32"/>
      <point x="218" y="47" type="qcurve"/>
      <point x="219" y="49" type="line"/>
      <point x="260" y="8" type="line"/>
      <point x="273" y="20" type="line"/>
      <point x="230" y="63" type="line"/>
      <point x="231" y="64" type="line"/>
      <point x="246" y="89"/>
      <point x="252" y="120" type="qcurve"/>
      <point x="252" y="120" type="line"/>
      <point x="298" y="120" type="line"/>
      <point x="298" y="138" type="line"/>
      <point x="254" y="138" type="line"/>
      <point x="255" y="152" type="line" smooth="yes"/>
      <point x="255" y="183"/>
      <point x="243" y="213" type="qcurve"/>
      <point x="243" y="214" type="line"/>
      <point x="277" y="248" type="line"/>
      <point x="264" y="261" type="line"/>
      <point x="228" y="225" type="line"/>
      <point x="212" y="225" type="line"/>
      <point x="212" y="237" type="line" smooth="yes"/>
    </contour>
    <contour>
      <point x="105" y="256"/>
      <point x="131" y="282"/>
      <point x="168" y="282"/>
      <point x="194" y="256"/>
      <point x="194" y="237" type="qcurve" smooth="yes"/>
      <point x="194" y="225" type="line"/>
      <point x="105" y="225" type="line"/>
      <point x="105" y="237" type="line" smooth="yes"/>
    </contour>
    <contour>
      <point x="237" y="181"/>
      <point x="237" y="152" type="qcurve" smooth="yes"/>
      <point x="237" y="127"/>
      <point x="222" y="82"/>
      <point x="197" y="49"/>
      <point x="166" y="32"/>
      <point x="132" y="32"/>
      <point x="101" y="49"/>
      <point x="76" y="82"/>
      <point x="62" y="127"/>
      <point x="62" y="152" type="qcurve" smooth="yes"/>
      <point x="62" y="180"/>
      <point x="71" y="206" type="qcurve"/>
      <point x="72" y="207" type="line"/>
      <point x="227" y="207" type="line"/>
      <point x="227" y="206" type="line"/>
    </contour>
  </outline>
</glyph>
<glyph name="device-camera-video" format="2">
  <advance width="300"/>
  <unicode hex="EAD9"/>
  <note>
device-camera-video
</note>
  <outline>
    <contour>
      <point x="281" y="203" type="line"/>
      <point x="281" y="96" type="line"/>
      <point x="267" y="87" type="line"/>
      <point x="206" y="122" type="line"/>
      <point x="206" y="84" type="line"/>
      <point x="197" y="75" type="line"/>
      <point x="28" y="75" type="line"/>
      <point x="19" y="84" type="line"/>
      <point x="19" y="216" type="line"/>
      <point x="28" y="225" type="line"/>
      <point x="197" y="225" type="line"/>
      <point x="206" y="216" type="line"/>
      <point x="206" y="176" type="line"/>
      <point x="267" y="211" type="line"/>
    </contour>
    <contour>
      <point x="188" y="206" type="line"/>
      <point x="38" y="206" type="line"/>
      <point x="38" y="94" type="line"/>
      <point x="188" y="94" type="line"/>
    </contour>
    <contour>
      <point x="263" y="188" type="line"/>
      <point x="206" y="154" type="line"/>
      <point x="206" y="144" type="line"/>
      <point x="263" y="113" type="line"/>
    </contour>
  </outline>
</glyph>
<glyph name="device-camera" format="2">
  <advance width="300"/>
  <unicode hex="EADA"/>
  <note>
device-camera
</note>
  <outline>
    <contour>
      <point x="185" y="260" type="line"/>
      <point x="178" y="263" type="line"/>
      <point x="122" y="263" type="line"/>
      <point x="115" y="260" type="line"/>
      <point x="99" y="244" type="line"/>
      <point x="28" y="244" type="line"/>
      <point x="19" y="234" type="line"/>
      <point x="19" y="66" type="line"/>
      <point x="28" y="56" type="line"/>
      <point x="272" y="56" type="line"/>
      <point x="281" y="66" type="line"/>
      <point x="281" y="234" type="line"/>
      <point x="272" y="244" type="line"/>
      <point x="201" y="244" type="line"/>
    </contour>
    <contour>
      <point x="38" y="225" type="line"/>
      <point x="103" y="225" type="line"/>
      <point x="110" y="228" type="line"/>
      <point x="126" y="244" type="line"/>
      <point x="174" y="244" type="line"/>
      <point x="190" y="228" type="line"/>
      <point x="197" y="225" type="line"/>
      <point x="263" y="225" type="line"/>
      <point x="263" y="75" type="line"/>
      <point x="38" y="75" type="line"/>
    </contour>
    <contour>
      <point x="70" y="206"/>
      <point x="75" y="201"/>
      <point x="75" y="193"/>
      <point x="70" y="188"/>
      <point x="62" y="187"/>
      <point x="56" y="193"/>
      <point x="56" y="201"/>
      <point x="62" y="206"/>
      <point x="66" y="206" type="qcurve" smooth="yes"/>
    </contour>
    <contour>
      <point x="134" y="188"/>
      <point x="113" y="166"/>
      <point x="113" y="134"/>
      <point x="134" y="113"/>
      <point x="166" y="112"/>
      <point x="188" y="134"/>
      <point x="188" y="166"/>
      <point x="166" y="188"/>
      <point x="150" y="188" type="qcurve" smooth="yes"/>
    </contour>
    <contour>
      <point x="173" y="206"/>
      <point x="206" y="173"/>
      <point x="206" y="127"/>
      <point x="173" y="94"/>
      <point x="127" y="94"/>
      <point x="94" y="127"/>
      <point x="94" y="173"/>
      <point x="127" y="206"/>
      <point x="150" y="206" type="qcurve" smooth="yes"/>
    </contour>
  </outline>
</glyph>
<glyph name="device-mobile" format="2">
  <advance width="300"/>
  <unicode hex="EADB"/>
  <note>
device-mobile
</note>
  <outline>
    <contour>
      <point x="75" y="272" type="line"/>
      <point x="75" y="28" type="line"/>
      <point x="84" y="19" type="line"/>
      <point x="234" y="19" type="line"/>
      <point x="244" y="28" type="line"/>
      <point x="244" y="272" type="line"/>
      <point x="234" y="281" type="line"/>
      <point x="84" y="281" type="line"/>
    </contour>
    <contour>
      <point x="94" y="263" type="line"/>
      <point x="225" y="263" type="line"/>
      <point x="225" y="38" type="line"/>
      <point x="94" y="38" type="line"/>
    </contour>
    <contour>
      <point x="141" y="56" type="line"/>
      <point x="178" y="56" type="line"/>
      <point x="178" y="75" type="line"/>
      <point x="141" y="75" type="line"/>
    </contour>
  </outline>
</glyph>
<glyph name="diff-ignored" format="2">
  <advance width="300"/>
  <unicode hex="EADD"/>
  <note>
diff-ignored
</note>
  <outline>
    <contour>
      <point x="19" y="272" type="line"/>
      <point x="19" y="28" type="line"/>
      <point x="28" y="19" type="line"/>
      <point x="272" y="19" type="line"/>
      <point x="281" y="28" type="line"/>
      <point x="281" y="272" type="line"/>
      <point x="272" y="281" type="line"/>
      <point x="28" y="281" type="line"/>
    </contour>
    <contour>
      <point x="38" y="263" type="line"/>
      <point x="263" y="263" type="line"/>
      <point x="263" y="38" type="line"/>
      <point x="38" y="38" type="line"/>
    </contour>
    <contour>
      <point x="75" y="113" type="line"/>
      <point x="75" y="75" type="line"/>
      <point x="113" y="75" type="line"/>
      <point x="225" y="188" type="line"/>
      <point x="225" y="225" type="line"/>
      <point x="188" y="225" type="line"/>
    </contour>
  </outline>
</glyph>
<glyph name="diff-modified" format="2">
  <advance width="300"/>
  <unicode hex="EADE"/>
  <note>
diff-modified
</note>
  <outline>
    <contour>
      <point x="19" y="272" type="line"/>
      <point x="19" y="28" type="line"/>
      <point x="28" y="19" type="line"/>
      <point x="272" y="19" type="line"/>
      <point x="281" y="28" type="line"/>
      <point x="281" y="272" type="line"/>
      <point x="272" y="281" type="line"/>
      <point x="28" y="281" type="line"/>
    </contour>
    <contour>
      <point x="263" y="263" type="line"/>
      <point x="263" y="38" type="line"/>
      <point x="38" y="38" type="line"/>
      <point x="38" y="263" type="line"/>
    </contour>
    <contour>
      <point x="127" y="94"/>
      <point x="94" y="127"/>
      <point x="94" y="173"/>
      <point x="127" y="206"/>
      <point x="173" y="206"/>
      <point x="206" y="173"/>
      <point x="206" y="127"/>
      <point x="173" y="94"/>
      <point x="150" y="94" type="qcurve" smooth="yes"/>
    </contour>
  </outline>
</glyph>
<glyph name="diff-removed" format="2">
  <advance width="300"/>
  <unicode hex="EADF"/>
  <note>
diff-removed
</note>
  <outline>
    <contour>
      <point x="94" y="169" type="line"/>
      <point x="94" y="150" type="line"/>
      <point x="188" y="150" type="line"/>
      <point x="188" y="169" type="line"/>
    </contour>
    <contour>
      <point x="19" y="272" type="line"/>
      <point x="19" y="47" type="line"/>
      <point x="28" y="38" type="line"/>
      <point x="253" y="38" type="line"/>
      <point x="263" y="47" type="line"/>
      <point x="263" y="272" type="line"/>
      <point x="253" y="281" type="line"/>
      <point x="28" y="281" type="line"/>
    </contour>
    <contour>
      <point x="38" y="263" type="line"/>
      <point x="244" y="263" type="line"/>
      <point x="244" y="56" type="line"/>
      <point x="38" y="56" type="line"/>
    </contour>
  </outline>
</glyph>
<glyph name="diff-renamed" format="2">
  <advance width="300"/>
  <unicode hex="EAE0"/>
  <note>
diff-renamed
</note>
  <outline>
    <contour>
      <point x="19" y="272" type="line"/>
      <point x="19" y="28" type="line"/>
      <point x="28" y="19" type="line"/>
      <point x="272" y="19" type="line"/>
      <point x="281" y="28" type="line"/>
      <point x="281" y="272" type="line"/>
      <point x="272" y="281" type="line"/>
      <point x="28" y="281" type="line"/>
    </contour>
    <contour>
      <point x="38" y="263" type="line"/>
      <point x="263" y="263" type="line"/>
      <point x="263" y="38" type="line"/>
      <point x="38" y="38" type="line"/>
    </contour>
    <contour>
      <point x="75" y="169" type="line"/>
      <point x="131" y="169" type="line"/>
      <point x="131" y="225" type="line"/>
      <point x="225" y="150" type="line"/>
      <point x="131" y="75" type="line"/>
      <point x="131" y="131" type="line"/>
      <point x="75" y="131" type="line"/>
    </contour>
  </outline>
</glyph>
<glyph name="diff" format="2">
  <advance width="300"/>
  <unicode hex="EAE1"/>
  <note>
diff
</note>
  <outline>
    <contour>
      <point x="38" y="66" type="line"/>
      <point x="47" y="56" type="line"/>
      <point x="141" y="56" type="line"/>
      <point x="150" y="66" type="line"/>
      <point x="150" y="234" type="line"/>
      <point x="141" y="244" type="line"/>
      <point x="47" y="244" type="line"/>
      <point x="38" y="234" type="line"/>
    </contour>
    <contour>
      <point x="56" y="188" type="line"/>
      <point x="131" y="188" type="line"/>
      <point x="131" y="75" type="line"/>
      <point x="56" y="75" type="line"/>
    </contour>
    <contour>
      <point x="56" y="225" type="line"/>
      <point x="131" y="225" type="line"/>
      <point x="131" y="206" type="line"/>
      <point x="56" y="206" type="line"/>
    </contour>
    <contour>
      <point x="169" y="234" type="line"/>
      <point x="169" y="66" type="line"/>
      <point x="178" y="56" type="line"/>
      <point x="272" y="56" type="line"/>
      <point x="281" y="66" type="line"/>
      <point x="281" y="234" type="line"/>
      <point x="272" y="244" type="line"/>
      <point x="178" y="244" type="line"/>
    </contour>
    <contour>
      <point x="188" y="113" type="line"/>
      <point x="263" y="113" type="line"/>
      <point x="263" y="75" type="line"/>
      <point x="188" y="75" type="line"/>
    </contour>
    <contour>
      <point x="188" y="225" type="line"/>
      <point x="263" y="225" type="line"/>
      <point x="263" y="150" type="line"/>
      <point x="188" y="150" type="line"/>
    </contour>
  </outline>
</glyph>
<glyph name="discard" format="2">
  <advance width="300"/>
  <unicode hex="EAE2"/>
  <note>
discard
</note>
  <outline>
    <contour>
      <point x="84" y="263" type="line"/>
      <point x="84" y="224" type="line"/>
      <point x="98" y="237" type="line" smooth="yes"/>
      <point x="114" y="254"/>
      <point x="158" y="265"/>
      <point x="202" y="254"/>
      <point x="235" y="221"/>
      <point x="247" y="177"/>
      <point x="235" y="133"/>
      <point x="219" y="116" type="qcurve" smooth="yes"/>
      <point x="121" y="19" type="line"/>
      <point x="108" y="32" type="line"/>
      <point x="205" y="130" type="line" smooth="yes"/>
      <point x="218" y="142"/>
      <point x="228" y="177"/>
      <point x="218" y="212"/>
      <point x="193" y="237"/>
      <point x="158" y="246"/>
      <point x="124" y="237"/>
      <point x="111" y="224" type="qcurve" smooth="yes"/>
      <point x="93" y="206" type="line"/>
      <point x="141" y="206" type="line"/>
      <point x="141" y="188" type="line"/>
      <point x="75" y="188" type="line"/>
      <point x="66" y="197" type="line"/>
      <point x="66" y="263" type="line"/>
    </contour>
  </outline>
</glyph>
<glyph name="editor-layout" format="2">
  <advance width="300"/>
  <unicode hex="EAE3"/>
  <note>
editor-layout
</note>
  <outline>
    <contour>
      <point x="281" y="28" type="line"/>
      <point x="272" y="19" type="line"/>
      <point x="84" y="19" type="line"/>
      <point x="75" y="28" type="line"/>
      <point x="75" y="113" type="line"/>
      <point x="28" y="113" type="line"/>
      <point x="19" y="121" type="line"/>
      <point x="19" y="272" type="line"/>
      <point x="28" y="281" type="line"/>
      <point x="122" y="281" type="line"/>
      <point x="131" y="272" type="line"/>
      <point x="131" y="188" type="line"/>
      <point x="272" y="188" type="line"/>
      <point x="281" y="178" type="line"/>
    </contour>
    <contour>
      <point x="113" y="131" type="line"/>
      <point x="113" y="244" type="line"/>
      <point x="38" y="244" type="line"/>
      <point x="38" y="131" type="line"/>
    </contour>
    <contour>
      <point x="263" y="150" type="line"/>
      <point x="131" y="150" type="line"/>
      <point x="131" y="121" type="line"/>
      <point x="122" y="113" type="line"/>
      <point x="94" y="113" type="line"/>
      <point x="94" y="38" type="line"/>
      <point x="263" y="38" type="line"/>
    </contour>
  </outline>
</glyph>
<glyph name="empty-window" format="2">
  <advance width="300"/>
  <unicode hex="EAE4"/>
  <note>
empty-window
</note>
  <outline>
    <contour>
      <point x="75" y="281" type="line"/>
      <point x="56" y="281" type="line"/>
      <point x="56" y="225" type="line"/>
      <point x="0" y="225" type="line"/>
      <point x="0" y="206" type="line"/>
      <point x="56" y="206" type="line"/>
      <point x="56" y="150" type="line"/>
      <point x="75" y="150" type="line"/>
      <point x="75" y="206" type="line"/>
      <point x="131" y="206" type="line"/>
      <point x="131" y="225" type="line"/>
      <point x="75" y="225" type="line"/>
    </contour>
    <contour>
      <point x="28" y="19" type="line"/>
      <point x="272" y="19" type="line"/>
      <point x="281" y="28" type="line"/>
      <point x="281" y="234" type="line"/>
      <point x="272" y="244" type="line"/>
      <point x="150" y="244" type="line"/>
      <point x="150" y="225" type="line"/>
      <point x="263" y="225" type="line"/>
      <point x="263" y="188" type="line"/>
      <point x="150" y="188" type="line"/>
      <point x="150" y="169" type="line"/>
      <point x="263" y="169" type="line"/>
      <point x="263" y="38" type="line"/>
      <point x="38" y="38" type="line"/>
      <point x="38" y="131" type="line"/>
      <point x="19" y="131" type="line"/>
      <point x="19" y="28" type="line"/>
    </contour>
  </outline>
</glyph>
<glyph name="exclude" format="2">
  <advance width="300"/>
  <unicode hex="EAE5"/>
  <note>
exclude
</note>
  <outline>
    <contour>
      <point x="186" y="236" type="line"/>
      <point x="224" y="262" type="line"/>
      <point x="262" y="224" type="line"/>
      <point x="236" y="186" type="line"/>
      <point x="281" y="176" type="line"/>
      <point x="281" y="137" type="line"/>
      <point x="273" y="147"/>
      <point x="262" y="155" type="qcurve"/>
      <point x="262" y="161" type="line"/>
      <point x="218" y="170" type="line"/>
      <point x="212" y="184" type="line"/>
      <point x="237" y="222" type="line"/>
      <point x="222" y="237" type="line"/>
      <point x="184" y="212" type="line"/>
      <point x="170" y="218" type="line"/>
      <point x="161" y="262" type="line"/>
      <point x="139" y="262" type="line"/>
      <point x="130" y="218" type="line"/>
      <point x="116" y="212" type="line"/>
      <point x="78" y="237" type="line"/>
      <point x="63" y="222" type="line"/>
      <point x="88" y="184" type="line"/>
      <point x="82" y="170" type="line"/>
      <point x="38" y="161" type="line"/>
      <point x="38" y="139" type="line"/>
      <point x="82" y="130" type="line"/>
      <point x="88" y="116" type="line"/>
      <point x="63" y="78" type="line"/>
      <point x="78" y="63" type="line"/>
      <point x="116" y="88" type="line"/>
      <point x="130" y="82" type="line"/>
      <point x="139" y="38" type="line"/>
      <point x="145" y="38" type="line"/>
      <point x="153" y="27"/>
      <point x="163" y="19" type="qcurve"/>
      <point x="124" y="19" type="line"/>
      <point x="114" y="64" type="line"/>
      <point x="76" y="38" type="line"/>
      <point x="38" y="76" type="line"/>
      <point x="64" y="114" type="line"/>
      <point x="19" y="124" type="line"/>
      <point x="19" y="176" type="line"/>
      <point x="64" y="186" type="line"/>
      <point x="38" y="224" type="line"/>
      <point x="76" y="262" type="line"/>
      <point x="114" y="236" type="line"/>
      <point x="124" y="281" type="line"/>
      <point x="176" y="281" type="line"/>
    </contour>
    <contour>
      <point x="150" y="187" type="line"/>
      <point x="136" y="188"/>
      <point x="115" y="170"/>
      <point x="111" y="143"/>
      <point x="124" y="120"/>
      <point x="137" y="115" type="qcurve"/>
      <point x="140" y="124"/>
      <point x="146" y="132" type="qcurve"/>
      <point x="139" y="133"/>
      <point x="131" y="144"/>
      <point x="132" y="158"/>
      <point x="142" y="168"/>
      <point x="156" y="169"/>
      <point x="167" y="161"/>
      <point x="168" y="154" type="qcurve"/>
      <point x="176" y="160"/>
      <point x="185" y="163" type="qcurve"/>
      <point x="181" y="174"/>
      <point x="162" y="188"/>
      <point x="150" y="188" type="qcurve"/>
    </contour>
    <contour>
      <point x="161" y="124"/>
      <point x="149" y="91"/>
      <point x="155" y="57"/>
      <point x="177" y="30"/>
      <point x="209" y="18"/>
      <point x="243" y="23"/>
      <point x="271" y="45"/>
      <point x="284" y="78"/>
      <point x="279" y="113"/>
      <point x="256" y="141"/>
      <point x="223" y="153"/>
      <point x="188" y="147"/>
      <point x="174" y="135" type="qcurve" smooth="yes"/>
    </contour>
    <contour>
      <point x="263" y="94" type="line"/>
      <point x="263" y="75" type="line"/>
      <point x="169" y="75" type="line"/>
      <point x="169" y="94" type="line"/>
    </contour>
  </outline>
</glyph>
<glyph name="extensions" format="2">
  <advance width="300"/>
  <unicode hex="EAE6"/>
  <note>
extensions
</note>
  <outline>
    <contour>
      <point x="169" y="188" type="line"/>
      <point x="188" y="169" type="line"/>
      <point x="281" y="169" type="line"/>
      <point x="300" y="188" type="line"/>
      <point x="300" y="281" type="line"/>
      <point x="281" y="300" type="line"/>
      <point x="188" y="300" type="line"/>
      <point x="169" y="281" type="line"/>
    </contour>
    <contour>
      <point x="281" y="281" type="line"/>
      <point x="281" y="188" type="line"/>
      <point x="188" y="188" type="line"/>
      <point x="188" y="281" type="line"/>
    </contour>
    <contour>
      <point x="0" y="19" type="line"/>
      <point x="19" y="0" type="line"/>
      <point x="225" y="0" type="line"/>
      <point x="244" y="19" type="line"/>
      <point x="244" y="113" type="line"/>
      <point x="225" y="131" type="line"/>
      <point x="131" y="131" type="line"/>
      <point x="131" y="225" type="line"/>
      <point x="113" y="244" type="line"/>
      <point x="19" y="244" type="line"/>
      <point x="0" y="225" type="line"/>
      <point x="0" y="113" type="line"/>
    </contour>
    <contour>
      <point x="19" y="131" type="line"/>
      <point x="19" y="225" type="line"/>
      <point x="113" y="225" type="line"/>
      <point x="113" y="131" type="line"/>
    </contour>
    <contour>
      <point x="113" y="19" type="line"/>
      <point x="19" y="19" type="line"/>
      <point x="19" y="113" type="line"/>
      <point x="113" y="113" type="line"/>
    </contour>
    <contour>
      <point x="131" y="113" type="line"/>
      <point x="225" y="113" type="line"/>
      <point x="225" y="19" type="line"/>
      <point x="131" y="19" type="line"/>
    </contour>
  </outline>
</glyph>
